<svg width="19" height="21" viewBox="0 0 19 21" fill="none" xmlns="http://www.w3.org/2000/svg">
<path d="M14.9189 5.17774C13.1773 4.75204 11.3324 5.16028 10.328 6.1932C10.2755 6.24703 10.2179 6.29526 10.156 6.33739C10.3792 4.16389 12.2742 2.46094 14.5712 2.46094C14.9214 2.46094 15.2052 2.18552 15.2052 1.8457C15.2052 1.50588 14.9214 1.23047 14.5712 1.23047C12.7247 1.23047 11.0805 2.08651 10.0372 3.41103C9.61126 1.46471 7.82692 0 5.69656 0H3.16094C2.8108 0 2.52703 0.275414 2.52703 0.615234C2.52703 2.98997 4.51756 4.92139 6.96437 4.92139H9.19245C9.02589 5.37705 8.91908 5.86027 8.88144 6.36143C8.80518 6.31368 8.73419 6.25729 8.67113 6.1924C7.61396 5.1058 5.89301 4.68091 4.17964 5.08385C2.34132 5.51612 0.933517 6.81612 0.414011 8.56137C-0.0454058 10.1043 -0.126625 11.9918 0.191153 13.7401C0.534024 15.6278 1.29455 17.4092 2.33273 18.7566C3.44735 20.2032 4.7769 21 6.07608 21C6.59658 21 7.09644 20.8762 7.56147 20.632C8.16153 20.3165 8.83192 20.1499 9.5 20.1499C10.1679 20.1499 10.8388 20.3167 11.4387 20.6315C11.9021 20.876 12.4018 21 12.9239 21C14.2233 21 15.5526 20.2032 16.6674 18.7565C17.7055 17.4092 18.4661 15.6274 18.8088 13.7396C19.1152 12.0544 19.051 10.2233 18.6327 8.71566C18.1352 6.92251 16.7817 5.63292 14.9189 5.17774ZM6.96437 3.69141C5.43375 3.69141 4.15307 2.63285 3.85856 1.23047H5.69656C7.22718 1.23047 8.50787 2.28902 8.80237 3.69141H6.96437ZM17.5603 13.5259C17.2513 15.2277 16.5735 16.8236 15.652 18.0196C14.7951 19.1317 13.8008 19.7695 12.9239 19.7695C12.6157 19.7695 12.3199 19.6958 12.0431 19.5497C11.2569 19.1373 10.3777 18.9194 9.5 18.9194C8.62177 18.9194 7.74272 19.1375 6.9581 19.5499C6.68044 19.6957 6.38362 19.7695 6.07608 19.7695C5.19918 19.7695 4.2049 19.1317 3.34797 18.0196C2.42633 16.8238 1.74868 15.228 1.43965 13.5263C1.15852 11.9798 1.2305 10.2515 1.63197 8.90295C2.02948 7.5677 3.06684 6.61169 4.47827 6.27972C5.73123 5.98508 7.01505 6.28244 7.74933 7.03722C8.20181 7.50217 8.83951 7.76894 9.49901 7.76926H9.5H9.50033C10.1605 7.7691 10.7982 7.50249 11.25 7.03786C11.9382 6.33002 13.3196 6.05589 14.6092 6.37104C15.4344 6.57275 16.8956 7.18703 17.4085 9.03561C17.7748 10.3555 17.8316 12.0341 17.5603 13.5259Z" fill="#FF8A00"/>
</svg>
