<?xml version="1.0" encoding="UTF-8"?>
<svg width="241px" height="234px" viewBox="0 0 241 234" version="1.1" xmlns="http://www.w3.org/2000/svg" xmlns:xlink="http://www.w3.org/1999/xlink">
    <!-- Generator: Sketch 52.5 (67469) - http://www.bohemiancoding.com/sketch -->
    <title>4140</title>
    <desc>Created with Sketch.</desc>
    <g id="Page-1" stroke="none" stroke-width="1" fill="none" fill-rule="evenodd">
        <g id="4140">
            <polyline id="Fill-192" fill="#353735" points="145.491166 94 146 101 95 101 95.4568481 94 145.491166 94"></polyline>
            <path d="M149,218.15231 L129.728758,219 L120.999211,123.790267 L112.280705,219 L93,218.15231 L93.1939899,118.465517 C93.1939899,118.160977 93.1939899,117.864285 93.2066071,117.569163 C93.2066071,116.741881 93.2271101,115.969541 93.246036,115.233306 C93.4904948,108.473762 94.4746388,104.883637 95.4714,100 L146.530177,100 C147.523784,104.883637 148.507928,108.484751 148.752387,115.252144 C148.77289,115.986808 148.793393,116.765428 148.793393,117.588001 C148.804433,117.876844 148.804433,118.170395 148.804433,118.465517 L149,218.15231" id="Fill-193" fill="#2D2E2C"></path>
            <polygon id="Fill-194" fill="#252625" points="108 101 111 101 111 93 108 93"></polygon>
            <polygon id="Fill-195" fill="#252625" points="128 101 131 101 131 93 128 93"></polygon>
            <polygon id="Fill-196" fill="#252625" points="142 101 144 101 144 93 142 93"></polygon>
            <polygon id="Fill-197" fill="#252625" points="97 101 99 101 99 93 97 93"></polygon>
            <polyline id="Fill-198" fill="#161715" points="108 119 107.98002 119.615229 104.13627 219 103.14959 218.963717 102 218.900617 108 119"></polyline>
            <polyline id="Fill-199" fill="#161715" points="134 119 134.01998 119.615229 137.86373 219 138.851947 218.963717 140 218.900617 134 119"></polyline>
            <path d="M148,118 C142.782557,116.228708 138.770908,112.641145 137,107 C139.186529,111.159898 143.337814,114.415539 147.957288,115.692047 C147.978644,116.417936 148,117.187253 148,118" id="Fill-200" fill="#161715"></path>
            <path d="M104,107 C102.382353,112.621186 98.7463986,116.224153 94,118 C94,117.181215 94.0165066,116.416808 94.0390156,115.688136 C98.2391957,114.404802 102.002701,111.157627 104,107" id="Fill-201" fill="#161715"></path>
            <path d="M112.181357,220 L112.171939,220 L119,144.655731 L112.181357,220 M93.0031393,208.701359 C93.0015697,208.699781 93.0015697,208.698202 93,208.696623 L93.1742333,118.897925 C93.1742333,118.721112 93.1742333,118.549035 93.1773726,118.376959 C93.1758029,118.549035 93.1758029,118.721112 93.1758029,118.896346 L93.0031393,208.701359 M93.9951702,107.637172 C94.4032842,105.125486 94.9197054,102.904278 95.4376962,100.326287 L95.4424052,100.326287 C94.9212751,102.904278 94.4048539,105.125486 93.9951702,107.637172 M95.4581019,100.326287 L95.6794253,97 L95.6809949,97 L95.4581019,100.326287" id="Fill-202" fill="#B87230"></path>
            <path d="M121,100 L120.01391,100 C120.607419,99.2980541 120.96136,98.4138586 120.96136,97.4527765 L120.996909,97.4527765 L120.996909,97.448505 L121,97.448505 L121,100 M105.086553,100 L99.7588872,100 L99.7588872,98.4423351 C101.485317,99.05458 103.282844,99.5728524 105.086553,100 M97.6661515,100 L96,100 L96.2194745,97 C96.6924266,97.2206929 97.1746522,97.4342667 97.6661515,97.6378738 L97.6661515,100" id="Fill-203" fill="#282320"></path>
            <path d="M112.275946,219 L100.756469,218.492956 C98.3319804,214.879284 94.7757484,210.086695 93,207.764966 L93.1736287,118.465517 C93.1736287,118.29127 93.1736287,118.120162 93.1752072,117.949054 C93.1783641,117.821901 93.1830994,117.694747 93.19257,117.569163 C93.19257,116.741881 93.2004623,115.969541 93.235188,115.234876 C93.345679,112.024642 93.6266419,109.527095 93.997576,107.269728 C94.4095496,104.772182 94.9288573,102.563478 95.4529004,100 L97.1702463,100 L97.1702463,100.550999 L99.3074581,100.550999 L99.3074581,100 L104.748351,100 C108.55082,100.974844 112.38328,101.527412 115.680647,101.69695 C116.03264,101.711078 116.36727,101.729916 116.71137,101.736195 C116.720841,101.736195 116.728733,101.737765 116.736626,101.737765 C116.738204,101.737765 116.738204,101.737765 116.738204,101.737765 C116.739782,101.737765 116.741361,101.737765 116.742939,101.737765 C118.062518,101.640437 119.22583,100.981123 119.992953,100 L121,100 L121,123.790267 L112.275946,219 M107.963639,118.619357 L101.801398,218.031436 L102.982073,218.094227 L103.995434,218.130333 L107.94312,119.231578 L107.963639,118.619357 M104.568409,106.455004 C102.467501,110.655779 98.508766,113.936654 94.0907041,115.233306 C94.0670275,115.969541 94.0496646,116.741881 94.0496646,117.569163 C99.0422797,115.774886 102.866847,112.134528 104.568409,106.455004" id="Fill-204" fill="#201D1A"></path>
            <path d="M99,101 L97,101 L97,98 C97.6528804,98.2985075 98.3205318,98.5791045 99,98.8432836 L99,101" id="Fill-205" fill="#1B1916"></path>
            <polyline id="Fill-206" fill="#151411" points="104.13627 219 103.14959 218.963717 102 218.900617 108 119 107.98002 119.615229 104.13627 219"></polyline>
            <path d="M94,118 C94,117.181215 94.0165066,116.416808 94.0390156,115.688136 C98.2391957,114.404802 102.002701,111.157627 104,107 C102.382353,112.621186 98.7463986,116.224153 94,118" id="Fill-207" fill="#151411"></path>
            <path d="M121,26.1191388 L121,97.4344233 L120.965628,97.4344233 C120.965628,99.8471392 119.128288,101.820464 116.789429,102 C116.439459,101.992126 116.098864,101.971652 115.73952,101.952754 C108.43703,101.574782 98.4816459,99.2707332 92.144697,94.6027893 C95.4881562,81.7438953 99.4284385,62.7256462 93.7117482,48.4036888 C92.414986,54.6087154 91.960338,62.5130374 91.3307053,65.2344298 C89.9808227,70.2378231 87.8013247,74.9041921 87.2763704,79.9453825 C86.4092583,87.97412 83.8876026,100.165265 78.6349344,100.993652 C78.1880983,101.072396 77.6990783,101.053497 77.1897476,100.941681 C73.102603,100.014077 67.4890288,100.401497 65.134546,97.2958339 C64.2658716,96.1745194 63.8377838,94.5964898 64.0565148,92.3349623 C64.6002175,85.5677036 69.8185137,67.5369041 71.4480594,60.6153072 C73.390078,52.3928595 75.1664861,47.5973503 77.5053451,40.5387388 C78.5208818,37.4566989 79.4036176,34.0518087 80.2097974,30.8138557 C81.1550277,27.7255163 83.8876026,19.8526919 85.648387,15.9611638 L85.6749472,15.9359657 C86.0686629,14.7422068 86.7326677,13.6854624 87.6013421,12.8192785 C88.3012812,12.1058579 89.132459,11.5310268 90.0511291,11.1262826 L91.8728456,10.5609008 L104.06866,6.79221327 L106.099733,6.16226133 L109.838471,5.00944928 L109.865031,5 C109.838471,5.2661547 109.811911,5.53860891 109.794725,5.80161385 L109.794725,5.85515976 L109.78535,5.91815496 C109.777538,6.12761398 109.777538,6.34022276 109.777538,6.55125666 L109.766602,6.85520847 C109.766602,13.8429504 113.025694,19.7755228 117.526865,21.8197168 L117.848712,21.9630309 L117.911206,21.988229 L121,26.1191388" id="Fill-208" fill="#F0CFB5"></path>
            <path d="M78,100.671044 L76.5528497,107 L63,103.869919 L64.5683938,97 C66.9108808,100.086304 72.4943005,99.7016886 76.5621762,100.621013 C77.0673575,100.733583 77.5476684,100.755472 78,100.671044" id="Fill-209" fill="#78665A"></path>
            <path d="M165.680529,101.716678 C165.079488,101.847321 164.4958,101.847321 163.94524,101.716678 C158.846646,100.534596 156.362029,88.6350729 155.503849,80.7288158 C154.96591,75.6935547 152.782601,71.0281862 151.411723,66.0385714 C150.828035,63.5673742 150.413143,56.8117191 149.351462,50.9453802 C144.932786,64.9603739 147.168153,82.4932821 150.16547,94.6084445 C143.817469,99.2360367 133.77488,101.548259 126.403058,101.94491 C125.978701,101.973242 125.554344,101.987408 125.14734,102 L125.129987,102 C122.831518,101.76075 121.036283,99.8121248 121.036283,97.4448123 L121,97.4448123 L121,26.1688735 L124.112477,22.0402428 L124.121942,22.0402428 L124.192931,22.0150586 L124.510016,21.8718236 L124.528946,21.8671015 C128.849815,19.9137539 132.025393,14.4550839 132.317237,7.91979035 C132.326703,7.76238925 132.333013,7.60026612 132.333013,7.44443904 C132.342478,7.26814981 132.342478,7.09186058 132.342478,6.91557135 L132.333013,6.578733 C132.333013,6.04042125 132.317237,5.51784961 132.263601,5 L132.290419,5.00944407 L136.046531,6.17263817 L138.098904,6.80696459 L150.288518,10.600331 L152.437121,11.2629896 C153.293723,11.6612144 154.073025,12.2058222 154.73559,12.8763509 C155.530667,13.6617824 156.158526,14.6046149 156.574996,15.6529062 L156.574996,15.6639243 C158.333947,19.2196151 161.613643,28.3299906 162.637463,31.6369876 C163.459359,34.8668581 164.84759,38.0432123 165.811464,41.1377178 C168.048409,48.2821536 170.469926,53.8840587 171.673585,60.9844222 C172.858314,67.985623 178.393885,86.359053 178.939712,93.1273002 C179.188962,95.5654432 178.647868,97.2102846 177.639823,98.3451465 C175.147317,101.167348 169.693778,100.824214 165.680529,101.716678 Z" id="Fill-210" fill="#B5DAF0"></path>
            <path d="M178,103.857691 L164.298878,107 L163,101.360481 C163.5488,101.492326 164.121187,101.492326 164.728169,101.360481 C168.73016,100.473666 174.164692,100.815835 176.653947,98 L178,103.857691" id="Fill-211" fill="#78665A"></path>
            <path d="M132,6.36221066 L131.980805,6.36221066 C123.906252,8.5583194 116.58189,8.52269845 109,6.39473413 L109.007998,6.04936583 L109.007998,5.77214195 L109.017595,5.71019248 L109.017595,5.65753543 L109.025593,5.4670408 C109.025593,5.29358228 109.03519,5.12012377 109.052785,4.95595767 L109.062383,4.87852083 C109.07198,4.70351357 109.089575,4.53160379 109.10877,4.36588896 C109.171152,3.67824983 109.268725,3.01229302 109.403088,2.36182358 L109.483066,1.96844444 C109.636623,1.2931952 109.814173,0.633433339 110.030113,0 C116.984978,2.42222431 123.466375,2.50120989 130.969887,0 C131.481744,1.49143351 131.811253,3.11760712 131.937617,4.8181201 C131.980805,5.31836207 132,5.8418351 132,6.36221066" id="Fill-212" fill="#4D423B"></path>
            <path d="M121,26 L115,23.7149243 C115.313659,23.5808116 115.607083,23.4277854 115.870152,23.2455296 L116.229342,22.9721458 L116.266442,22.9360385 L116.539629,22.6660935 L116.607083,22.5887208 L116.806071,22.3273728 L117.005059,21.9817744 L117.089376,21.8098349 L117.165261,21.6155433 L117.251265,21.3060523 L117.305228,21 L117.666105,21.4900275 L121,26" id="Fill-213" fill="#DBB8A1"></path>
            <path d="M127,23.7149243 L121,26 L124.326215,21.4900275 L124.33633,21.4900275 L124.693734,21 L124.751054,21.3060523 C124.978646,22.3686382 125.772689,23.1578404 126.839843,23.6375516 L127,23.7149243" id="Fill-214" fill="#DBB8A1"></path>
            <path d="M125,33 C125,33.5515055 124.55115,34 123.999207,34 C123.44885,34 123,33.5515055 123,33 C123,32.4469097 123.44885,32 123.999207,32 C124.55115,32 125,32.4469097 125,33" id="Fill-215" fill="#746256"></path>
            <path d="M125,43 C125,43.5515055 124.55115,44 123.999207,44 C123.44885,44 123,43.5515055 123,43 C123,42.4484945 123.44885,42 123.999207,42 C124.55115,42 125,42.4484945 125,43" id="Fill-216" fill="#746256"></path>
            <path d="M125,54.0023828 C125,54.5552025 124.55115,55 123.999207,55 C123.44885,55 123,54.5552025 123,54.0023828 C123,53.4479746 123.44885,53 123.999207,53 C124.55115,53 125,53.4479746 125,54.0023828" id="Fill-217" fill="#746256"></path>
            <path d="M125,65.0015848 C125,65.5515055 124.55115,66 123.999207,66 C123.44885,66 123,65.5515055 123,65.0015848 C123,64.4469097 123.44885,64 123.999207,64 C124.55115,64 125,64.4469097 125,65.0015848" id="Fill-218" fill="#746256"></path>
            <path d="M125,74.999207 C125,75.5495638 124.55115,76 123.999207,76 C123.44885,76 123,75.5495638 123,74.999207 C123,74.4488501 123.44885,74 123.999207,74 C124.55115,74 125,74.4488501 125,74.999207" id="Fill-219" fill="#746256"></path>
            <path d="M125,86 C125,86.552381 124.55115,87 123.999207,87 C123.44885,87 123,86.552381 123,86 C123,85.4460317 123.44885,85 123.999207,85 C124.55115,85 125,85.4460317 125,86" id="Fill-220" fill="#746256"></path>
            <path d="M132,6.34388559 C132,6.52386309 132,6.70384059 131.990399,6.88381809 C131.990399,7.04290535 131.983998,7.20842038 131.974396,7.36911457 C131.587143,13.9302587 128.369095,19.379399 124.01969,21.3270127 L124.074097,21.6082275 L124.054895,21.6130484 L124.000487,21.3270127 L123.66124,21.7849912 L123.651638,21.7849912 L120.494399,26 L117.330759,21.7849912 L116.988311,21.3270127 C112.352466,19.2556645 109,13.1958862 109,6.03374578 C116.585055,8.24168408 123.912475,8.27864374 131.990399,6 L132,6.34388559" id="Fill-221" fill="#F2C6A7"></path>
            <path d="M120.802063,44 C119.486975,43.1957534 117.622274,42.6590613 116,42.7065562 C116.136158,41.9498044 116.333753,41.1946359 116.60939,40.4347178 C117.119153,38.9085491 117.50272,37.3238033 117.310106,35.7406407 C117.054395,33.7252747 115.903693,31.4091078 116.161065,29.3969082 C116.260693,28.6005774 116.659204,28.0480536 117.165646,27.5683554 L118.469111,27.5683554 C119.065217,27.5683554 119.61151,27.3530453 120.015003,27 C120.247468,27.0965729 120.499859,27.1504004 120.765533,27.1504004 L120.948184,27.1424846 C120.476612,27.7931645 119.893789,28.3900168 119.613171,29.1531011 C119.440482,29.5979698 119.354138,30.0776681 119.337533,30.563699 C119.310966,31.3489477 119.463729,32.1579438 119.741026,32.8719501 C120.448384,34.3965357 121.467909,35.7976346 121.849816,37.4441237 C122.303123,39.4325759 121.665505,41.8785621 120.802063,44" id="Fill-222" fill="#37312C"></path>
            <path d="M129,38.9465579 C127.548387,39.8130284 125.73998,40.1044079 123.996742,39.9679196 C124.135223,39.5584548 124.252525,39.1443892 124.293255,38.7165215 C124.417074,37.2366205 124.104268,35.7628539 123.100684,34.5820003 C122.242098,33.5683065 119.873249,32.0853384 119,30.4520798 C119.016292,29.981272 119.10101,29.5165984 119.270446,29.0871971 C119.54578,28.3464798 120.117628,27.7683216 120.581949,27.1380219 C120.777452,27.1180854 120.961551,27.0720781 121.134246,27 C121.533399,27.3419875 122.067775,27.5505538 122.651026,27.5505538 L122.681981,27.5505538 C121.601825,30.093223 123.744216,31.2802109 125.671554,32.9272717 C126.676768,33.8152122 127.492994,34.8197046 127.994787,35.997491 C128.348322,36.7857492 128.747475,37.860786 129,38.9465579" id="Fill-223" fill="#403831"></path>
            <path d="M132,23 L132,27 L123.227419,27 C122.65,27 122.120968,26.8002894 121.725806,26.4790159 L121.456452,26.211288 C121.170968,25.8726483 121,25.4544139 121,25 C121,24.4138929 121.279032,23.8885673 121.725806,23.5209841 C122.120968,23.195369 122.65,23 123.227419,23 L132,23" id="Fill-224" fill="#4D423B"></path>
            <path d="M121,25 C121,25.5832127 120.719396,26.1085384 120.271075,26.4790159 C119.879197,26.8002894 119.348629,27 118.769682,27 L110,27 L110,23 L118.769682,23 C119.348629,23 119.879197,23.195369 120.271075,23.5209841 C120.719396,23.8885673 121,24.4138929 121,25" id="Fill-225" fill="#4D423B"></path>
            <path d="M123,25.0017905 C123,25.8164727 122.512545,26.5183527 121.808244,26.831692 C121.61828,26.9140555 121.415771,26.9695613 121.198925,26.9910474 L121.001792,27 C120.715054,27 120.442652,26.9391226 120.191756,26.831692 C119.487455,26.5183527 119,25.8164727 119,25.0017905 C119,24.1871083 119.487455,23.4816473 120.191756,23.171889 C120.442652,23.0644584 120.715054,23 121.001792,23 C121.286738,23 121.560932,23.0644584 121.808244,23.171889 C122.512545,23.4816473 123,24.1871083 123,25.0017905" id="Fill-226" fill="#63554A"></path>
            <path d="M117,21.0696656 L116.950759,21.3445007 L116.872282,21.6224239 L116.803038,21.7968979 L116.726099,21.9512997 L116.544525,22.2616473 L116.36295,22.4963379 L116.3014,22.5658187 L116.05212,22.8082295 L116.018267,22.8406539 L115.690509,23.0861527 C115.450462,23.2498186 115.182716,23.3872362 114.896506,23.5076695 C112.826864,24.3723195 109.732403,24.0974843 108.024372,22.6877961 C105.973196,20.759318 104.126675,17.7191472 103.488087,15.1838701 C102.783332,12.3984622 102.832572,9.29344256 103.69582,6.61148381 L103.69582,6.60376372 C103.765065,6.40304142 103.825077,6.21158322 103.902015,6.01549298 C103.972799,5.82403478 104.049737,5.62331248 104.135908,5.44266241 C104.203614,5.26355635 104.291323,5.08599432 104.368262,4.92387246 C104.480592,4.70462194 104.583689,4.49926759 104.696019,4.30163332 C104.789884,4.14414352 104.885287,3.98819773 104.980691,3.84151605 L105.03147,3.76431516 C105.126874,3.60836937 105.23151,3.46168769 105.34384,3.31500601 C105.454631,3.1575162 105.583888,2.99539435 105.713144,2.84562463 C105.8424,2.69276688 105.973196,2.54454118 106.110146,2.39631548 C106.248635,2.24808978 106.385585,2.11221622 106.533307,1.98251873 C106.705649,1.81885286 106.887223,1.66908314 107.074953,1.52548949 C107.342698,1.31550308 107.618138,1.12404489 107.921275,0.943394817 L108.249032,0.768920817 L108.567557,0.60525494 C108.852229,0.464749329 109.144594,0.345859966 109.455425,0.250130868 C109.586221,0.199178284 109.713938,0.15440177 109.852427,0.121977399 C110.000149,0.0787449029 110.155564,0.0355124072 110.309441,0 C110.101708,0.631503241 109.930904,1.28925478 109.783183,1.9624465 L109.706244,2.354627 C109.576988,3.00311443 109.483123,3.66704205 109.423111,4.35258591 C109.395413,4.5177958 109.38772,4.68918177 109.378487,4.86365577 L109.369254,4.94085665 C109.352328,5.10452253 109.343095,5.27745251 109.343095,5.4503825 L109.335402,5.64029667 L109.335402,5.69279327 L109.326169,5.75455398 L109.326169,6.03093315 L109.318475,6.3752491 C109.318475,13.256936 112.542192,19.0794268 117,21.0696656" id="Fill-227" fill="#78665A"></path>
            <path d="M137.512267,15.1833943 C136.882536,17.7185919 135.036455,20.7586675 132.973278,22.6870852 C131.221118,24.1399603 128.010877,24.3823635 125.941542,23.4374542 C124.97616,22.998967 124.258667,22.2980049 124.052349,21.3391999 L124,21.0690053 C128.184861,19.1977145 131.281166,13.9621145 131.653769,7.65808781 C131.663007,7.50369088 131.669166,7.34466204 131.669166,7.19180908 C131.678404,6.92161445 131.687642,6.65450776 131.687642,6.37504931 L131.687642,6.34262596 C131.687642,5.82385227 131.669166,5.30199064 131.627595,4.80328855 C131.50596,3.10801024 131.188785,1.48684245 130.696086,0 C134.095708,0.787424352 136.268202,3.38438074 137.296711,6.56650151 C138.166633,9.259184 138.218982,12.3841779 137.512267,15.1833943" id="Fill-228" fill="#78665A"></path>
            <path d="M96,97 C95.1111111,96.5623337 94.2560386,96.0950743 93.4460548,95.5966643 C94.2560386,96.0950743 95.1111111,96.5623337 96,96.9984425 L96,97 M88,75.5574664 C88.0016103,75.5465637 88.0016103,75.5372185 88.0032206,75.5263158 C88.9355878,72.2399247 90.2818035,69.01895 91.2302738,65.6453371 C91.8792271,62.953923 92.3478261,55.1366734 93.68438,49 C93.68438,49.0015575 93.6859903,49.0046726 93.6876006,49.0077877 C92.352657,55.1429035 91.8824477,62.9601532 91.2334944,65.6468947 C90.2834138,69.0314102 88.9323671,72.2601726 88,75.5574664" id="Fill-229" fill="#B87230"></path>
            <polyline id="Fill-230" fill="#944E2A" points="96 97.001 96 96.999 96 97.001"></polyline>
            <path d="M120.008172,100 L120.001934,100 C120.602333,99.1726205 120.959454,98.1270678 120.959454,96.9925677 L120.993762,96.9925677 L120.993762,93 L120.993762,96.9925677 L121,96.9925677 L121,96.9976025 L120.964132,96.9976025 C120.964132,98.1304244 120.607011,99.1726205 120.008172,100 M104.957645,100 L104.946728,100 C103.126817,99.4965236 101.313143,98.8856389 99.5712058,98.1639895 L99.5712058,98.1623112 C101.316262,98.8839607 103.133055,99.4948454 104.957645,100 M97.4596719,97.2157756 C96.9637577,96.9757852 96.4772004,96.724047 96,96.4639175 L96,96.4622393 C96.4772004,96.7223687 96.9637577,96.9741069 97.4596719,97.2140973 L97.4596719,97.2157756" id="Fill-231" fill="#1E1814"></path>
            <path d="M116.802133,102 C116.80058,102 116.799027,102 116.797474,102 C118.094326,101.884372 119.23742,101.127371 119.993788,100 L120,100 C119.245185,101.129178 118.100538,101.887986 116.802133,102 M116.771071,101.998193 C116.432491,101.990967 116.10323,101.969286 115.756885,101.953026 C112.512425,101.757904 108.741458,101.121951 105,100 L105.010872,100 C108.74767,101.118338 112.512425,101.752484 115.752226,101.945799 C116.100124,101.96748 116.432491,101.98916 116.771071,101.998193" id="Fill-232" fill="#1A1512"></path>
            <path d="M99,98.566 C98.3205318,98.212 97.6528804,97.836 97,97.436 L97,97.434 C97.6528804,97.834 98.3205318,98.21 99,98.564 L99,98.566" id="Fill-233" fill="#181512"></path>
            <path d="M116.789417,102 C116.780039,102 116.772224,101.998428 116.762846,101.998428 C116.422124,101.990571 116.087653,101.971713 115.737552,101.952854 C112.477242,101.784702 108.688654,101.233098 104.9282,100.260327 C103.09955,99.7872988 101.278715,99.2152653 99.5297758,98.5395113 C98.8108194,98.2613522 98.1043667,97.9659063 97.4135434,97.6516021 C96.9165258,97.4268747 96.4288858,97.1911465 95.9506236,96.9475608 L95.9490606,96.9475608 C95.086313,96.507535 94.2563874,96.0360788 93.4702242,95.5331922 C93.0107174,95.2408893 92.56684,94.9375858 92.1385921,94.6217101 C95.483302,81.7918149 99.4250582,62.8141305 93.7046665,48.5195778 C93.7046665,48.5227209 93.7046665,48.5242924 93.7046665,48.5258639 C93.7031036,48.5227209 93.7015406,48.5195778 93.7015406,48.5180063 C92.4042933,54.709798 91.9494753,62.5972606 91.319607,65.3128484 C90.3990303,68.7167623 89.0924053,71.9666672 88.1874581,75.282576 C88.4406558,72.482126 88.5985136,69.5968139 87.5685305,66.3201932 C86.9824248,64.4390829 86.0524704,63.2415841 84.9662212,62.4243933 C83.9596823,61.6669203 82.8249817,61.2536104 81.7574878,60.9298771 C78.9691876,59.975964 76.0933623,59.44479 73.1987815,58.7077468 C72.8002297,58.6071694 72.4001148,58.500306 72,58.3887281 C73.731747,51.5416122 75.3837836,47.0266331 77.4922012,40.6714033 C78.5081178,37.5990802 79.3927466,34.2030239 80.200791,30.9672627 C81.144812,27.8870821 83.878409,20.0310499 85.638289,16.1478222 L85.6648592,16.1226779 C86.0571593,14.9314652 86.7245383,13.8754032 87.5919747,13.0126383 C88.2937386,12.3007394 89.1236643,11.7271344 90.045804,11.3232535 L91.8650761,10.7575061 L104.060764,7 C103.185512,9.72973152 103.135498,12.8869167 103.851329,15.7203686 C104.499952,18.3008056 106.37549,21.3951299 108.458901,23.3579593 C108.982489,23.7916991 109.635801,24.1201469 110.350069,24.3417313 L110.350069,27.4722006 L117.516188,27.4722006 C117.380211,27.6183521 117.253612,27.7707896 117.14108,27.9357992 C116.941023,28.2249591 116.789417,28.5518354 116.714395,28.9447156 C116.698766,29.0201486 116.686262,29.0987246 116.676884,29.1788721 C116.617492,29.6676151 116.637811,30.1752163 116.705017,30.6922466 C116.91289,32.2841971 117.577143,33.9657243 117.755319,35.4775273 C117.853785,36.3135763 117.797518,37.1543399 117.650601,37.9856743 C117.520877,38.7101454 117.322382,39.4283304 117.09888,40.1355147 C117.080125,40.1889464 117.06137,40.2439496 117.044177,40.2973814 C116.809735,40.9998511 116.644062,41.6944633 116.520589,42.390647 C116.522152,42.390647 116.523715,42.390647 116.525278,42.390647 C116.539345,42.390647 116.554974,42.3890754 116.570604,42.3890754 C116.614366,42.3890754 116.659692,42.3875039 116.703454,42.3875039 C118.127301,42.3875039 119.709004,42.8668178 120.893719,43.5802882 C120.929667,43.6022895 120.965615,43.6242907 121,43.646292 L121,97.4441614 L120.965615,97.4441614 C120.965615,98.5065094 120.6077,99.4855668 120.005965,100.260327 C119.244809,101.240955 118.094479,101.899423 116.789417,102" id="Fill-234" fill="#6BA7BD"></path>
            <path d="M121.004,97 L120.996,97 L120.996,43 C120.998,43.0015774 121.002,43.0031549 121.004,43.0031549 L121.004,97" id="Fill-235" fill="#BD866B"></path>
            <path d="M120.823678,8 C120.882452,8 120.941226,7.99802956 121,7.99802956 C120.941226,7.99802956 120.882452,8 120.823678,8 M110.197975,6.07093596 C110.131468,6.04729064 110.064961,6.02364532 110,6 C110.064961,6.02364532 110.131468,6.04729064 110.197975,6.07093596" id="Fill-236" fill="#B87230"></path>
            <path d="M109.971,5.331 C109.983,5.105 109.993,4.883 110.029,4.669 C110.005,4.883 109.983,5.105 109.971,5.331" id="Fill-237" fill="#C68331"></path>
            <path d="M120.819396,8 C120.817866,8 120.816335,8 120.814805,8 C117.332823,7.99845081 113.905941,7.4996127 110.42549,6.51587916 C110.402532,6.50968242 110.381105,6.50348567 110.358147,6.49728892 C110.341311,6.49264136 110.326005,6.4879938 110.3107,6.48334624 C110.244887,6.464756 110.179073,6.44616576 110.114791,6.42757552 C110.094894,6.42137878 110.074997,6.41673122 110.05663,6.41053447 C110.038264,6.40433772 110.018366,6.39969016 110,6.39349342 L110.007653,6.04802479 L110.007653,5.77072037 L110.016836,5.7087529 L110.016836,5.65608056 L110.024489,5.4655306 C110.024489,5.29202169 110.033672,5.11851278 110.050508,4.95429899 L110.059691,4.87683966 C110.068874,4.70178156 110.08571,4.52982184 110.104077,4.36405887 C110.163768,3.67621998 110.257131,3.01006971 110.385696,2.35941131 L110.462223,1.96591789 C110.607625,1.29202169 110.777515,0.633617351 110.984138,0.00154918668 C110.985669,0.00154918668 110.987199,0.00154918668 110.99026,0 C114.352859,1.22385747 117.608321,1.84972889 120.928065,1.84972889 C120.952553,1.84972889 120.975511,1.84972889 121,1.84972889 L121,7.99845081 C120.941839,7.99845081 120.883679,8 120.825518,8 C120.823988,8 120.822457,8 120.819396,8" id="Fill-238" fill="#3C2D26"></path>
            <polyline id="Fill-239" fill="#B07861" points="118 22.902 116 22.902 116.187732 22.642 116.407063 22.24 116.5 22.04 116.583643 21.814 116.678439 21.454 116.737918 21.098 117.135688 21.668 118 22.902"></polyline>
            <path d="M120.312787,24 C119.940865,23.6466877 119.437317,23.4337539 118.887853,23.4337539 L118.679699,23.4337539 L117.967998,22.4605678 L117.640462,22.011041 C113.206484,19.977918 110,14.0299685 110,7 C110.018366,7.00630915 110.038264,7.01104101 110.05663,7.01735016 C110.074997,7.02365931 110.094894,7.02839117 110.114791,7.03470032 C110.179073,7.05362776 110.244887,7.07255521 110.3107,7.09148265 C110.326005,7.09621451 110.341311,7.10094637 110.358147,7.10567823 C110.381105,7.11198738 110.402532,7.11829653 110.42549,7.12460568 C113.905941,8.12618297 117.332823,8.6340694 120.814805,8.63564669 C120.816335,8.63564669 120.817866,8.63564669 120.819396,8.63564669 C120.822457,8.63564669 120.823988,8.63564669 120.825518,8.63564669 C120.883679,8.63564669 120.941839,8.6340694 121,8.6340694 L121,23.8501577 C120.750522,23.8501577 120.528593,23.9037855 120.312787,24" id="Fill-240" fill="#BF8062"></path>
            <path d="M116.398887,40 C116.415929,39.94584 116.43452,39.890087 116.453111,39.835927 C116.674655,39.1191031 116.871411,38.3911285 117,37.6567823 C116.871411,38.3927215 116.676205,39.1222889 116.453111,39.835927 C116.43452,39.8916799 116.415929,39.94584 116.398887,40 M116.062698,30.2639382 C115.99608,29.7398603 115.975939,29.22534 116.034811,28.7299351 C116.044107,28.648695 116.056501,28.5690479 116.071993,28.4925867 C116.056501,28.5706409 116.045656,28.650288 116.03636,28.7331209 C115.977489,29.2285259 115.99608,29.7414533 116.062698,30.2639382 M116.494941,27.4699179 C116.606488,27.302659 116.731978,27.1481436 116.866764,27 L116.879158,27 C116.738175,27.1465507 116.608037,27.302659 116.494941,27.4699179" id="Fill-241" fill="#29201B"></path>
            <path d="M110.00471,27 L110,27 L110,24.1172214 C110.755221,24.3328509 111.577956,24.4413893 112.3897,24.4413893 C113.358455,24.4413893 114.311509,24.2879884 115.112263,23.9797395 C115.404302,23.8668596 115.6775,23.7380608 115.922437,23.5846599 L116.256869,23.3545586 L116.291412,23.3241679 L116.545769,23.0969609 L116.608573,23.0318379 L116.635265,23 L118.538232,23 C119.1019,23 119.618464,23.195369 120,23.5195369 L120,23.5209841 C119.613754,23.195369 119.1019,23 118.538232,23 L116.638405,23 L116.611713,23.0347323 L116.552049,23.0998553 L116.297692,23.3270622 L116.26158,23.357453 L115.927147,23.5861071 C115.680641,23.7409551 115.405872,23.869754 115.118543,23.9811867 C114.313079,24.2908828 113.361595,24.4442836 112.39441,24.4442836 C111.582666,24.4442836 110.759931,24.3357453 110.00471,24.121563 L110.00471,27" id="Fill-242" fill="#3C2D26"></path>
            <path d="M112.228334,24 C111.4328,24 110.626495,23.8841773 109.886356,23.6540763 C109.183147,23.4363297 108.539949,23.1135706 108.024468,22.6873432 C105.973313,20.7585097 104.126812,17.7177788 103.488231,15.1820346 C102.783483,12.3976578 102.832723,9.29515475 103.694423,6.61270189 L103.700578,6.61115758 L103.700578,6.60189177 C103.769822,6.40267679 103.828295,6.21272762 103.906771,6.01196834 C103.976015,5.82356348 104.052952,5.6228042 104.140661,5.44057654 C104.208366,5.26143749 104.294536,5.08693134 104.371473,4.92169101 C104.485341,4.70394441 104.589976,4.49700791 104.700766,4.29933724 C104.793091,4.14336272 104.888494,3.9858439 104.985435,3.8422238 L105.034675,3.76346438 C105.131616,3.60748987 105.233174,3.45923686 105.347041,3.31407245 C105.45937,3.15500933 105.588625,2.9928576 105.716342,2.84460459 C105.847135,2.69017438 105.97639,2.54346567 106.113339,2.39675697 C106.253366,2.24695966 106.390314,2.11106106 106.538034,1.97979538 C106.708836,1.81764365 106.891947,1.66939064 107.081213,1.52268194 C107.345878,1.31420115 107.622854,1.12579628 107.924449,0.942024323 L108.252203,0.76906248 L108.570724,0.603822148 C108.855393,0.463290651 109.149294,0.344379384 109.460122,0.247088347 L109.855581,0.118911267 C110.000223,0.0772151084 110.154098,0.0355189499 110.307973,0 C110.100242,0.630075285 109.929441,1.28640371 109.783259,1.95817515 L109.706322,2.3504279 C109.577067,2.99903481 109.483203,3.66308474 109.423192,4.34875491 C109.395494,4.51399524 109.387801,4.68541278 109.378568,4.85991892 L109.369336,4.93713403 C109.352409,5.10083006 109.343177,5.27379191 109.343177,5.44675375 L109.335483,5.63670291 L109.335483,5.68920919 L109.326251,5.75098128 L109.326251,6.02741136 L109.318557,6.37179075 C109.318557,13.2547455 112.542239,19.078309 117,21.0689145 L116.95076,21.3438003 L116.872284,21.6217747 L116.80304,21.7962808 L116.726102,21.950711 L116.54453,22.2611158 L116.389116,22.461875 L116.362957,22.4958497 L116.301407,22.5653433 L116.05213,22.8077987 L116.018277,22.8402291 L115.690523,23.0857731 C115.450478,23.2494691 115.182735,23.386912 114.896528,23.5073676 C114.111765,23.836304 113.177743,24 112.228334,24" id="Fill-243" fill="#5F4437"></path>
            <polygon id="Fill-244" fill="#403C3F" points="163 132 220 132 220 123 163 123"></polygon>
            <path d="M213,227 C211.562816,226.875045 207.440135,226.826012 206,227 L210.64355,196 L213,227" id="Fill-245" fill="#483E50"></path>
            <path d="M222.223608,228.643916 C222.223608,230.217393 218.249582,231.634305 211.924127,232.619098 L210.914128,197.503162 L206.321222,233.31268 C201.799001,233.747931 196.569937,234 190.998447,234 C173.75149,234 159.771716,231.59986 159.771716,228.643916 C156.248499,190.417036 147.408255,165.936552 162.602228,133 L219.397808,133 C234.594922,165.936552 225.748396,190.417036 222.223608,228.643916" id="Fill-246" fill="#272627"></path>
            <path d="M191,234.044 L190.99533,234.044 C189.293898,234.044 187.625156,234.014 186,233.956 C187.625156,234.014 189.293898,234.044 190.99533,234.044 C190.996887,234.044 190.998443,234.044 191,234.044" id="Fill-247" fill="#C68331"></path>
            <path d="M191.001,132.109 L190.999,132.109 C190.999,132.037 190.999,131.965 190.999,131.891 C190.999,131.965 190.999,132.037 191.001,132.109" id="Fill-248" fill="#312A28"></path>
            <path d="M190.995288,234 C189.278558,234 187.594813,233.976515 185.955045,233.931111 C171.104471,233.516215 159.770601,231.305519 159.770601,228.643916 C157.755446,206.768672 153.996861,189.394667 154.000002,172.360409 C154.000002,161.488544 155.532964,150.754457 160.028189,139.076283 C161.514031,139.625825 163.482066,140.029763 165.651145,140.327236 C167.383582,140.563649 169.2401,140.731173 171.085623,140.848597 C171.084053,140.903395 171.082482,140.956627 171.082482,141.011425 C171.082482,141.01299 171.082482,141.01299 171.082482,141.01299 C171.082482,141.014556 171.082482,141.014556 171.082482,141.014556 C171.082482,142.841668 172.569895,144.322772 174.401283,144.322772 L191,144.322772 L191,144.352519 L182.787028,144.352519 C183.573927,145.052364 184.607421,145.476655 185.749289,145.476655 L191,145.476655 L191,234 C190.998429,234 190.996859,234 190.995288,234 M191,137.704774 L189.641381,137.704774 C189.646093,137.695381 189.650805,137.685987 189.655516,137.676593 L191,137.676593 L191,137.704774 M191,136.554023 L190.087448,136.554023 C190.376449,135.608371 190.555504,134.468579 190.575922,133.092373 C190.575922,133.070454 190.575922,133.048535 190.577493,133.02505 C190.577493,133.017222 190.577493,133.007828 190.577493,133 L190.579064,133 C190.591629,134.305751 190.745553,135.403271 191,136.322307 L191,136.554023" id="Fill-249" fill="#1C1817"></path>
            <path d="M211,140.500828 C211,142.433404 209.504673,144 207.665484,144 L174.332939,144 C172.49375,144 171,142.433404 171,140.500828 C171,138.568252 172.49375,137 174.332939,137 L207.665484,137 C209.504673,137 211,138.568252 211,140.500828" id="Fill-250" fill="#191919"></path>
            <path d="M191,137 L191,144 L174.335436,144 C172.493455,144 171,142.433404 171,140.497516 C171,139.535368 171.375335,138.656021 171.977764,138.028389 C172.581769,137.392477 173.412869,137 174.335436,137 L191,137" id="Fill-251" fill="#403C3F"></path>
            <path d="M194.40784,136 L186.041016,136 C184.86879,136 183.80782,136.42797 183,137.132304 L194.40784,137.132304 C196.304041,137.132304 197.843898,138.645201 197.843898,140.496052 C197.843898,142.357958 196.304041,143.866117 194.40784,143.866117 L183,143.866117 C183.80782,144.57203 184.86879,145 186.041016,145 L194.40784,145 C196.947395,145 199,142.989647 199,140.496052 C199,138.01667 196.947395,136 194.40784,136" id="Fill-252" fill="#C6BEC2"></path>
            <path d="M196,140.001 C196,140.471 195.695618,140.853 195.321116,140.853 L190.680478,140.853 C190.305976,140.853 190,140.471 190,140.001 C190,139.527 190.305976,139.147 190.680478,139.147 L195.321116,139.147 C195.695618,139.147 196,139.527 196,140.001" id="Fill-253" fill="#C6BEC2"></path>
            <path d="M191,44.3243243 C191,44.3243243 191,127.729608 191,132.648527 C191,141.808928 184.214847,140.951472 184.214847,140.951472 C184.214847,140.951472 157.401384,141.808928 157.616861,136.315214 C157.94558,127.876465 160.668135,90.2494987 160.430639,85.3274216 C160.418056,85.0889764 160.396036,84.7857878 160.374017,84.4273305 C159.807801,77.2534465 156,46.6740358 156,46.6740358 L176.069204,38 L191,44.3243243" id="Fill-254" fill="#85C4BA"></path>
            <path d="M160,84 C157.489326,83.2858438 154.360173,80.7460961 152.945822,79.0466249 C151.052029,76.5920084 151.167095,72.6207952 148.44227,70.7479087 C147.496173,70.1630257 146.430215,69.9265502 145.830914,69.1114977 C145.361061,68.4099535 145.477725,67.5901714 145.121341,66.8886272 C144.41017,65.7141319 143.342614,64.5522485 142.631443,63.3809062 C140.974174,61.0413745 138.962119,57.5352299 140.619388,54.7259001 C141.094035,53.9076946 141.920272,53.3243881 142.394918,52.5046061 C142.752901,51.8014854 142.872761,50.8697716 143.107688,50.1666509 C143.6974,48.6437482 144.296702,47.5906436 145.719044,46.7708616 C148.32241,45.3677732 152.589437,46.308946 155.55558,46.308946 C155.55558,46.308946 159.424671,76.837943 160,84" id="Fill-255" fill="#79B7AA"></path>
            <path d="M191,44.3243243 C191,44.3243243 191,127.729608 191,132.648527 C191,141.808928 197.78297,140.951472 197.78297,140.951472 C197.78297,140.951472 224.598742,141.808928 224.380139,136.315214 C224.051449,127.876465 221.32914,90.2494987 221.566614,85.3274216 C221.582341,85.0889764 221.599641,84.7857878 221.620085,84.4273305 C222.189396,77.2534465 226,46.6740358 226,46.6740358 L205.931027,38 L191,44.3243243" id="Fill-256" fill="#85C4BA"></path>
            <path d="M221,84 C223.511788,83.2858438 226.641936,80.7460961 228.056016,79.0466249 C229.949444,76.5920084 229.8344,72.6207952 232.557102,70.7479087 C233.503017,70.1630257 234.570367,69.9265502 235.167955,69.1114977 C235.639315,68.4099535 235.524271,67.5901714 235.880587,66.8886272 C236.588426,65.7141319 237.655776,64.5522485 238.36681,63.3809062 C240.025357,61.0413745 242.038623,57.5352299 240.380075,54.7259001 C239.90552,53.9076946 239.079442,53.3243881 238.604887,52.5046061 C238.248571,51.8014854 238.125538,50.8697716 237.892255,50.1666509 C237.301058,48.6437482 236.703469,47.5906436 235.281401,46.7708616 C232.680134,45.3677732 228.412332,46.308946 225.448358,46.308946 C225.448358,46.308946 221.576816,76.837943 221,84" id="Fill-257" fill="#79B7AA"></path>
            <path d="M208,37.4089521 C207.55765,45.5308706 196.972284,53.5980487 190.734368,53.9796678 L190.504656,54 C184.4949,53.8154465 174.126829,46.1330156 173.076053,38.1721904 C173.043459,37.9235123 173.012417,37.6717063 173,37.4089521 L178.416851,33 C179.141685,35.3913756 180.332151,37.2447308 181.828381,38.6992627 C184.168958,40.9999255 187.254545,42.3105683 190.504656,43.1613912 L190.526386,43.1613912 C193.774945,42.2996202 196.852772,40.9905414 199.191796,38.6992627 C200.688027,37.2447308 201.86918,35.3913756 202.595565,33 L208,37.4089521" id="Fill-258" fill="#79B7AA"></path>
            <path d="M159.998296,138 C158.301533,137.488597 157.182283,136.834831 157,136 C157.183986,136.834831 158.303237,137.488597 160,137.998618 L159.998296,138" id="Fill-259" fill="#B87230"></path>
            <path d="M166,140 C163.685475,139.7625 161.585475,139.44 160,139.00125 L160.001676,139 C161.587151,139.44 163.687151,139.7625 166,140" id="Fill-260" fill="#191412"></path>
            <path d="M159.766236,102 C159.834117,100.843041 159.898913,99.7113021 159.960623,98.618969 C159.898913,99.7128784 159.834117,100.843041 159.766236,102 M155.412577,81.2314854 C154.69211,80.5883802 154.068836,79.9421225 153.621437,79.3857104 C152.854687,78.3532744 152.430429,77.0497254 152,75.7477526 C152.431972,77.0513016 152.857773,78.3548506 153.629151,79.3904391 C154.073465,79.9436987 154.693653,80.5868039 155.412577,81.2251804 C155.412577,81.2267566 155.412577,81.2299091 155.412577,81.2314854 M165.815383,42.407162 C165.815383,42.4055858 165.813841,42.4024333 165.813841,42.4024333 L172.990743,39.2436519 C172.958346,39.0907568 172.93829,38.9220994 172.92749,38.7692042 C172.895093,38.5185824 172.864237,38.264808 172.851895,38 C172.864237,38.264808 172.895093,38.5185824 172.92749,38.7692042 C172.947546,38.9284043 172.97223,39.0876044 173,39.2468044 L165.815383,42.407162" id="Fill-261" fill="#B87230"></path>
            <path d="M159.809135,98 C160.199021,91.4790972 160.453507,86.2928361 160.368679,84.6708538 C160.360522,84.4431796 160.336052,84.1338567 160.313214,83.7852797 C158.587276,83.3048086 156.572594,81.9984298 155,80.6794897 C155,80.6779195 155,80.6747792 155,80.673209 C156.570962,81.9921492 158.587276,83.298528 160.314845,83.778999 C159.727569,76.6457311 155.77814,46.2394504 155.77814,46.2394504 C155.774878,46.2394504 155.771615,46.2394504 155.769984,46.2394504 L165.998369,42 C165.998369,42 166,42.0031403 166,42.0047105 L155.77814,46.2394504 C155.77814,46.2394504 159.727569,76.6457311 160.314845,83.778999 C160.337684,84.1354269 160.360522,84.4368989 160.373573,84.6739941 C160.455139,86.2944063 160.200653,91.4822375 159.809135,98" id="Fill-262" fill="#BD866B"></path>
            <path d="M180.363007,140 C176.630701,140 170.842718,139.8746 166.039321,139.219387 C163.868827,138.921563 161.898081,138.517149 160.410192,137.965391 C158.843662,137.386985 157.810318,136.64556 157.640453,135.698793 C157.621579,135.5875 157.613715,135.473073 157.618433,135.355511 C157.819755,130.214126 158.922303,114.169243 159.688267,101.405128 C159.757471,100.254586 159.823529,99.1306919 159.886442,98.04285 C160.263919,91.5361766 160.50928,86.3571717 160.430639,84.7395164 C160.418056,84.5028246 160.396036,84.2018655 160.374017,83.846044 C159.807801,76.7249123 156,46.3703635 156,46.3703635 L165.8553,42.1428283 L173.179931,39 C173.356087,39.9718472 173.667506,40.9405593 174.090595,41.8873266 C174.008808,41.8716516 173.927021,41.8638141 173.84838,41.8638141 C173.222397,41.8638141 172.764706,42.3309278 172.764706,43.0566782 L172.764706,52.2218239 C172.764706,52.9475743 173.220824,53.4146879 173.845234,53.4146879 C173.996225,53.4146879 174.156653,53.386473 174.323372,53.3300431 L181.849324,50.7609181 C183.676942,52.0493994 185.587921,53.0620014 187.3715,53.6858646 L183.426864,67.2039451 L187.041208,69.1554769 L186.581944,72.6556942 L186.583517,72.6556942 L183.426864,96.7151814 L183.426864,96.7183164 L183.420573,96.7198839 L191,104.215647 C191,118.412453 191,129.977434 191,131.712652 C191,131.778487 191,131.844321 191,131.908589 C190.998427,131.932101 190.998427,131.954046 190.998427,131.975991 C190.889902,139.380839 186.17301,139.971785 184.669393,139.971785 C184.383139,139.971785 184.213275,139.951408 184.213275,139.951408 C184.213275,139.951408 182.686065,140 180.363007,140" id="Fill-263" fill="#6B816F"></path>
            <path d="M146.238749,67 C146.190076,66.7997212 146.128841,66.6025237 146.033064,66.4145697 C145.612273,65.7290001 145.067442,65.0434304 144.547734,64.3563202 C145.069012,65.0418898 145.613843,65.7274595 146.034634,66.4161103 C146.130411,66.6040643 146.191646,66.7997212 146.238749,67 M142.417085,61.1826719 C141.220656,59.1074756 140.369653,56.6209376 141.605335,54.5303353 C141.80788,54.1883207 142.0748,53.886362 142.34957,53.5905656 C142.07637,53.886362 141.81102,54.1867801 141.611615,54.5303353 C140.371223,56.6209376 141.222226,59.105935 142.417085,61.1826719 M143.613514,51.7125669 C143.784657,51.1579488 143.886714,50.5601937 144.050007,50.077984 C144.433115,49.088915 144.822504,48.3062871 145.450551,47.6561514 C144.827214,48.3062871 144.439395,49.0904556 144.056287,50.0749028 C143.892995,50.5617343 143.786227,51.1594894 143.613514,51.7125669 M147.124295,46.523806 C148.122889,46.1232485 149.316178,46 150.56128,46 C152.046611,46 153.607307,46.1740885 155,46.2588218 C153.605736,46.1756291 152.049751,46.0030812 150.565991,46.0030812 C149.319318,46.0030812 148.126029,46.1247891 147.124295,46.523806" id="Fill-264" fill="#BD866B"></path>
            <path d="M160,84 C158.307596,83.5175904 156.332325,82.2059409 154.793339,80.8816794 C154.048617,80.2431962 153.406175,79.5999834 152.945918,79.0466313 C152.14686,78.0108696 151.70578,76.7071026 151.258308,75.4033355 C150.644631,73.614006 150.01817,71.8278294 148.444026,70.7479257 C147.494745,70.161467 146.424008,69.9218387 145.832705,69.1067873 C145.492306,68.6038832 145.458746,68.0300365 145.329299,67.4861434 C145.281355,67.2811981 145.219029,67.0809824 145.121544,66.8886492 C144.693249,66.1839529 144.138702,65.4824096 143.608128,64.7808662 C143.256543,64.3142217 142.916144,63.8460007 142.631679,63.3762031 C142.235347,62.819698 141.819837,62.1969798 141.439485,61.5332725 C140.223319,59.408148 139.35714,56.8652506 140.619652,54.7259376 C140.822613,54.3743777 141.092694,54.0669598 141.370766,53.7642715 C141.739931,53.36384 142.125077,52.9744441 142.396756,52.5046465 C142.500634,52.2997013 142.585334,52.0742615 142.657249,51.8425158 C142.833042,51.2765516 142.941714,50.6648689 143.107918,50.1666943 C143.497858,49.1593097 143.892593,48.3568702 144.527045,47.6915865 C144.851462,47.3526386 145.239804,47.0483737 145.722435,46.7709094 C145.885443,46.6810488 146.054843,46.6022237 146.230636,46.5328576 C147.250234,46.1245436 148.464801,46 149.733705,46 C151.243924,46 152.827657,46.1765682 154.246784,46.2616993 C154.246784,46.2616993 154.248382,46.2616993 154.24998,46.2632758 C154.251578,46.2632758 154.254774,46.2632758 154.257971,46.2632758 C154.707041,46.2900763 155.14013,46.3089944 155.54765,46.3089944 C155.549248,46.3089944 155.552444,46.3089944 155.55564,46.3089944 C155.55564,46.3089944 159.424678,76.8379522 160,84" id="Fill-265" fill="#637967"></path>
            <path d="M191,132 C191,130.233041 191,118.456504 191,104 L191,104.006385 L202,114.734238 L191,125.537111 L191,132" id="Fill-266" fill="#6B816F"></path>
            <path d="M187.312546,54 C185.532699,53.3867016 183.625719,52.3912474 181.801925,51.1245859 L182.749922,50.8056091 L182.749922,50.80715 L184.581563,50.1892288 L184.696139,50.150705 C185.272157,51.3911704 186.344146,52.3604284 187.664121,52.8180908 L187.312546,54 M184.699278,45.9577779 L182.749922,45.3028739 L182.749922,45.3044148 L174.291723,42.4598197 C174.213247,42.4336235 174.13634,42.4135912 174.059433,42.4012636 C173.637229,41.4705293 173.326462,40.5182217 173.150675,39.5628323 C173.122423,39.4071962 173.097311,39.2515602 173.076907,39.0959242 C173.043947,38.850913 173.012556,38.6028199 173,38.3439402 L178.47766,34 C179.210631,36.3561137 180.414461,38.1821404 181.927488,39.6152246 C183.633567,41.2486324 185.732029,42.3766084 188,43.1917713 C186.52935,43.5924185 185.323951,44.6171508 184.699278,45.9577779" id="Fill-267" fill="#637967"></path>
            <path d="M174.529772,42.0856415 C173.688475,41.7843432 173,42.3038792 173,43.2387184 L173,52.7613741 C173,53.6978419 173.688475,54.2173779 174.529772,53.9128223 L189.369027,48.5497121 C190.210324,48.2467852 190.210324,47.7516787 189.369027,47.4471231 L174.529772,42.0856415" id="Fill-268" fill="#E9F1EE"></path>
            <path d="M207.474824,42.0856371 C208.313053,41.7843543 209,42.3038636 209,43.2386548 L209,52.7608215 C209,53.6972412 208.313053,54.2183791 207.474824,53.9122106 L192.632145,48.5493758 C191.789285,48.2480929 191.789285,47.7513834 192.632145,47.4468434 L207.474824,42.0856371" id="Fill-269" fill="#E9F1EE"></path>
            <polyline id="Fill-270" fill="#E9F1EE" points="188.445062 49 183 67.093949 200 76 193.193272 49 188.445062 49"></polyline>
            <polyline id="Fill-271" fill="#B8DDD0" points="186.638234 69 183 97 203 89.7790731 199.793796 76.1763435 186.638234 69"></polyline>
            <polyline id="Fill-272" fill="#E9F1EE" points="201 115 183 96.7227592 198.607143 91 201 115"></polyline>
            <polyline id="Fill-273" fill="#58715E" points="186.71 73 186.708 73 187.292 69 186.71 73"></polyline>
            <polyline id="Fill-274" fill="#94C1AF" points="200 78 186 72.4791486 186.457444 69.0015574 186.459016 69 199.526836 76.0190344 200 78"></polyline>
            <polyline id="Fill-275" fill="#64A290" points="191 94 191 93.9968051 194.420489 92.7140575 198.998471 91 199 91.0047923 191 94"></polyline>
            <polyline id="Fill-276" fill="#516B58" points="185 96 191 94 191 94.0027894 185 96"></polyline>
            <polyline id="Fill-277" fill="#516B58" points="191 94.002 191 93.998 191 94.002"></polyline>
            <polyline id="Fill-278" fill="#88B5A2" points="183.00156 97 183 96.998419 194 93 190.510635 94.2695652 184.27595 96.5367589 183.00156 97"></polyline>
            <polyline id="Fill-279" fill="#ABC5B5" points="186.217947 100 183 96.7579527 184.286234 96.2893194 190.578865 93.9989337 198.815802 91 199 92.8601386 186.217947 100"></polyline>
            <path d="M197,47.9992368 C197,50.7637002 194.766077,53 192.00984,53 L188.988638,53 C186.233923,53 184,50.7637002 184,47.9992368 C184,45.2378263 186.233923,43 188.988638,43 L192.00984,43 C194.766077,43 197,45.2378263 197,47.9992368" id="Fill-280" fill="#8FCABD"></path>
            <path d="M183,51 L183,50.9983203 L184.879227,50.3264278 L183,51 M184.99839,45.7155655 L183,45.0016797 L183,45 L185,45.7138858 C184.99839,45.7138858 184.99839,45.7138858 184.99839,45.7155655" id="Fill-281" fill="#516A57"></path>
            <path d="M182.67748,51 C182.237679,50.0756303 182,49.0655462 182,48.0016807 C182,46.9394958 182.237679,45.9243697 182.67748,45 L185,45.7142857 C184.998129,45.7176471 184.996257,45.7210084 184.996257,45.7226891 C184.638802,46.4201681 184.446039,47.1882353 184.446039,48.0016807 C184.446039,48.6739496 184.577043,49.3142857 184.82408,49.9042017 C184.876482,50.0336134 184.934498,50.1613445 184.998129,50.2857143 L184.86151,50.3277311 L182.67748,51" id="Fill-282" fill="#BCD1C5"></path>
            <path d="M184.186,50.3337008 C184.118,50.2249173 184.056,50.1131937 184,50 C184.056,50.1131937 184.12,50.2249173 184.19,50.3337008 L184.186,50.3337008" id="Fill-283" fill="#75B09E"></path>
            <path d="M195.134,54.61 L194.838,53.402 C194.848,53.398 194.858,53.394 194.868,53.39 L195.162,54.602 C195.154,54.604 195.144,54.608 195.134,54.61" id="Fill-284" fill="#6CAA9A"></path>
            <path d="M194.148,53.674 L193.822,52.336 C193.832,52.334 193.842,52.33 193.852,52.326 L194.178,53.662 C194.168,53.666 194.158,53.67 194.148,53.674" id="Fill-285" fill="#64A08F"></path>
            <path d="M192.678697,55 L189.403795,55 C188.562384,55 187.75562,54.8877756 187,54.6766867 L187.602186,53.009352 C188.158177,53.1656647 188.753764,53.251169 189.375748,53.251169 L192.678697,53.251169 C193.313879,53.251169 193.919365,53.1629927 194.486905,53 L194.755826,53.8937876 L195,54.7007348 C194.269128,54.8971276 193.487111,55 192.678697,55" id="Fill-286" fill="#BCD1C5"></path>
            <path d="M189,53.185 L188.968864,53.185 C188.278388,53.185 187.617216,53.057 187,52.823 L187.001832,52.815 C187.628205,53.055 188.302198,53.185 189,53.185" id="Fill-287" fill="#75B09E"></path>
            <path d="M200,39 C197.575221,41.0539783 194.384553,42.2274798 191.016895,43 L190.994368,43 C187.625101,42.2372941 184.426388,41.0623905 182,39 L200,39" id="Fill-288" fill="#6FA89C"></path>
            <path d="M192.011362,51.6401099 L188.988638,51.6401099 C186.983132,51.6401099 185.355277,50.0100733 185.355277,48 C185.355277,45.9960317 186.983132,44.3583639 188.988638,44.3583639 L192.011362,44.3583639 C194.016868,44.3583639 195.644723,45.9960317 195.644723,48 C195.644723,50.0100733 194.016868,51.6401099 192.011362,51.6401099 Z M192.011362,43 L188.988638,43 C187.604428,43 186.357268,43.5555556 185.455781,44.4590965 C184.555816,45.3702686 184,46.6187424 184,48 C184,50.7655678 186.230877,53 188.988638,53 L192.011362,53 C194.769123,53 197,50.7655678 197,48 C197,45.2344322 194.769123,43 192.011362,43 Z" id="Fill-289" fill="#EEB751"></path>
            <path d="M196,48.0008384 C196,50.2091805 194.259731,52 192.115732,52 L188.884268,52 C186.740269,52 185,50.2091805 185,48.0008384 C185,45.7992035 186.740269,44 188.884268,44 L192.115732,44 C194.259731,44 196,45.7992035 196,48.0008384" id="Fill-290" fill="#8FCABD"></path>
            <path d="M196,48.0008384 C196,50.2091805 194.259731,52 192.115732,52 L188.884268,52 C186.740269,52 185,50.2091805 185,48.0008384 C185,45.7992035 186.740269,44 188.884268,44 L192.115732,44 C194.259731,44 196,45.7992035 196,48.0008384" id="Fill-291" fill="#E8E5E5"></path>
            <path d="M191.820577,51.2253196 C191.349964,51.4567177 190.709195,51.3661706 190.45626,51.9245441 L190.428667,52 L189.657597,52 C187.638714,52 186,50.2091805 186,48.0008384 C186,46.8069587 186.484409,45.7304548 187.249347,44.992664 C187.151239,45.3414379 187.119047,45.6835045 187.296868,46.0004192 C187.557468,46.3709914 188.107794,46.4715992 188.31934,46.8891218 C188.532419,47.3519178 188.190573,47.8197443 188.791486,48.1517502 C189.896736,48.7520436 191.221197,47.7761476 190.755183,46.5135192 C190.485385,45.8729826 189.643801,44.7176693 190.034701,44 L191.362228,44 C189.812424,45.4873192 192.475143,46.895829 192.924295,48.6648501 C193.186427,49.7312932 192.755671,50.7625236 191.820577,51.2253196" id="Fill-292" fill="#9B94B6"></path>
            <path d="M196,48.1627051 C196,49.2725142 195.533497,50.2802143 194.782962,51 C194.633199,50.3722799 194.290638,49.9454302 194.058248,49.2875795 C193.784543,48.3870104 194.519586,46.8135253 195.340699,46 C195.764167,46.6277201 196,47.3726147 196,48.1627051" id="Fill-293" fill="#9B94B6"></path>
            <path d="M203,33 C202.278983,35.5175631 201.106561,37.4687157 199.621389,39 L182.386314,39 C180.901143,37.4687157 179.719476,35.5175631 179,33 L203,33" id="Fill-294" fill="#59877D"></path>
            <path d="M76.7966578,133.319615 C76.8945787,138.864411 86.0091158,158.729067 86.0091158,178.700717 C86.0091158,190.348879 82.74614,219.723395 82.1522973,224 L20.8364637,224 C20.2536766,219.723395 16.9907007,190.348879 16.9907007,178.700717 C16.9907007,158.729067 25.7388243,138.873852 25.8383246,133.329056 C25.977309,125.334417 22.1599747,113.714576 18.4358231,96.6852558 C17.0191294,90.2656284 15.904095,84.4155855 15.5171497,80.0524417 C15.5171497,75.6232134 14.1746862,71.4237071 15.8156504,66.2470957 C16.3984374,64.4061732 17.3176301,63.2229477 18.3552753,62.4047599 C19.4134524,61.6070268 20.5695504,61.1869188 21.6766879,60.850203 C24.4942817,59.8951261 27.4208521,59.363304 30.3363668,58.6253616 C31.1355274,58.4271084 31.9173149,58.2099739 32.7180549,57.9645176 L36.435889,57.0487766 C36.3348094,58.2398692 36.2763727,59.4514166 36.2763727,60.6928592 C36.2763727,74.8239068 43.0960871,86.2958441 51.4999083,86.2958441 C59.9021501,86.2958441 66.7139676,74.8239068 66.7139676,60.6928592 C66.7139676,59.4404025 66.6539516,58.2005333 66.5544514,57 L70.2817617,57.9645176 C71.0825016,58.2099739 71.8737654,58.4271084 72.6634498,58.6253616 C75.5884407,59.363304 78.4944792,59.8951261 81.3120731,60.850203 C82.390782,61.1743313 83.5374037,61.5881455 84.5545172,62.3465427 C85.6521785,63.1647305 86.5919029,64.3636903 87.1841662,66.2470957 C88.8267097,71.4237071 87.4810875,75.6232134 87.4810875,80.0524417 C87.0957216,84.4061449 85.988584,90.2467471 84.5734696,96.656934 C80.8493181,113.694122 76.656094,125.323403 76.7966578,133.319615 Z" id="Fill-295" fill="#FFF3DA"></path>
            <path d="M19,96.169466 C17.2714872,96.083927 15.5155888,95.1010064 13.6308171,95.8102023 C12.2293202,96.2969968 12.462903,97.7573804 10.5974623,98 C9.66313109,98 8.96238265,96.7837913 8.02966231,96.7837913 C7.09694196,96.5411717 6.10622865,96.7231364 5.11390442,96.9051011 C4.12158018,97.0886211 3.12764504,97.2705858 2.19331378,97.0264109 C0.0185772324,96.5691662 -0.933474101,94.2238431 1.19454588,93.3186852 C-2.51217174,80.4598445 4.47275986,59.2990575 18.9258979,62.2851454 C17.8594715,63.0938775 16.9267512,64.2634285 16.3291013,66.0830758 C14.6585815,71.1998617 16.0310819,75.3508349 16.0310819,79.7288751 C16.4225345,84.0415947 17.5598411,89.8240293 19,96.169466" id="Fill-296" fill="#FCE3D0"></path>
            <path d="M100.87657,97.0263573 C99.0702536,97.514734 97.0395114,96.296903 95.2331951,96.7837243 C94.3308162,96.7837243 93.6513046,98 92.7489257,98 C90.9441678,97.757367 91.1685937,96.296903 89.8126875,95.8100816 C88.1326107,95.1475069 86.5631883,95.9360642 85.0171436,96.141369 C86.4088956,89.8049149 87.4998545,84.0314937 87.8816902,79.7278687 C87.8816902,75.3495873 89.2095431,71.1983855 87.5918068,66.0813177 C87.0042475,64.219576 86.0753738,63.0344071 85,62.2256305 C98.7741362,59.5971063 105.411842,80.544422 101.844406,93.3184274 C103.903202,94.2236351 102.982121,96.5690874 100.87657,97.0263573" id="Fill-297" fill="#FCE3D0"></path>
            <path d="M74,71.065618 C74,90.9031461 63.9283386,107 51.4992115,107 C39.0700845,107 29,90.9031461 29,71.065618 C29,66.7035955 29.4841084,62.528764 30.3687493,58.6606742 C31.1650839,58.4624719 31.9519571,58.2453933 32.7467148,58 C32.3099134,60.5703371 32.079686,63.2759551 32.079686,66.074382 C32.079686,83.2047191 40.7699828,97.0851685 51.4992115,97.0851685 C62.2268634,97.0851685 70.9187371,83.2047191 70.9187371,66.074382 C70.9187371,63.2759551 70.6900866,60.5703371 70.2532852,58 C71.0448891,58.2453933 71.8412237,58.4624719 72.6280969,58.6606742 C73.5158916,62.528764 74,66.7035955 74,71.065618" id="Fill-298" fill="#FCE3D0"></path>
            <path d="M67,60.6555669 C67,74.6439121 60.2861146,86 52.00467,86 C43.7216687,86 37,74.6439121 37,60.6555669 C37,59.4266609 37.0575965,58.2273484 37.1572229,57.048284 L37.1665629,57.048284 L66.8427771,57 C66.9408468,58.1884097 67,59.4157581 67,60.6555669" id="Fill-299" fill="#DBB092"></path>
            <path d="M66,70.6268579 C63.6625784,79.665189 58.2740067,86 52.0039564,86 C45.7354886,86 40.3469169,79.6761408 38,70.6362451 C41.079636,65.4185137 46.1991748,62 52.0039564,62 C57.7976601,62 62.9187814,65.4091265 66,70.6268579" id="Fill-300" fill="#FCE3D0"></path>
            <path d="M37,224 L21.0657285,224 C20.7825365,221.935494 19.865309,213.965942 19,205 C19.0015733,205.003119 19,205.001559 19.0031466,205.004678 C19.8684556,213.967501 20.7841098,221.935494 21.0673018,224 L37,224" id="Fill-301" fill="#E6A438"></path>
            <path d="M19.2615284,205 C19.2585211,204.996863 19.2600248,204.998432 19.2585211,204.995295 C18.3878928,195.507117 17.5698931,184.907019 17.5698931,178.953775 C17.5698931,159.047421 25.9002572,139.25712 25.9949888,133.730453 C26.1258086,125.761952 22.4914241,114.180101 18.9457565,97.2064566 L18.9442528,97.2064566 C18.1788818,93.5648782 17.5052351,90.1067902 17,87 C17.5067388,90.1067902 18.1818892,93.5648782 18.9487639,97.2064566 C22.4944315,114.180101 26.1288159,125.761952 25.9964925,133.730453 C25.9017609,139.25712 17.5729005,159.047421 17.5729005,178.953775 C17.5729005,184.908587 18.3909001,195.508685 19.2615284,205" id="Fill-302" fill="#D58E30"></path>
            <path d="M10,98 C9.22280474,98 8.60834899,97.1358543 7.86765605,96.942577 C8.60986992,97.1358543 9.21824195,97.9971989 10,98 M3.00067983,97.2296919 C2.68584731,97.2296919 2.37405664,97.1988796 2.06987063,97.1232493 C0.740577749,96.8571429 -0.105059368,95.8781513 0.0105313169,95 C-0.103538438,95.8781513 0.740577749,96.8571429 2.06987063,97.1232493 C2.37405664,97.1988796 2.68584731,97.2296919 3.00220076,97.2296919 M7.172591,96.8291317 C6.99920498,96.8081232 6.82581895,96.7997199 6.64939106,96.7997199 C6.65091199,96.7997199 6.65091199,96.7997199 6.65091199,96.7997199 C6.82581895,96.7997199 6.99920498,96.8081232 7.172591,96.8291317" id="Fill-303" fill="#D58E30"></path>
            <path d="M18,96.323 C17.018211,96.091 16.0251741,95.677 15,95.677 L15.0016069,95.677 C16.0267809,95.677 17.0214247,96.091 18,96.323" id="Fill-304" fill="#D58E30"></path>
            <path d="M1,81 C2.34171038,72.5101277 6.88068806,64.458383 14,63 C6.88068806,64.4599149 2.34171038,72.5116596 1,81" id="Fill-305" fill="#E6A438"></path>
            <path d="M15.5994938,72 C15.5731199,70.1673519 15.7453254,68.2569174 16.3953621,66.1893544 C16.90267,64.5853984 17.6597534,63.4870541 18.5331918,62.6967441 C17.6628562,63.4870541 16.90267,64.5853984 16.3984649,66.1893544 C15.7468768,68.2569174 15.5746713,70.1673519 15.5994938,72 M18.8962195,62.3902656 C18.8946681,62.3902656 18.8931167,62.3902656 18.8931167,62.3902656 C19.9310035,61.6015113 21.0666286,61.1861318 22.1557116,60.8532059 C21.06818,61.1861318 19.9325549,61.6015113 18.8946681,62.3902656 M14,62.3435937 C14.7338124,62.1864652 15.4955499,62.1055673 16.2836613,62.1055673 C16.2852127,62.1055673 16.2852127,62.1055673 16.2852127,62.1055673 C15.4955499,62.1055673 14.7338124,62.1880209 14,62.3435937 M22.1557116,60.8532059 C24.9218584,59.9088788 27.7966032,59.3830426 30.6604883,58.6534059 C31.4454969,58.4573842 32.21344,58.2426936 33,58 C32.4911407,58.1571286 31.9915898,58.3018113 31.4904875,58.4371597 C31.2143382,58.5118346 30.9397403,58.5833982 30.6620397,58.6534059 C27.7981547,59.3830426 24.9234098,59.9088788 22.1557116,60.8532059" id="Fill-306" fill="#D58E30"></path>
            <path d="M51,224 L20.7568129,224 C20.4764083,221.917213 19.569767,213.878663 18.7129754,204.836473 C17.8110074,195.316061 16.9635626,184.683465 16.9635626,178.710398 C16.9635626,158.743016 25.5922333,138.892044 25.6903749,133.348433 C25.8274616,125.355502 22.0622518,113.738145 18.3889523,96.7124635 C17.5944728,93.059721 16.8950193,89.5910314 16.3700397,86.4747167 C15.9727999,84.1182101 15.6768173,81.9630605 15.513248,80.0832038 C15.513248,77.4435389 15.0412337,74.8872484 15.0022886,72.1563436 C14.9773638,70.3032296 15.1502799,68.3714605 15.8045572,66.2808082 C16.3108431,64.6589401 17.0741666,63.5483302 17.9480941,62.7491945 C18.0680449,62.6406505 18.1895535,62.5368257 18.31262,62.4392934 C19.3532324,61.6417308 20.4935442,61.2217126 21.5855641,60.8850688 C24.3646846,59.930196 27.2512935,59.3984875 30.1269978,58.6607028 C29.2530703,62.5289602 28.7748248,66.7039726 28.7748248,71.066184 C28.7748248,90.9029984 38.7229547,107.00055 51,107.002123 L51,224 M30.9588646,58.4420416 C31.462035,58.3051818 31.9636475,58.1588833 32.4746069,58 C31.9683209,58.1588833 31.4635928,58.3051818 30.9588646,58.4420416" id="Fill-307" fill="#EED1C0"></path>
            <path d="M10.5920817,98 C9.76401694,97.9968894 9.11960856,97.040394 8.33343034,96.8257658 C8.23515806,96.799326 8.13366374,96.7837733 8.0305584,96.7837733 C7.88717754,96.7464466 7.74218565,96.7184516 7.59719377,96.6997883 C7.41353738,96.6764592 7.22988099,96.6671275 7.04461359,96.6671275 C7.04461359,96.6671275 7.04461359,96.6671275 7.04300257,96.6671275 C6.40826031,96.6671275 5.75901887,96.7853286 5.10977743,96.9050849 C4.46053599,97.0248412 3.81129455,97.1445976 3.17977435,97.1445976 C2.84468199,97.1445976 2.5144227,97.1103815 2.19221851,97.0263965 C0.784186204,96.7308939 -0.109930419,95.6437551 0.0108961518,94.6685964 C0.0769480105,94.1366916 0.444260785,93.6390029 1.19499654,93.3186158 C0.0930582199,89.4988551 -0.0648218325,84.9465589 0.635972277,80.5124638 C1.99889599,71.8946732 6.60963793,63.7201365 13.8415109,62.2379574 C14.6035238,62.0824297 15.3945351,62 16.2145448,62 C17.0861071,62 17.9866678,62.0917614 18.92106,62.2846157 C18.92106,62.2846157 18.92106,62.2846157 18.922671,62.2846157 C18.922671,62.2846157 18.924282,62.2846157 18.925893,62.2846157 C18.7986224,62.3810429 18.6729627,62.4836912 18.5489141,62.5910053 C17.6419093,63.3810861 16.8557311,64.4791118 16.3289273,66.0826025 C15.6539095,68.1495658 15.4750862,70.0594461 15.5024735,71.8915626 C15.5427491,74.5915237 16.0308884,77.1188491 16.0308884,79.7286041 C16.2000456,81.5871603 16.5061396,83.71789 16.9169499,86.0476952 C17.458253,89.1286992 18.1799903,92.5580853 19,96.1694388 C18.6987391,96.153886 18.3974782,96.1118935 18.0946062,96.0574588 C17.1134945,95.8770467 16.1162725,95.5551043 15.0884412,95.5551043 L15.0852191,95.5551043 C14.6067459,95.5551043 14.1218286,95.6235365 13.6272452,95.8101698 C12.2256569,96.2969715 12.4560329,97.7573768 10.5920817,98" id="Fill-308" fill="#E9BBA1"></path>
            <path d="M51,107 C38.84734,106.998427 29,90.901573 29,71.065618 C29,66.7035955 29.4734002,62.528764 30.3384734,58.6606742 C30.614495,58.5898876 30.8874325,58.5175281 31.1619121,58.4420225 C31.6615266,58.3051685 32.1611411,58.1588764 32.6622976,58 C32.2382421,60.5703371 32.0053971,63.2775281 32.0053971,66.074382 C32.0053971,83.2047191 40.5096376,97.0851685 51,97.0851685 L51,107" id="Fill-309" fill="#E9BBA1"></path>
        </g>
    </g>
</svg>