<svg width="19" height="19" viewBox="0 0 19 19" fill="none" xmlns="http://www.w3.org/2000/svg">
<path d="M18.8907 5.59134L14.9158 0.225266C14.8107 0.0836411 14.6449 0 14.4685 0C14.292 0 14.1261 0.0836411 14.0213 0.225266L10.0463 5.59134C9.92125 5.76022 9.90197 5.98534 9.99663 6.17306C10.0911 6.36078 10.2835 6.47936 10.4937 6.47936H11.9244V9.16979C11.6442 9.02541 11.3269 8.94336 10.9905 8.94336H9.99677C8.86798 8.94336 7.94967 9.86167 7.94967 10.9905V12.1509C7.66947 12.0065 7.35201 11.9244 7.0157 11.9244H6.02201C4.89322 11.9244 3.97491 12.8429 3.97491 13.9717V15.1319C3.69456 14.9877 3.37724 14.9055 3.04094 14.9055H2.0471C0.918312 14.9055 0 15.824 0 16.9528V18.4434C0 18.7508 0.249184 19 0.556641 19H16.4558C16.7633 19 17.0125 18.7508 17.0125 18.4434V6.47936H18.4434C18.6536 6.47936 18.8459 6.36078 18.9404 6.17306C19.0351 5.98534 19.0158 5.76022 18.8907 5.59134ZM1.11328 16.9528C1.11328 16.4379 1.53221 16.0188 2.0471 16.0188H3.04079C3.55583 16.0188 3.97476 16.4379 3.97476 16.9528V17.8867H1.11328V16.9528ZM5.08804 16.9528V13.9717C5.08804 13.4566 5.50697 13.0377 6.02201 13.0377H7.0157C7.53059 13.0377 7.94952 13.4566 7.94952 13.9717V17.8867H5.08804V16.9528ZM9.06295 13.9717V10.9905C9.06295 10.4756 9.48188 10.0566 9.99677 10.0566H10.9905C11.5054 10.0566 11.9244 10.4756 11.9244 10.9905V17.8867H9.06295V13.9717ZM16.4558 5.36607C16.1484 5.36607 15.8992 5.61526 15.8992 5.92271V17.8867H13.0377V5.92271C13.0377 5.61526 12.7884 5.36607 12.4811 5.36607H11.5987L14.4685 1.49177L17.3383 5.36607H16.4558Z" fill="#3C8AFF"/>
</svg>
