<?xml version="1.0" encoding="UTF-8"?>
<svg width="250px" height="177px" viewBox="0 0 250 177" version="1.1" xmlns="http://www.w3.org/2000/svg" xmlns:xlink="http://www.w3.org/1999/xlink">
    <!-- Generator: Sketch 52.5 (67469) - http://www.bohemiancoding.com/sketch -->
    <title>house</title>
    <desc>Created with Sketch.</desc>
    <defs>
        <polyline id="path-1" points="0.002 58.455 0.002 46.986 44.897 0.424 44.907 0.434 0.007 46.983 0.007 58.448 0.002 58.455"></polyline>
        <linearGradient x1="378.572542%" y1="574.823801%" x2="378.572542%" y2="-200.623805%" id="linearGradient-3">
            <stop stop-color="#95B6AC" offset="0%"></stop>
            <stop stop-color="#5C9DB0" offset="100%"></stop>
        </linearGradient>
        <polyline id="path-4" points="115.368 1.203 0.08 1.203 0.08 1.198 115.367 1.198 115.368 1.203"></polyline>
        <linearGradient x1="62.3829019%" y1="27929.95%" x2="62.3829019%" y2="-17070.05%" id="linearGradient-6">
            <stop stop-color="#95B6AC" offset="0%"></stop>
            <stop stop-color="#5C9DB0" offset="100%"></stop>
        </linearGradient>
    </defs>
    <g id="Page-1" stroke="none" stroke-width="1" fill="none" fill-rule="evenodd">
        <g id="house">
            <path d="M54.727,106.084 L68.367,106.084 L68.367,81.294 L54.727,81.294 L54.727,106.084 Z M39.177,106.084 L52.827,106.084 L52.827,81.294 L39.177,81.294 L39.177,106.084 Z M39.177,152.593 L52.827,152.593 L52.827,127.804 L39.177,127.804 L39.177,152.593 Z M54.727,152.593 L68.367,152.593 L68.367,127.804 L54.727,127.804 L54.727,152.593 Z M53.907,21.434 L9.007,67.983 L9.007,165.794 L98.797,165.794 L98.797,67.983 L53.907,21.434 Z" id="Fill-91" fill="#FFDAD9"></path>
            <polygon id="Fill-92" fill="#FFDAD9" points="98.787 165.794 215.787 165.794 215.787 76.213 98.787 76.213"></polygon>
            <polyline id="Fill-93" fill="#304B77" points="107.08 71.507 107.08 76.203 98.794 76.203 98.794 67.986 53.897 21.424 9.002 67.986 9.002 76.203 0.715 76.203 0.715 71.507 53.897 16.353 107.08 71.507"></polyline>
            <polyline id="Fill-94" fill="#7487B7" points="224.033 71.5 224.033 76.198 107.075 76.198 107.075 71.5 53.906 16.345 170.844 16.345 205.586 52.381 209.102 56.023 224.033 71.5"></polyline>
            <polyline id="Fill-95" fill="#304B77" points="98.794 124.326 249.08 124.326 249.08 121.879 217.734 113.369 98.794 113.369 98.794 124.326"></polyline>
            <polygon id="Fill-96" fill="#C6C6CA" points="7.235 176.954 249.066 176.954 249.066 165.79 7.235 165.79"></polygon>
            <polyline id="Fill-97" fill="#7F7C8F" points="192.619 147.603 192.619 149.362 191.129 149.362 191.129 152.284 190.348 152.284 190.348 149.362 187.994 149.362 187.994 152.284 187.215 152.284 187.215 149.362 184.859 149.362 184.859 152.284 184.078 152.284 184.078 149.362 182.633 149.362 182.633 147.603 192.619 147.603"></polyline>
            <polyline id="Fill-98" fill="#7F7C8F" points="203.994 147.603 203.994 149.362 203.641 149.362 203.641 152.284 202.859 152.284 202.859 149.362 200.52 149.362 200.52 152.284 199.738 152.284 199.738 149.362 197.383 149.362 197.383 152.284 196.603 152.284 196.603 149.362 194.25 149.362 194.25 152.284 194.008 152.284 194.008 147.603 203.994 147.603"></polyline>
            <path d="M161.137,152.284 L171.127,152.284 L171.127,130.764 L161.137,130.764 L161.137,152.284 Z M149.767,152.284 L159.757,152.284 L159.757,130.764 L149.767,130.764 L149.767,152.284 Z M148.477,153.814 L172.727,153.814 L172.727,129.124 L148.477,129.124 L148.477,153.814 Z" id="Fill-99" fill="#FFFFFF"></path>
            <polygon id="Fill-100" fill="#5DB2BD" points="149.767 152.284 159.757 152.284 159.757 130.764 149.767 130.764"></polygon>
            <polygon id="Fill-101" fill="#5DB2BD" points="161.137 152.284 171.127 152.284 171.127 130.764 161.137 130.764"></polygon>
            <path d="M194.004,152.284 L203.994,152.284 L203.994,130.764 L194.004,130.764 L194.004,152.284 Z M182.635,152.284 L192.625,152.284 L192.625,130.764 L182.635,130.764 L182.635,152.284 Z M181.344,153.814 L205.594,153.814 L205.594,129.124 L181.344,129.124 L181.344,153.814 Z" id="Fill-102" fill="#FFFFFF"></path>
            <polygon id="Fill-103" fill="#5DB2BD" points="182.635 152.284 192.625 152.284 192.625 130.764 182.635 130.764"></polygon>
            <polygon id="Fill-104" fill="#5DB2BD" points="194.004 152.284 203.994 152.284 203.994 130.764 194.004 130.764"></polygon>
            <polygon id="Fill-105" fill="#DCDBD6" points="94.979 35.508 108.771 35.508 108.771 4.992 94.979 4.992"></polygon>
            <polyline id="Fill-106" fill="#845C54" points="110.084 3.325 93.65 3.325 95.906 0.438 107.842 0.438 110.084 3.325"></polyline>
            <polygon id="Fill-107" fill="#DCDBD6" points="145.253 35.508 159.045 35.508 159.045 4.992 145.253 4.992"></polygon>
            <polyline id="Fill-108" fill="#845C54" points="160.37 3.325 143.935 3.325 146.189 0.438 158.114 0.438 160.37 3.325"></polyline>
            <path d="M54.727,152.593 L68.367,152.593 L68.367,127.804 L54.727,127.804 L54.727,152.593 Z M39.177,152.593 L52.827,152.593 L52.827,127.804 L39.177,127.804 L39.177,152.593 Z M37.417,154.354 L70.567,154.354 L70.567,125.883 L37.417,125.883 L37.417,154.354 Z" id="Fill-109" fill="#FFFFFF"></path>
            <polygon id="Fill-110" fill="#86C6C7" points="54.727 152.593 68.367 152.593 68.367 127.804 54.727 127.804"></polygon>
            <polygon id="Fill-111" fill="#86C6C7" points="39.177 152.593 52.827 152.593 52.827 127.804 39.177 127.804"></polygon>
            <polygon id="Fill-112" fill="#825F54" points="70.574 154.351 82.605 154.351 82.605 125.887 70.574 125.887"></polygon>
            <polygon id="Fill-113" fill="#74564C" points="72.26 128.491 80.625 128.491 80.625 127.795 72.26 127.795"></polygon>
            <polygon id="Fill-114" fill="#74564C" points="72.26 130.344 80.625 130.344 80.625 129.648 72.26 129.648"></polygon>
            <polygon id="Fill-115" fill="#74564C" points="72.26 132.197 80.625 132.197 80.625 131.502 72.26 131.502"></polygon>
            <polygon id="Fill-116" fill="#74564C" points="72.26 134.051 80.625 134.051 80.625 133.357 72.26 133.357"></polygon>
            <polygon id="Fill-117" fill="#74564C" points="72.26 135.905 80.625 135.905 80.625 135.212 72.26 135.212"></polygon>
            <polygon id="Fill-118" fill="#74564C" points="72.26 137.759 80.625 137.759 80.625 137.063 72.26 137.063"></polygon>
            <polygon id="Fill-119" fill="#74564C" points="72.26 139.613 80.625 139.613 80.625 138.916 72.26 138.916"></polygon>
            <polygon id="Fill-120" fill="#74564C" points="72.26 141.468 80.625 141.468 80.625 140.774 72.26 140.774"></polygon>
            <polygon id="Fill-121" fill="#74564C" points="72.26 143.319 80.625 143.319 80.625 142.626 72.26 142.626"></polygon>
            <polygon id="Fill-122" fill="#74564C" points="72.26 145.175 80.625 145.175 80.625 144.479 72.26 144.479"></polygon>
            <polygon id="Fill-123" fill="#74564C" points="72.26 147.028 80.625 147.028 80.625 146.333 72.26 146.333"></polygon>
            <polygon id="Fill-124" fill="#74564C" points="72.26 148.884 80.625 148.884 80.625 148.186 72.26 148.186"></polygon>
            <polygon id="Fill-125" fill="#74564C" points="72.26 150.737 80.625 150.737 80.625 150.042 72.26 150.042"></polygon>
            <polygon id="Fill-126" fill="#74564C" points="72.26 152.591 80.625 152.591 80.625 151.897 72.26 151.897"></polygon>
            <polygon id="Fill-127" fill="#825F54" points="25.386 154.351 37.415 154.351 37.415 125.887 25.386 125.887"></polygon>
            <polygon id="Fill-128" fill="#74564C" points="27.072 128.491 35.435 128.491 35.435 127.795 27.072 127.795"></polygon>
            <polygon id="Fill-129" fill="#74564C" points="27.072 130.344 35.435 130.344 35.435 129.648 27.072 129.648"></polygon>
            <polygon id="Fill-130" fill="#74564C" points="27.072 132.197 35.435 132.197 35.435 131.502 27.072 131.502"></polygon>
            <polygon id="Fill-131" fill="#74564C" points="27.072 134.051 35.435 134.051 35.435 133.357 27.072 133.357"></polygon>
            <polygon id="Fill-132" fill="#74564C" points="27.072 135.905 35.435 135.905 35.435 135.212 27.072 135.212"></polygon>
            <polygon id="Fill-133" fill="#74564C" points="27.072 137.759 35.435 137.759 35.435 137.063 27.072 137.063"></polygon>
            <polygon id="Fill-134" fill="#74564C" points="27.072 139.613 35.435 139.613 35.435 138.916 27.072 138.916"></polygon>
            <polygon id="Fill-135" fill="#74564C" points="27.072 141.468 35.435 141.468 35.435 140.774 27.072 140.774"></polygon>
            <polygon id="Fill-136" fill="#74564C" points="27.072 143.319 35.435 143.319 35.435 142.626 27.072 142.626"></polygon>
            <polygon id="Fill-137" fill="#74564C" points="27.072 145.175 35.435 145.175 35.435 144.479 27.072 144.479"></polygon>
            <polygon id="Fill-138" fill="#74564C" points="27.072 147.028 35.435 147.028 35.435 146.333 27.072 146.333"></polygon>
            <polygon id="Fill-139" fill="#74564C" points="27.072 148.884 35.435 148.884 35.435 148.186 27.072 148.186"></polygon>
            <polygon id="Fill-140" fill="#74564C" points="27.072 150.737 35.435 150.737 35.435 150.042 27.072 150.042"></polygon>
            <polygon id="Fill-141" fill="#74564C" points="27.072 152.591 35.435 152.591 35.435 151.897 27.072 151.897"></polygon>
            <path d="M54.727,106.084 L68.367,106.084 L68.367,81.294 L54.727,81.294 L54.727,106.084 Z M39.177,106.084 L52.827,106.084 L52.827,81.294 L39.177,81.294 L39.177,106.084 Z M37.417,107.844 L70.567,107.844 L70.567,79.374 L37.417,79.374 L37.417,107.844 Z" id="Fill-142" fill="#FFFFFF"></path>
            <polygon id="Fill-143" fill="#86C6C7" points="39.177 106.084 52.827 106.084 52.827 81.294 39.177 81.294"></polygon>
            <polygon id="Fill-144" fill="#86C6C7" points="54.727 106.084 68.367 106.084 68.367 81.294 54.727 81.294"></polygon>
            <polygon id="Fill-145" fill="#825F54" points="70.574 107.842 82.605 107.842 82.605 79.378 70.574 79.378"></polygon>
            <polygon id="Fill-146" fill="#74564C" points="72.26 81.98 80.625 81.98 80.625 81.286 72.26 81.286"></polygon>
            <polygon id="Fill-147" fill="#74564C" points="72.26 83.834 80.625 83.834 80.625 83.14 72.26 83.14"></polygon>
            <polygon id="Fill-148" fill="#74564C" points="72.26 85.688 80.625 85.688 80.625 84.993 72.26 84.993"></polygon>
            <polygon id="Fill-149" fill="#74564C" points="72.26 87.541 80.625 87.541 80.625 86.847 72.26 86.847"></polygon>
            <polygon id="Fill-150" fill="#74564C" points="72.26 89.396 80.625 89.396 80.625 88.701 72.26 88.701"></polygon>
            <polygon id="Fill-151" fill="#74564C" points="72.26 91.25 80.625 91.25 80.625 90.553 72.26 90.553"></polygon>
            <polygon id="Fill-152" fill="#74564C" points="72.26 93.104 80.625 93.104 80.625 92.408 72.26 92.408"></polygon>
            <polygon id="Fill-153" fill="#74564C" points="72.26 94.957 80.625 94.957 80.625 94.263 72.26 94.263"></polygon>
            <polygon id="Fill-154" fill="#74564C" points="72.26 96.811 80.625 96.811 80.625 96.117 72.26 96.117"></polygon>
            <polygon id="Fill-155" fill="#74564C" points="72.26 98.666 80.625 98.666 80.625 97.97 72.26 97.97"></polygon>
            <polygon id="Fill-156" fill="#74564C" points="72.26 100.519 80.625 100.519 80.625 99.823 72.26 99.823"></polygon>
            <polygon id="Fill-157" fill="#74564C" points="72.26 102.372 80.625 102.372 80.625 101.679 72.26 101.679"></polygon>
            <polygon id="Fill-158" fill="#74564C" points="72.26 104.225 80.625 104.225 80.625 103.532 72.26 103.532"></polygon>
            <polygon id="Fill-159" fill="#74564C" points="72.26 106.083 80.625 106.083 80.625 105.385 72.26 105.385"></polygon>
            <polygon id="Fill-160" fill="#825F54" points="25.386 107.842 37.415 107.842 37.415 79.378 25.386 79.378"></polygon>
            <polygon id="Fill-161" fill="#74564C" points="27.072 81.98 35.435 81.98 35.435 81.286 27.072 81.286"></polygon>
            <polygon id="Fill-162" fill="#74564C" points="27.072 83.834 35.435 83.834 35.435 83.14 27.072 83.14"></polygon>
            <polygon id="Fill-163" fill="#74564C" points="27.072 85.688 35.435 85.688 35.435 84.993 27.072 84.993"></polygon>
            <polygon id="Fill-164" fill="#74564C" points="27.072 87.541 35.435 87.541 35.435 86.847 27.072 86.847"></polygon>
            <polygon id="Fill-165" fill="#74564C" points="27.072 89.396 35.435 89.396 35.435 88.701 27.072 88.701"></polygon>
            <polygon id="Fill-166" fill="#74564C" points="27.072 91.25 35.435 91.25 35.435 90.553 27.072 90.553"></polygon>
            <polygon id="Fill-167" fill="#74564C" points="27.072 93.104 35.435 93.104 35.435 92.408 27.072 92.408"></polygon>
            <polygon id="Fill-168" fill="#74564C" points="27.072 94.957 35.435 94.957 35.435 94.263 27.072 94.263"></polygon>
            <polygon id="Fill-169" fill="#74564C" points="27.072 96.811 35.435 96.811 35.435 96.117 27.072 96.117"></polygon>
            <polygon id="Fill-170" fill="#74564C" points="27.072 98.666 35.435 98.666 35.435 97.97 27.072 97.97"></polygon>
            <polygon id="Fill-171" fill="#74564C" points="27.072 100.519 35.435 100.519 35.435 99.823 27.072 99.823"></polygon>
            <polygon id="Fill-172" fill="#74564C" points="27.072 102.372 35.435 102.372 35.435 101.679 27.072 101.679"></polygon>
            <polygon id="Fill-173" fill="#74564C" points="27.072 104.225 35.435 104.225 35.435 103.532 27.072 103.532"></polygon>
            <polygon id="Fill-174" fill="#74564C" points="27.072 106.083 35.435 106.083 35.435 105.385 27.072 105.385"></polygon>
            <path d="M130.177,105.793 L140.147,105.793 L140.147,84.284 L130.177,84.284 L130.177,105.793 Z M118.797,105.793 L128.787,105.793 L128.787,84.284 L118.797,84.284 L118.797,105.793 Z M117.507,107.334 L141.767,107.334 L141.767,82.633 L117.507,82.633 L117.507,107.334 Z" id="Fill-175" fill="#FFFFFF"></path>
            <polygon id="Fill-176" fill="#86C6C7" points="118.807 105.793 128.777 105.793 128.777 84.284 118.807 84.284"></polygon>
            <polygon id="Fill-177" fill="#86C6C7" points="130.187 105.793 140.147 105.793 140.147 84.284 130.187 84.284"></polygon>
            <polygon id="Fill-178" fill="#825F54" points="141.776 107.334 152.217 107.334 152.217 82.632 141.776 82.632"></polygon>
            <polygon id="Fill-179" fill="#74564C" points="143.242 88.107 150.498 88.107 150.498 87.504 143.242 87.504"></polygon>
            <polygon id="Fill-180" fill="#74564C" points="143.242 89.716 150.498 89.716 150.498 89.113 143.242 89.113"></polygon>
            <polygon id="Fill-181" fill="#74564C" points="143.242 91.325 150.498 91.325 150.498 90.723 143.242 90.723"></polygon>
            <polygon id="Fill-182" fill="#74564C" points="143.242 92.934 150.498 92.934 150.498 92.33 143.242 92.33"></polygon>
            <polygon id="Fill-183" fill="#74564C" points="143.242 94.542 150.498 94.542 150.498 93.938 143.242 93.938"></polygon>
            <polygon id="Fill-184" fill="#74564C" points="143.242 96.152 150.498 96.152 150.498 95.549 143.242 95.549"></polygon>
            <polygon id="Fill-185" fill="#74564C" points="143.242 97.76 150.498 97.76 150.498 97.158 143.242 97.158"></polygon>
            <polygon id="Fill-186" fill="#74564C" points="143.242 99.369 150.498 99.369 150.498 98.765 143.242 98.765"></polygon>
            <polygon id="Fill-187" fill="#74564C" points="143.242 100.979 150.498 100.979 150.498 100.377 143.242 100.377"></polygon>
            <polygon id="Fill-188" fill="#74564C" points="143.242 102.587 150.498 102.587 150.498 101.985 143.242 101.985"></polygon>
            <polygon id="Fill-189" fill="#74564C" points="143.242 104.195 150.498 104.195 150.498 103.592 143.242 103.592"></polygon>
            <polygon id="Fill-190" fill="#74564C" points="143.242 105.807 150.498 105.807 150.498 105.202 143.242 105.202"></polygon>
            <polygon id="Fill-191" fill="#825F54" points="107.068 107.334 117.509 107.334 117.509 82.632 107.068 82.632"></polygon>
            <polygon id="Fill-192" fill="#74564C" points="114.047 88.107 115.792 88.107 115.792 87.504 114.047 87.504"></polygon>
            <polygon id="Fill-193" fill="#74564C" points="114.047 89.716 115.792 89.716 115.792 89.113 114.047 89.113"></polygon>
            <polygon id="Fill-194" fill="#74564C" points="114.047 91.325 115.792 91.325 115.792 90.723 114.047 90.723"></polygon>
            <polygon id="Fill-195" fill="#74564C" points="114.047 92.934 115.792 92.934 115.792 92.33 114.047 92.33"></polygon>
            <polygon id="Fill-196" fill="#74564C" points="114.047 94.542 115.792 94.542 115.792 93.938 114.047 93.938"></polygon>
            <polygon id="Fill-197" fill="#74564C" points="114.047 96.152 115.792 96.152 115.792 95.549 114.047 95.549"></polygon>
            <polygon id="Fill-198" fill="#74564C" points="114.047 97.76 115.792 97.76 115.792 97.158 114.047 97.158"></polygon>
            <polygon id="Fill-199" fill="#74564C" points="114.047 99.369 115.792 99.369 115.792 98.765 114.047 98.765"></polygon>
            <polygon id="Fill-200" fill="#74564C" points="114.047 100.979 115.792 100.979 115.792 100.377 114.047 100.377"></polygon>
            <polygon id="Fill-201" fill="#74564C" points="114.047 102.587 115.792 102.587 115.792 101.985 114.047 101.985"></polygon>
            <polygon id="Fill-202" fill="#74564C" points="114.047 104.195 115.792 104.195 115.792 103.592 114.047 103.592"></polygon>
            <polygon id="Fill-203" fill="#74564C" points="114.047 105.807 115.792 105.807 115.792 105.202 114.047 105.202"></polygon>
            <path d="M184.617,105.793 L194.588,105.793 L194.588,84.284 L184.617,84.284 L184.617,105.793 Z M173.237,105.793 L183.217,105.793 L183.217,84.284 L173.237,84.284 L173.237,105.793 Z M171.948,107.334 L196.207,107.334 L196.207,82.633 L171.948,82.633 L171.948,107.334 Z" id="Fill-204" fill="#FFFFFF"></path>
            <polygon id="Fill-205" fill="#86C6C7" points="173.247 105.793 183.207 105.793 183.207 84.284 173.247 84.284"></polygon>
            <polygon id="Fill-206" fill="#86C6C7" points="184.617 105.793 194.588 105.793 194.588 84.284 184.617 84.284"></polygon>
            <polygon id="Fill-207" fill="#825F54" points="196.217 107.334 206.656 107.334 206.656 82.632 196.217 82.632"></polygon>
            <polygon id="Fill-208" fill="#74564C" points="197.678 88.107 204.937 88.107 204.937 87.504 197.678 87.504"></polygon>
            <polygon id="Fill-209" fill="#74564C" points="197.678 89.716 204.937 89.716 204.937 89.113 197.678 89.113"></polygon>
            <polygon id="Fill-210" fill="#74564C" points="197.678 91.325 204.937 91.325 204.937 90.723 197.678 90.723"></polygon>
            <polygon id="Fill-211" fill="#74564C" points="197.678 92.934 204.937 92.934 204.937 92.33 197.678 92.33"></polygon>
            <polygon id="Fill-212" fill="#74564C" points="197.678 94.542 204.937 94.542 204.937 93.938 197.678 93.938"></polygon>
            <polygon id="Fill-213" fill="#74564C" points="197.678 96.152 204.937 96.152 204.937 95.549 197.678 95.549"></polygon>
            <polygon id="Fill-214" fill="#74564C" points="197.678 97.76 204.937 97.76 204.937 97.158 197.678 97.158"></polygon>
            <polygon id="Fill-215" fill="#74564C" points="197.678 99.369 204.937 99.369 204.937 98.765 197.678 98.765"></polygon>
            <polygon id="Fill-216" fill="#74564C" points="197.678 100.979 204.937 100.979 204.937 100.377 197.678 100.377"></polygon>
            <polygon id="Fill-217" fill="#74564C" points="197.678 102.587 204.937 102.587 204.937 101.985 197.678 101.985"></polygon>
            <polygon id="Fill-218" fill="#74564C" points="197.678 104.195 204.937 104.195 204.937 103.592 197.678 103.592"></polygon>
            <path d="M204.321,105.807 L197.678,105.807 L197.678,105.202 L204.775,105.202 C204.618,105.402 204.467,105.603 204.321,105.807" id="Fill-219" fill="#74564C"></path>
            <polygon id="Fill-220" fill="#825F54" points="161.507 107.334 171.95 107.334 171.95 82.632 161.507 82.632"></polygon>
            <polygon id="Fill-221" fill="#74564C" points="162.973 88.107 170.229 88.107 170.229 87.504 162.973 87.504"></polygon>
            <polygon id="Fill-222" fill="#74564C" points="162.973 89.716 170.229 89.716 170.229 89.113 162.973 89.113"></polygon>
            <polygon id="Fill-223" fill="#74564C" points="162.973 91.325 170.229 91.325 170.229 90.723 162.973 90.723"></polygon>
            <polygon id="Fill-224" fill="#74564C" points="162.973 92.934 170.229 92.934 170.229 92.33 162.973 92.33"></polygon>
            <polygon id="Fill-225" fill="#74564C" points="162.973 94.542 170.229 94.542 170.229 93.938 162.973 93.938"></polygon>
            <polygon id="Fill-226" fill="#74564C" points="162.973 96.152 170.229 96.152 170.229 95.549 162.973 95.549"></polygon>
            <polygon id="Fill-227" fill="#74564C" points="162.973 97.76 170.229 97.76 170.229 97.158 162.973 97.158"></polygon>
            <polygon id="Fill-228" fill="#74564C" points="162.973 99.369 170.229 99.369 170.229 98.765 162.973 98.765"></polygon>
            <polygon id="Fill-229" fill="#74564C" points="162.973 100.979 170.229 100.979 170.229 100.377 162.973 100.377"></polygon>
            <polygon id="Fill-230" fill="#74564C" points="162.973 102.587 170.229 102.587 170.229 101.985 162.973 101.985"></polygon>
            <polygon id="Fill-231" fill="#74564C" points="162.973 104.195 170.229 104.195 170.229 103.592 162.973 103.592"></polygon>
            <polygon id="Fill-232" fill="#74564C" points="162.973 105.807 170.229 105.807 170.229 105.202 162.973 105.202"></polygon>
            <polygon id="Fill-233" fill="#949699" points="100.757 169.503 135.327 169.503 135.327 165.794 100.757 165.794"></polygon>
            <polygon id="Fill-234" fill="#A1A2A6" points="100.75 173.23 135.326 173.23 135.326 169.513 100.75 169.513"></polygon>
            <polygon id="Fill-235" fill="#C6C6CA" points="100.75 176.944 135.326 176.944 135.326 173.23 100.75 173.23"></polygon>
            <polyline id="Fill-236" fill="#FFFFFF" points="128.497 129.124 128.497 165.794 126.597 165.794 126.597 130.764 109.577 130.764 109.577 165.794 107.567 165.794 107.567 129.124 128.497 129.124"></polyline>
            <polygon id="Fill-237" fill="#304B77" points="109.587 165.794 126.597 165.794 126.597 130.773 109.587 130.773"></polygon>
            <polyline id="Fill-238" fill="#A19786" points="109.577 165.794 109.577 130.764 126.597 130.764 126.597 130.773 109.587 130.773 109.587 147.593 109.586 147.593 109.577 165.794"></polyline>
            <path d="M107.567,165.794 L100.757,165.794 L100.757,165.79 L98.797,165.79 L98.797,124.326 L194.674,124.326 L192.23,129.124 L181.344,129.124 L181.344,131.442 C180.994,131.53 180.651,131.636 180.309,131.758 C179.866,131.912 179.429,132.084 178.998,132.275 L178.998,124.326 L175.477,124.326 L175.477,134.337 C174.812,134.829 174.17,135.369 173.553,135.953 L173.512,135.994 C173.275,136.237 173.009,136.516 172.727,136.83 L172.727,129.124 L148.477,129.124 L148.477,145.173 L146.134,145.173 L146.134,124.326 L142.613,124.326 L142.613,145.173 L128.497,145.173 L128.497,129.124 L107.567,129.124 L107.567,165.794 M213.957,145.173 L211.863,145.173 L211.863,128.394 L212.336,127.754 C212.334,127.755 212.332,127.755 212.331,127.756 L212.482,127.55 C212.833,132.47 213.325,138.811 213.957,145.173 M208.342,145.173 L205.594,145.173 L205.594,137.881 L205.724,137.659 L205.746,137.666 L205.802,137.56 L205.986,137.213 L206.65,136.079 L206.984,135.51 L206.983,135.509 L206.986,135.504 L206.965,135.494 L207.566,134.514 L208.098,133.655 L208.342,133.262 L208.342,145.173 M207.061,135.382 L206.984,135.51 L207.006,135.522 L207.061,135.382" id="Fill-239" fill="#F5BAB8"></path>
            <polyline id="Fill-240" fill="#6E4C48" points="194.674 124.326 110.53 124.326 110.53 124.324 194.675 124.324 194.674 124.326"></polyline>
            <polygon id="Fill-241" fill="#A6A5AD" points="98.797 165.794 100.757 165.794 100.757 165.79 98.797 165.79"></polygon>
            <path d="M159.757,146.624 L159.757,130.764 L149.767,130.764 L149.767,145.173 L148.477,145.173 L148.477,129.124 L172.727,129.124 L172.727,136.83 C172.226,137.388 171.671,138.058 171.127,138.837 L171.127,130.764 L161.137,130.764 L161.137,145.173 L159.757,145.173 L159.757,146.624" id="Fill-242" fill="#FFFFFF"></path>
            <polyline id="Fill-243" fill="#4C93A4" points="159.757 146.624 149.767 146.562 149.767 130.764 159.757 130.764 159.757 146.624"></polyline>
            <path d="M168.256,146.499 L161.137,146.499 L161.137,130.764 L171.127,130.764 L171.127,138.837 C169.944,140.532 168.811,142.745 168.381,145.449 C168.346,145.661 168.319,145.881 168.293,146.1 C168.278,146.223 168.266,146.339 168.26,146.463 C168.259,146.475 168.258,146.487 168.256,146.499" id="Fill-244" fill="#4C93A4"></path>
            <path d="M203.996,146.311 L203.994,146.311 L203.994,140.409 L205.146,138.645 L205.594,137.881 L205.594,145.173 L203.996,145.173 L203.996,146.311 M181.344,131.442 L181.344,129.124 L192.23,129.124 L191.969,129.638 L191.951,129.654 C191.857,129.788 191.779,129.938 191.703,130.066 C191.629,130.195 191.562,130.32 191.516,130.439 C191.459,130.542 191.404,130.651 191.352,130.764 L182.635,130.764 L182.635,131.149 C182.358,131.197 182.086,131.254 181.816,131.32 C181.67,131.358 181.518,131.393 181.367,131.436 C181.359,131.438 181.352,131.44 181.344,131.442" id="Fill-245" fill="#DFDFDF"></path>
            <path d="M190.914,131.857 C190.822,131.823 190.729,131.79 190.637,131.758 C190.287,131.643 189.93,131.532 189.578,131.436 C189.426,131.393 189.273,131.358 189.127,131.32 C188.762,131.232 188.396,131.16 188.033,131.102 C187.924,131.079 187.805,131.064 187.691,131.05 C187.59,131.035 187.484,131.021 187.383,131.007 C187.275,130.992 187.158,130.986 187.049,130.973 C186.771,130.941 186.502,130.92 186.225,130.912 C185.99,130.896 185.758,130.891 185.516,130.891 L185.43,130.891 C185.188,130.891 184.953,130.896 184.721,130.912 C184.445,130.92 184.166,130.941 183.896,130.973 C183.787,130.986 183.67,130.992 183.559,131.007 C183.459,131.014 183.359,131.027 183.256,131.05 C183.139,131.064 183.023,131.079 182.914,131.102 C182.82,131.117 182.727,131.132 182.635,131.149 L182.635,130.764 L191.352,130.764 C191.301,130.875 191.254,130.988 191.211,131.102 L191.182,131.142 L191.027,131.452 L191.064,131.471 C191.006,131.593 190.961,131.726 190.914,131.857" id="Fill-246" fill="#4C93A4"></path>
            <path d="M203.994,146.311 L202.676,146.311 C202.669,146.241 202.661,146.172 202.65,146.1 C202.629,145.881 202.6,145.661 202.563,145.449 C202.446,144.713 202.277,144.013 202.068,143.35 L202.139,143.24 L202.336,142.936 L202.885,142.097 L203.756,140.773 L203.994,140.409 L203.994,146.311" id="Fill-247" fill="#4C93A4"></path>
            <polyline id="Fill-248" fill="#7E7F85" points="109.577 165.794 100.757 165.794 109.577 165.794"></polyline>
            <polyline id="Fill-249" fill="#DFDFDF" points="109.577 165.794 107.567 165.794 107.567 129.124 128.497 129.124 128.497 145.173 126.597 145.173 126.597 147.603 126.597 130.764 109.577 130.764 109.577 165.794"></polyline>
            <polyline id="Fill-250" fill="#1F3860" points="126.597 147.603 109.587 147.593 109.587 130.773 126.597 130.773 126.597 147.603"></polyline>
            <polygon id="Fill-251" fill="#513D3C" points="241.205 165.796 244.729 165.796 244.729 124.326 241.205 124.326"></polygon>
            <polygon id="Fill-252" fill="#513D3C" points="208.342 165.796 211.863 165.796 211.863 124.326 208.342 124.326"></polygon>
            <polygon id="Fill-253" fill="#513D3C" points="175.477 165.796 178.998 165.796 178.998 124.326 175.477 124.326"></polygon>
            <polygon id="Fill-254" fill="#513D3C" points="142.613 165.796 146.134 165.796 146.134 124.326 142.613 124.326"></polygon>
            <polygon id="Fill-255" fill="#935E33" points="211.863 149.362 241.205 149.362 241.205 147.603 211.863 147.603"></polygon>
            <polygon id="Fill-256" fill="#935E33" points="238.859 165.796 239.643 165.796 239.643 149.362 238.859 149.362"></polygon>
            <polygon id="Fill-257" fill="#935E33" points="235.729 165.796 236.512 165.796 236.512 149.362 235.729 149.362"></polygon>
            <polygon id="Fill-258" fill="#935E33" points="232.6 165.796 233.383 165.796 233.383 149.362 232.6 149.362"></polygon>
            <polygon id="Fill-259" fill="#935E33" points="229.467 165.796 230.252 165.796 230.252 149.362 229.467 149.362"></polygon>
            <polygon id="Fill-260" fill="#935E33" points="226.336 165.796 227.121 165.796 227.121 149.362 226.336 149.362"></polygon>
            <polygon id="Fill-261" fill="#935E33" points="223.209 165.796 223.99 165.796 223.99 149.362 223.209 149.362"></polygon>
            <polygon id="Fill-262" fill="#935E33" points="220.078 165.796 220.859 165.796 220.859 149.362 220.078 149.362"></polygon>
            <polygon id="Fill-263" fill="#935E33" points="216.949 165.796 217.729 165.796 217.729 149.362 216.949 149.362"></polygon>
            <polygon id="Fill-264" fill="#935E33" points="213.818 165.796 214.598 165.796 214.598 149.362 213.818 149.362"></polygon>
            <polygon id="Fill-265" fill="#935E33" points="179.001 149.362 208.35 149.362 208.35 147.603 179.001 147.603"></polygon>
            <polygon id="Fill-266" fill="#935E33" points="205.994 165.796 206.777 165.796 206.777 149.362 205.994 149.362"></polygon>
            <polygon id="Fill-267" fill="#935E33" points="202.859 165.79 203.641 165.79 203.641 149.362 202.859 149.362"></polygon>
            <polygon id="Fill-268" fill="#935E33" points="199.738 165.79 200.52 165.79 200.52 149.362 199.738 149.362"></polygon>
            <polygon id="Fill-269" fill="#935E33" points="196.603 165.79 197.383 165.79 197.383 149.362 196.603 149.362"></polygon>
            <polygon id="Fill-270" fill="#935E33" points="193.469 165.79 194.25 165.79 194.25 149.362 193.469 149.362"></polygon>
            <polygon id="Fill-271" fill="#935E33" points="190.348 165.79 191.129 165.79 191.129 149.362 190.348 149.362"></polygon>
            <polygon id="Fill-272" fill="#935E33" points="187.215 165.79 187.994 165.79 187.994 149.362 187.215 149.362"></polygon>
            <polygon id="Fill-273" fill="#935E33" points="184.078 165.79 184.859 165.79 184.859 149.362 184.078 149.362"></polygon>
            <polygon id="Fill-274" fill="#935E33" points="180.953 165.796 181.734 165.796 181.734 149.362 180.953 149.362"></polygon>
            <polygon id="Fill-275" fill="#935E33" points="146.134 149.362 175.483 149.362 175.483 147.603 146.134 147.603"></polygon>
            <polygon id="Fill-276" fill="#935E33" points="173.13 165.796 173.915 165.796 173.915 149.362 173.13 149.362"></polygon>
            <polygon id="Fill-277" fill="#935E33" points="169.994 165.79 170.787 165.79 170.787 149.362 169.994 149.362"></polygon>
            <polygon id="Fill-278" fill="#935E33" points="166.873 165.79 167.653 165.79 167.653 149.362 166.873 149.362"></polygon>
            <polygon id="Fill-279" fill="#935E33" points="163.738 165.79 164.518 165.79 164.518 149.362 163.738 149.362"></polygon>
            <polygon id="Fill-280" fill="#935E33" points="160.603 165.79 161.398 165.79 161.398 149.362 160.603 149.362"></polygon>
            <polygon id="Fill-281" fill="#935E33" points="157.482 165.79 158.262 165.79 158.262 149.362 157.482 149.362"></polygon>
            <polygon id="Fill-282" fill="#935E33" points="154.347 165.79 155.127 165.79 155.127 149.362 154.347 149.362"></polygon>
            <polygon id="Fill-283" fill="#935E33" points="151.211 165.79 152.008 165.79 152.008 149.362 151.211 149.362"></polygon>
            <polygon id="Fill-284" fill="#935E33" points="148.088 165.796 148.87 165.796 148.87 149.362 148.088 149.362"></polygon>
            <g id="Group-287" transform="translate(9.000000, 21.000000)">
                <mask id="mask-2" fill="white">
                    <use xlink:href="#path-1"></use>
                </mask>
                <g id="Clip-286"></g>
                <polyline id="Fill-285" fill="url(#linearGradient-3)" mask="url(#mask-2)" points="0.002 58.455 0.002 46.986 44.897 0.424 44.907 0.434 0.007 46.983 0.007 58.448 0.002 58.455"></polyline>
            </g>
            <polyline id="Fill-288" fill="#F5BAB8" points="98.787 86.126 95.564 82.8 50.669 36.237 9.007 79.448 9.007 67.983 53.907 21.434 98.794 67.986 98.794 76.213 98.787 76.213 98.787 86.126"></polyline>
            <polyline id="Fill-289" fill="#9F9485" points="98.794 86.133 98.787 86.126 98.787 76.213 98.794 76.213 98.794 86.133"></polyline>
            <path d="M114.047,113.364 L98.797,113.364 L98.797,76.213 L215.787,76.213 L215.787,86.854 L206.656,86.854 L206.656,82.632 L196.217,82.632 L196.217,86.854 L196.207,86.854 L196.207,82.633 L171.95,82.633 L171.95,82.632 L161.507,82.632 L161.507,86.854 L152.217,86.854 L152.217,82.632 L141.776,82.632 L141.776,86.854 L141.767,86.854 L141.767,82.633 L117.509,82.633 L117.509,82.632 L107.068,82.632 L107.068,107.334 L114.047,107.334 L114.047,113.364 M118.797,88.561 L118.797,84.284 L128.787,84.284 L128.787,88.499 L128.777,88.499 L128.777,84.284 L118.807,84.284 L118.807,88.561 L118.797,88.561 M130.187,88.499 L130.177,88.499 L130.177,84.284 L140.147,84.284 L130.187,84.284 L130.187,88.499 M183.217,88.107 L183.207,88.107 L183.207,84.284 L173.247,84.284 L173.247,88.107 L173.237,88.107 L173.237,84.284 L183.217,84.284 L183.217,88.107" id="Fill-290" fill="#F5BAB8"></path>
            <polyline id="Fill-291" fill="#DFDFDF" points="128.787 88.499 128.787 84.284 118.797 84.284 118.797 86.854 117.509 86.854 117.509 82.633 141.767 82.633 141.767 86.854 140.147 86.854 140.147 84.284 130.177 84.284 130.177 86.854 128.787 86.854 128.787 88.499"></polyline>
            <path d="M118.807,88.561 L118.807,84.284 L128.777,84.284 L128.777,88.499 L126.482,88.513 C126.06,88.428 125.717,88.381 125.392,88.381 C125.074,88.381 124.773,88.426 124.431,88.526 L118.807,88.561" id="Fill-292" fill="#70A3AC"></path>
            <path d="M132.569,88.514 L130.187,88.499 L130.187,84.284 L140.147,84.284 L140.147,86.724 C139.287,87.294 138.277,87.625 137.117,87.625 C136.344,87.625 134.706,86.952 133.817,86.952 C133.695,86.952 133.587,86.965 133.497,86.994 C132.98,87.19 132.763,87.852 132.569,88.514" id="Fill-293" fill="#70A3AC"></path>
            <path d="M141.776,86.854 L152.217,86.854 L152.217,82.632 L141.776,82.632 L141.776,86.854 Z M143.242,86.498 L150.498,86.498 L150.498,85.896 L143.242,85.896 L143.242,86.498 Z M143.242,84.89 L150.498,84.89 L150.498,84.285 L143.242,84.285 L143.242,84.89 Z" id="Fill-294" fill="#6C4F48"></path>
            <polygon id="Fill-295" fill="#604841" points="143.242 84.89 150.498 84.89 150.498 84.285 143.242 84.285"></polygon>
            <polygon id="Fill-296" fill="#604841" points="143.242 86.498 150.498 86.498 150.498 85.896 143.242 85.896"></polygon>
            <path d="M114.047,107.334 L107.068,107.334 L107.068,82.632 L117.509,82.632 L117.509,86.854 L114.047,86.854 L114.047,87.504 L108.533,87.504 L108.533,88.107 L114.047,88.107 L114.047,89.113 L108.533,89.113 L108.533,89.716 L114.047,89.716 L114.047,90.723 L108.533,90.723 L108.533,91.325 L114.047,91.325 L114.047,92.33 L108.533,92.33 L108.533,92.934 L114.047,92.934 L114.047,93.938 L108.533,93.938 L108.533,94.542 L114.047,94.542 L114.047,95.549 L108.533,95.549 L108.533,96.152 L114.047,96.152 L114.047,97.158 L108.533,97.158 L108.533,97.76 L114.047,97.76 L114.047,98.765 L108.533,98.765 L108.533,99.369 L114.047,99.369 L114.047,100.377 L108.533,100.377 L108.533,100.979 L114.047,100.979 L114.047,101.985 L108.533,101.985 L108.533,102.587 L114.047,102.587 L114.047,103.592 L108.533,103.592 L108.533,104.195 L114.047,104.195 L114.047,105.202 L108.533,105.202 L108.533,105.807 L114.047,105.807 L114.047,107.334 Z M108.533,86.498 L115.792,86.498 L115.792,85.896 L108.533,85.896 L108.533,86.498 Z M108.533,84.89 L115.792,84.89 L115.792,84.285 L108.533,84.285 L108.533,84.89 Z" id="Fill-297" fill="#6C4F48"></path>
            <polygon id="Fill-298" fill="#604841" points="108.533 84.89 115.792 84.89 115.792 84.285 108.533 84.285"></polygon>
            <polygon id="Fill-299" fill="#604841" points="108.533 86.498 115.792 86.498 115.792 85.896 108.533 85.896"></polygon>
            <polygon id="Fill-300" fill="#604841" points="108.533 88.107 114.047 88.107 114.047 87.504 108.533 87.504"></polygon>
            <polygon id="Fill-301" fill="#604841" points="108.533 89.716 114.047 89.716 114.047 89.113 108.533 89.113"></polygon>
            <polygon id="Fill-302" fill="#604841" points="108.533 91.325 114.047 91.325 114.047 90.723 108.533 90.723"></polygon>
            <polygon id="Fill-303" fill="#604841" points="108.533 92.934 114.047 92.934 114.047 92.33 108.533 92.33"></polygon>
            <polygon id="Fill-304" fill="#604841" points="108.533 94.542 114.047 94.542 114.047 93.938 108.533 93.938"></polygon>
            <polygon id="Fill-305" fill="#604841" points="108.533 96.152 114.047 96.152 114.047 95.549 108.533 95.549"></polygon>
            <polygon id="Fill-306" fill="#604841" points="108.533 97.76 114.047 97.76 114.047 97.158 108.533 97.158"></polygon>
            <polygon id="Fill-307" fill="#604841" points="108.533 99.369 114.047 99.369 114.047 98.765 108.533 98.765"></polygon>
            <polygon id="Fill-308" fill="#604841" points="108.533 100.979 114.047 100.979 114.047 100.377 108.533 100.377"></polygon>
            <polygon id="Fill-309" fill="#604841" points="108.533 102.587 114.047 102.587 114.047 101.985 108.533 101.985"></polygon>
            <polygon id="Fill-310" fill="#604841" points="108.533 104.195 114.047 104.195 114.047 103.592 108.533 103.592"></polygon>
            <polygon id="Fill-311" fill="#604841" points="108.533 105.807 114.047 105.807 114.047 105.202 108.533 105.202"></polygon>
            <polyline id="Fill-312" fill="#DFDFDF" points="183.217 88.107 183.217 84.284 173.237 84.284 173.237 86.854 171.95 86.854 171.95 82.633 196.207 82.633 196.207 86.854 194.588 86.854 194.588 84.284 184.617 84.284 184.617 86.854 183.217 86.854 183.217 88.107"></polyline>
            <path d="M181.434,88.107 L173.247,88.107 L173.247,84.284 L183.207,84.284 L183.207,87.785 C182.555,87.809 181.951,87.901 181.434,88.107" id="Fill-313" fill="#70A3AC"></path>
            <path d="M184.617,88.107 L184.617,84.284 L194.588,84.284 L194.588,85.624 C194.428,85.774 194.277,85.894 194.117,85.994 C192.496,87.125 190.367,87.625 188.496,87.874 C188.205,87.909 187.891,87.922 187.56,87.922 C186.652,87.922 185.621,87.823 184.617,87.794 L184.617,88.107" id="Fill-314" fill="#70A3AC"></path>
            <path d="M196.217,86.854 L206.656,86.854 L206.656,82.632 L196.217,82.632 L196.217,86.854 Z M197.678,86.498 L204.937,86.498 L204.937,85.896 L197.678,85.896 L197.678,86.498 Z M197.678,84.89 L204.937,84.89 L204.937,84.285 L197.678,84.285 L197.678,84.89 Z" id="Fill-315" fill="#6C4F48"></path>
            <polygon id="Fill-316" fill="#604841" points="197.678 84.89 204.937 84.89 204.937 84.285 197.678 84.285"></polygon>
            <polygon id="Fill-317" fill="#604841" points="197.678 86.498 204.937 86.498 204.937 85.896 197.678 85.896"></polygon>
            <path d="M161.507,86.854 L171.95,86.854 L171.95,82.632 L161.507,82.632 L161.507,86.854 Z M162.973,86.498 L170.229,86.498 L170.229,85.896 L162.973,85.896 L162.973,86.498 Z M162.973,84.89 L170.229,84.89 L170.229,84.285 L162.973,84.285 L162.973,84.89 Z" id="Fill-318" fill="#6C4F48"></path>
            <polygon id="Fill-319" fill="#604841" points="162.973 84.89 170.229 84.89 170.229 84.285 162.973 84.285"></polygon>
            <polygon id="Fill-320" fill="#604841" points="162.973 86.498 170.229 86.498 170.229 85.896 162.973 85.896"></polygon>
            <polyline id="Fill-321" fill="#ABA092" points="81.515 108.933 69.482 108.933 69.482 107.844 70.567 107.844 70.567 107.842 81.515 107.842 81.515 108.933"></polyline>
            <polygon id="Fill-322" fill="#43332F" points="69.482 107.844 70.567 107.844 70.567 107.842 69.482 107.842"></polygon>
            <polyline id="Fill-323" fill="#ABA092" points="36.325 108.933 24.293 108.933 24.293 80.47 25.386 80.47 25.386 107.842 36.325 107.842 36.325 108.933"></polyline>
            <polyline id="Fill-324" fill="#ABA092" points="81.514 155.442 69.482 155.442 69.482 154.354 70.567 154.354 70.567 154.351 81.514 154.351 81.514 155.442"></polyline>
            <polygon id="Fill-325" fill="#43332F" points="69.482 154.354 70.567 154.354 70.567 154.351 69.482 154.351"></polygon>
            <polyline id="Fill-326" fill="#ABA092" points="36.324 155.442 24.293 155.442 24.293 126.98 25.386 126.98 25.386 154.351 36.324 154.351 36.324 155.442"></polyline>
            <polygon id="Fill-327" fill="#3E3031" points="142.613 132.051 146.134 132.051 146.134 124.326 142.613 124.326"></polygon>
            <polygon id="Fill-328" fill="#3E3031" points="175.477 132.051 178.998 132.051 178.998 124.326 175.477 124.326"></polygon>
            <polyline id="Fill-329" fill="#3E3031" points="211.863 132.051 209.166 132.051 210.006 130.911 211.863 128.394 211.863 132.051"></polyline>
            <polyline id="Fill-330" fill="#1F3860" points="98.794 124.326 98.794 113.369 110.53 113.369 110.53 124.324 98.797 124.324 98.797 124.326"></polyline>
            <polyline id="Fill-331" fill="#533A3A" points="110.53 124.326 98.794 124.326 98.797 124.324 110.53 124.324 110.53 124.326"></polyline>
            <polygon id="Fill-332" fill="#9697A2" points="100.75 176.944 104.074 176.944 104.074 173.23 100.75 173.23"></polygon>
            <polygon id="Fill-333" fill="#7D7C85" points="100.75 173.23 106.276 173.23 106.276 169.513 100.75 169.513"></polygon>
            <polyline id="Fill-334" fill="#9697A2" points="106.276 173.23 100.75 173.23 106.276 173.23"></polyline>
            <polyline id="Fill-335" fill="#517839" points="100.757 169.513 100.757 165.796 100.757 169.513"></polyline>
            <polygon id="Fill-336" fill="#9697A2" points="100.75 169.513 100.757 169.513 100.757 165.796 100.75 165.796"></polygon>
            <polyline id="Fill-337" fill="#9697A2" points="108.624 169.513 100.757 169.513 100.757 165.796 100.757 169.503 108.624 169.503 108.624 169.513"></polyline>
            <polygon id="Fill-338" fill="#74757D" points="100.757 169.503 108.624 169.503 108.624 165.796 100.757 165.796"></polygon>
            <polyline id="Fill-339" fill="#7D7C85" points="108.624 169.513 100.75 169.513 108.624 169.513"></polyline>
            <path d="M58.726,142.158 C57.624,142.158 56.599,142.093 55.737,141.993 C55.417,141.964 55.077,141.913 54.727,141.843 L54.727,134.535 C55.107,134.553 55.489,134.563 55.871,134.563 C58.798,134.563 61.735,134.029 63.867,132.994 C66.287,131.785 67.477,129.924 68.217,127.804 L68.367,127.804 L68.367,139.484 C66.09,141.558 62.06,142.158 58.726,142.158" id="Fill-340" fill="#9DD0CC"></path>
            <path d="M179.166,105.794 L173.247,105.794 L173.247,105.793 L179.168,105.793 C179.168,105.794 179.167,105.794 179.166,105.794" id="Fill-341" fill="#7C675A"></path>
            <path d="M179.168,105.793 L173.247,105.793 L173.247,93.253 C173.4,93.243 173.556,93.239 173.715,93.239 C174.128,93.239 174.559,93.268 174.995,93.297 C175.432,93.326 175.874,93.355 176.308,93.355 C176.895,93.355 177.469,93.302 177.997,93.124 C180.736,92.125 178.868,89.374 181.117,88.253 C181.219,88.199 181.325,88.151 181.434,88.107 L183.207,88.107 L183.207,101.455 C182.377,103.523 180.868,104.743 179.168,105.793" id="Fill-342" fill="#9DD0CC"></path>
            <path d="M183.207,88.107 L181.434,88.107 C181.951,87.901 182.555,87.809 183.207,87.785 L183.207,88.107" id="Fill-343" fill="#8CB4B6"></path>
            <path d="M184.617,97.044 L184.617,88.107 L194.588,88.107 L194.588,94.144 C192.367,95.904 189.848,96.644 186.867,96.753 C185.688,96.833 185.018,96.884 184.617,97.044" id="Fill-344" fill="#9DD0CC"></path>
            <polyline id="Fill-345" fill="#6E5D54" points="194.588 88.107 194.588 85.624 194.588 88.107"></polyline>
            <path d="M194.588,88.107 L184.617,88.107 L184.617,87.794 C185.621,87.823 186.652,87.922 187.56,87.922 C187.891,87.922 188.205,87.909 188.496,87.874 C190.367,87.625 192.496,87.125 194.117,85.994 C194.277,85.894 194.428,85.774 194.588,85.624 L194.588,88.107" id="Fill-346" fill="#8CB4B6"></path>
            <path d="M58.608,94.362 C57.339,94.362 56.025,94.267 54.727,94.234 L54.727,86.253 C55.188,86.266 55.643,86.275 56.095,86.275 C58.814,86.275 61.418,85.969 64.367,84.494 C65.847,83.744 67.187,82.844 68.367,81.824 L68.367,92.125 C66.017,93.224 63.477,93.934 60.617,94.253 C59.968,94.334 59.294,94.362 58.608,94.362" id="Fill-347" fill="#9DD0CC"></path>
            <path d="M39.177,104.285 L39.177,92.794 C39.627,92.734 40.067,92.604 40.497,92.375 C44.367,90.253 45.237,86.125 50.117,86.125 C51.057,86.125 51.957,86.154 52.827,86.184 L52.827,94.214 C51.177,94.274 49.607,94.554 48.237,95.374 C44.737,97.625 42.867,100.874 39.997,103.625 C39.727,103.875 39.447,104.094 39.177,104.285" id="Fill-348" fill="#9DD0CC"></path>
            <path d="M68.367,106.084 L54.727,106.084 L54.727,103.764 L54.867,103.753 C56.867,103.753 58.534,104.082 60.347,104.082 C61.254,104.082 62.197,104 63.237,103.753 C65.027,103.394 66.757,102.904 68.367,102.194 L68.367,106.084" id="Fill-349" fill="#9DD0CC"></path>
            <path d="M52.827,106.084 L50.107,106.084 C50.907,105.264 51.817,104.604 52.827,104.194 L52.827,106.084" id="Fill-350" fill="#9DD0CC"></path>
            <path d="M40.488,146.319 C40.058,146.319 39.62,146.268 39.177,146.173 L39.177,132.715 C39.677,132.455 40.157,132.215 40.617,131.994 C41.661,131.512 42.525,131.315 43.316,131.315 C44.986,131.315 46.331,132.194 48.367,133.125 C49.647,133.725 51.187,134.135 52.827,134.365 L52.827,141.403 C51.525,141.075 50.168,140.734 48.906,140.734 C47.938,140.734 47.027,140.934 46.237,141.493 C44.737,142.753 44.237,145.124 42.237,145.993 C41.686,146.217 41.097,146.319 40.488,146.319" id="Fill-351" fill="#9DD0CC"></path>
            <path d="M68.367,152.593 L56.377,152.593 C57.087,151.954 57.937,151.374 58.997,150.874 C61.117,149.753 63.367,150.253 65.737,149.753 C66.777,149.563 67.607,149.224 68.367,148.784 L68.367,152.593" id="Fill-352" fill="#9DD0CC"></path>
            <path d="M118.807,103.974 L118.807,91.115 C120.297,90.423 121.747,89.673 123.237,88.994 C123.713,88.778 124.092,88.625 124.431,88.526 L126.482,88.513 C126.641,88.545 126.812,88.582 126.997,88.625 C127.467,88.764 128.097,89.083 128.777,89.394 L128.777,98.423 C128.467,98.544 128.127,98.764 127.737,99.124 C126.737,99.994 126.367,100.994 124.997,101.753 C123.137,102.744 120.787,103.244 118.807,103.974" id="Fill-353" fill="#9DD0CC"></path>
            <path d="M124.431,88.526 C124.773,88.426 125.074,88.381 125.392,88.381 C125.717,88.381 126.06,88.428 126.482,88.513 L124.431,88.526" id="Fill-354" fill="#8CB4B6"></path>
            <path d="M131.952,98.715 C131.257,98.715 130.714,98.501 130.187,98.375 L130.187,89.955 C130.541,90.067 130.886,90.138 131.2,90.138 C131.444,90.138 131.67,90.095 131.867,89.994 C132.23,89.752 132.389,89.132 132.569,88.514 L140.147,88.561 L140.147,95.394 C137.867,96.914 134.907,98.264 132.737,98.625 C132.454,98.689 132.194,98.715 131.952,98.715" id="Fill-355" fill="#9DD0CC"></path>
            <polyline id="Fill-356" fill="#6E5D54" points="140.147 88.561 140.147 86.724 140.147 88.561"></polyline>
            <path d="M140.147,88.561 L132.569,88.514 C132.763,87.852 132.98,87.19 133.497,86.994 C133.587,86.965 133.695,86.952 133.817,86.952 C134.706,86.952 136.344,87.625 137.117,87.625 C138.277,87.625 139.287,87.294 140.147,86.724 L140.147,88.561" id="Fill-357" fill="#8CB4B6"></path>
            <polygon id="Fill-358" fill="#C7C6C1" points="94.367 8.957 109.451 8.957 109.451 4.992 94.367 4.992"></polygon>
            <polygon id="Fill-359" fill="#C7C6C1" points="144.607 8.957 159.691 8.957 159.691 4.992 144.607 4.992"></polygon>
            <g id="Group-362" transform="translate(107.000000, 75.000000)">
                <mask id="mask-5" fill="white">
                    <use xlink:href="#path-4"></use>
                </mask>
                <g id="Clip-361"></g>
                <polyline id="Fill-360" fill="url(#linearGradient-6)" mask="url(#mask-5)" points="115.368 1.203 0.08 1.203 0.08 1.198 115.367 1.198 115.368 1.203"></polyline>
            </g>
            <path d="M222.367,76.198 L107.08,76.198 L107.08,71.5 L224.033,71.5 L224.033,72.215 C222.902,72.846 222.185,74.098 222.305,75.472 L222.367,76.198" id="Fill-363" fill="#304B77"></path>
            <polyline id="Fill-365" fill="#304B77" points="67.483 105.856 67.205 108.994 66.851 112.956 40.316 112.956 39.706 105.856 67.483 105.856"></polyline>
            <polygon id="Fill-366" fill="#1F3860" points="39.706 108.994 67.483 108.994 67.483 105.856 39.706 105.856"></polygon>
            <path d="M66.802,105.856 L40.833,105.856 C40.708,105.099 41.455,104.483 42.274,104.402 C42.89,104.305 43.521,104.501 43.892,105.082 C43.973,104.919 44.072,104.774 44.15,104.661 C45.086,103.369 46.12,104.501 47.271,104.871 L47.286,104.725 L47.286,104.709 C47.398,103.985 47.888,103.529 48.514,103.465 C48.89,103.416 49.293,103.514 49.693,103.757 C50.145,101.993 52.883,102.301 53.446,103.918 C54.304,103.757 55.875,103.61 55.759,105.016 C55.92,103.725 57.359,103.319 58.637,103.529 C58.895,103.579 59.141,103.626 59.382,103.704 C59.789,103.869 60.139,104.096 60.37,104.372 C60.613,103.658 61.064,102.802 61.873,102.542 C62.727,102.301 62.94,102.9 63.603,102.997 C64.166,103.092 64.443,102.625 64.991,102.946 L65.223,103.108 C65.396,103.288 65.555,103.562 65.675,103.837 L65.675,103.852 C66.674,103.999 67.565,105.033 66.802,105.856" id="Fill-367" fill="#FFFFFE"></path>
            <path d="M68.099,102.511 C67.271,102.785 66.333,103.24 65.675,103.837 C65.555,103.562 65.396,103.288 65.223,103.108 L64.991,102.946 C65.846,102.639 67.141,102.511 68.099,102.511" id="Fill-368" fill="#7AB942"></path>
            <path d="M48.514,103.465 C47.888,103.529 47.398,103.985 47.286,104.709 C47.143,103.643 46.108,102.606 45.251,102.025 C46.479,102.137 47.626,102.656 48.514,103.465" id="Fill-369" fill="#7AB942"></path>
            <path d="M44.15,104.661 C44.072,104.774 43.973,104.919 43.892,105.082 C43.521,104.501 42.89,104.305 42.274,104.402 C42.097,104.079 41.789,103.789 41.501,103.593 C42.469,103.61 43.651,103.789 44.15,104.661" id="Fill-370" fill="#9FC95B"></path>
            <polyline id="Fill-371" fill="#304B77" points="67.483 152.18 67.205 155.317 66.851 159.279 40.316 159.279 39.706 152.18 67.483 152.18"></polyline>
            <polygon id="Fill-372" fill="#1F3860" points="39.706 155.317 67.483 155.317 67.483 152.18 39.706 152.18"></polygon>
            <path d="M66.802,152.18 L40.833,152.18 C40.708,151.422 41.455,150.806 42.274,150.726 C42.89,150.628 43.521,150.824 43.892,151.405 C43.973,151.242 44.072,151.098 44.15,150.984 C45.086,149.692 46.12,150.824 47.271,151.194 L47.286,151.048 L47.286,151.032 C47.398,150.308 47.888,149.853 48.514,149.788 C48.89,149.739 49.293,149.837 49.693,150.08 C50.145,148.316 52.883,148.624 53.446,150.241 C54.304,150.08 55.875,149.934 55.759,151.339 C55.92,150.048 57.359,149.642 58.637,149.853 C58.895,149.902 59.141,149.949 59.382,150.027 C59.789,150.192 60.139,150.419 60.37,150.694 C60.613,149.981 61.064,149.126 61.873,148.866 C62.727,148.624 62.94,149.224 63.603,149.319 C64.166,149.415 64.443,148.948 64.991,149.269 L65.223,149.431 C65.396,149.611 65.555,149.886 65.675,150.16 L65.675,150.175 C66.674,150.322 67.565,151.356 66.802,152.18" id="Fill-373" fill="#FFFFFE"></path>
            <path d="M68.099,148.834 C67.271,149.108 66.333,149.563 65.675,150.16 C65.555,149.886 65.396,149.611 65.223,149.431 L64.991,149.269 C65.846,148.962 67.141,148.834 68.099,148.834" id="Fill-374" fill="#7AB942"></path>
            <path d="M48.514,149.788 C47.888,149.853 47.398,150.308 47.286,151.032 C47.143,149.966 46.108,148.93 45.251,148.349 C46.479,148.46 47.626,148.979 48.514,149.788" id="Fill-375" fill="#7AB942"></path>
            <path d="M44.15,150.984 C44.072,151.098 43.973,151.242 43.892,151.405 C43.521,150.824 42.89,150.628 42.274,150.726 C42.097,150.402 41.789,150.112 41.501,149.917 C42.469,149.934 43.651,150.112 44.15,150.984" id="Fill-376" fill="#9FC95B"></path>
        </g>
    </g>
</svg>