<svg width="68" height="64" viewBox="0 0 68 64" fill="none" xmlns="http://www.w3.org/2000/svg">
<path d="M56.3422 31.0805C55.2465 31.0805 54.3979 31.9253 54.3979 33.0263V59.6042H40.6103V48.7513C40.6103 47.7332 39.7619 46.8432 38.7361 46.8432H28.7671C27.6705 46.8432 26.7873 47.7331 26.7873 48.7513V59.6042H13.0345V33.9087C13.0345 32.8829 12.1868 32.0308 11.0902 32.0308C10.0653 32.0308 9.2168 32.8829 9.2168 33.9087V61.55C9.2168 62.5758 10.0653 63.428 11.0902 63.428H28.7671C29.7921 63.428 30.6406 62.5758 30.6406 61.55V50.6971H36.7917V61.55C36.7917 62.5758 37.6402 63.428 38.7361 63.428H56.3422C57.3672 63.428 58.2156 62.5758 58.2156 61.55V33.0264C58.2156 31.9254 57.3672 31.0805 56.3422 31.0805Z" fill="#FF8A00"/>
<path d="M66.9124 32.5965L51.5695 17.1882V6.68226C51.5695 5.58863 50.6856 4.74402 49.5897 4.74402C48.564 4.74402 47.7157 5.58874 47.7157 6.68226V13.3343L35.0595 0.60342C34.6717 0.211208 34.211 0 33.7517 0C33.2214 0 32.7614 0.218704 32.373 0.60342L0.590951 32.3853C-0.171538 33.147 -0.222025 34.3688 0.590951 35.0702C1.29766 35.8848 2.51498 35.8319 3.27746 35.0702L33.7517 4.66851L64.155 35.3568C64.4717 35.6737 64.9325 35.8547 65.5337 35.8547C66.0639 35.8547 66.5231 35.6737 66.9124 35.3568C67.6197 34.6479 67.6725 33.3658 66.9124 32.5965Z" fill="#FF8A00"/>
</svg>
