<svg width="411" height="134" viewBox="0 0 411 134" fill="none" xmlns="http://www.w3.org/2000/svg">
<g filter="url(#filter0_d)">
<rect x="26" y="28" width="360" height="74" rx="20" fill="white"/>
</g>
<rect x="366" y="89" width="319" height="9.99997" rx="4.99999" transform="rotate(-180 366 89)" fill="#D5D5D5" fill-opacity="0.48"/>
<rect x="328" y="89" width="281" height="9.99998" rx="4.99999" transform="rotate(-180 328 89)" fill="url(#paint0_linear)" fill-opacity="0.9"/>
<path d="M56.842 61L54.644 57.85C55.918 57.304 56.66 56.226 56.66 54.756C56.66 52.558 55.022 51.2 52.404 51.2H48.162V61H50.43V58.27H52.404H52.516L54.406 61H56.842ZM54.364 54.756C54.364 55.82 53.664 56.464 52.278 56.464H50.43V53.048H52.278C53.664 53.048 54.364 53.678 54.364 54.756ZM65.6809 57.262C65.6809 54.84 63.9729 53.356 61.7609 53.356C59.4649 53.356 57.7429 54.98 57.7429 57.234C57.7429 59.474 59.4369 61.112 62.0409 61.112C63.3989 61.112 64.4489 60.692 65.1489 59.894L63.9869 58.634C63.4689 59.124 62.8949 59.362 62.0969 59.362C60.9489 59.362 60.1509 58.788 59.9409 57.85H65.6389C65.6529 57.668 65.6809 57.43 65.6809 57.262ZM61.7749 55.008C62.7549 55.008 63.4689 55.624 63.6229 56.576H59.9129C60.0669 55.61 60.7809 55.008 61.7749 55.008ZM72.623 50.612V54.266C72.077 53.65 71.293 53.356 70.369 53.356C68.241 53.356 66.603 54.868 66.603 57.234C66.603 59.6 68.241 61.112 70.369 61.112C71.377 61.112 72.175 60.79 72.721 60.132V61H74.807V50.612H72.623ZM70.747 59.32C69.655 59.32 68.815 58.536 68.815 57.234C68.815 55.932 69.655 55.148 70.747 55.148C71.825 55.148 72.665 55.932 72.665 57.234C72.665 58.536 71.825 59.32 70.747 59.32ZM82.2323 53.468V57.192C82.2323 58.578 81.5043 59.222 80.4963 59.222C79.5303 59.222 78.9703 58.662 78.9703 57.402V53.468H76.7863V57.724C76.7863 60.048 78.1163 61.112 80.0063 61.112C80.9303 61.112 81.7703 60.762 82.3443 60.104V61H84.4163V53.468H82.2323ZM90.0796 61.112C91.6616 61.112 92.9076 60.412 93.4536 59.208L91.7596 58.284C91.3536 59.012 90.7516 59.32 90.0656 59.32C88.9596 59.32 88.0916 58.55 88.0916 57.234C88.0916 55.918 88.9596 55.148 90.0656 55.148C90.7516 55.148 91.3536 55.47 91.7596 56.184L93.4536 55.274C92.9076 54.042 91.6616 53.356 90.0796 53.356C87.6296 53.356 85.8796 54.966 85.8796 57.234C85.8796 59.502 87.6296 61.112 90.0796 61.112ZM101.993 57.262C101.993 54.84 100.285 53.356 98.0734 53.356C95.7774 53.356 94.0554 54.98 94.0554 57.234C94.0554 59.474 95.7494 61.112 98.3534 61.112C99.7114 61.112 100.761 60.692 101.461 59.894L100.299 58.634C99.7814 59.124 99.2074 59.362 98.4094 59.362C97.2614 59.362 96.4634 58.788 96.2534 57.85H101.951C101.965 57.668 101.993 57.43 101.993 57.262ZM98.0874 55.008C99.0674 55.008 99.7814 55.624 99.9354 56.576H96.2254C96.3794 55.61 97.0934 55.008 98.0874 55.008ZM117.058 53.356C115.924 53.356 114.944 53.818 114.342 54.588C113.81 53.762 112.914 53.356 111.864 53.356C110.898 53.356 110.058 53.692 109.498 54.336V53.468H107.412V61H109.596V57.22C109.596 55.876 110.282 55.246 111.248 55.246C112.158 55.246 112.676 55.806 112.676 57.024V61H114.86V57.22C114.86 55.876 115.546 55.246 116.526 55.246C117.408 55.246 117.954 55.806 117.954 57.024V61H120.138V56.688C120.138 54.392 118.85 53.356 117.058 53.356ZM129.556 57.262C129.556 54.84 127.848 53.356 125.636 53.356C123.34 53.356 121.618 54.98 121.618 57.234C121.618 59.474 123.312 61.112 125.916 61.112C127.274 61.112 128.324 60.692 129.024 59.894L127.862 58.634C127.344 59.124 126.77 59.362 125.972 59.362C124.824 59.362 124.026 58.788 123.816 57.85H129.514C129.528 57.668 129.556 57.43 129.556 57.262ZM125.65 55.008C126.63 55.008 127.344 55.624 127.498 56.576H123.788C123.942 55.61 124.656 55.008 125.65 55.008ZM133.843 53.356C132.639 53.356 131.421 53.678 130.595 54.266L131.379 55.792C131.925 55.358 132.751 55.092 133.549 55.092C134.725 55.092 135.285 55.638 135.285 56.576H133.549C131.253 56.576 130.315 57.5 130.315 58.83C130.315 60.132 131.365 61.112 133.129 61.112C134.235 61.112 135.019 60.748 135.425 60.062V61H137.469V56.702C137.469 54.42 136.139 53.356 133.843 53.356ZM133.675 59.642C132.905 59.642 132.443 59.278 132.443 58.732C132.443 58.228 132.765 57.85 133.787 57.85H135.285V58.62C135.033 59.306 134.403 59.642 133.675 59.642ZM143.716 59.096C143.478 59.278 143.156 59.376 142.834 59.376C142.246 59.376 141.896 59.026 141.896 58.382V55.316H143.772V53.636H141.896V51.802H139.712V53.636H138.55V55.316H139.712V58.41C139.712 60.202 140.748 61.112 142.526 61.112C143.198 61.112 143.856 60.958 144.304 60.636L143.716 59.096ZM153.134 61.112C154.716 61.112 155.962 60.412 156.508 59.208L154.814 58.284C154.408 59.012 153.806 59.32 153.12 59.32C152.014 59.32 151.146 58.55 151.146 57.234C151.146 55.918 152.014 55.148 153.12 55.148C153.806 55.148 154.408 55.47 154.814 56.184L156.508 55.274C155.962 54.042 154.716 53.356 153.134 53.356C150.684 53.356 148.934 54.966 148.934 57.234C148.934 59.502 150.684 61.112 153.134 61.112ZM161.254 61.112C163.648 61.112 165.384 59.502 165.384 57.234C165.384 54.966 163.648 53.356 161.254 53.356C158.86 53.356 157.11 54.966 157.11 57.234C157.11 59.502 158.86 61.112 161.254 61.112ZM161.254 59.32C160.162 59.32 159.322 58.536 159.322 57.234C159.322 55.932 160.162 55.148 161.254 55.148C162.346 55.148 163.172 55.932 163.172 57.234C163.172 58.536 162.346 59.32 161.254 59.32ZM171.422 53.356C170.4 53.356 169.518 53.706 168.93 54.35V53.468H166.844V61H169.028V57.276C169.028 55.89 169.784 55.246 170.834 55.246C171.8 55.246 172.36 55.806 172.36 57.024V61H174.544V56.688C174.544 54.392 173.2 53.356 171.422 53.356ZM179.058 61.112C181.312 61.112 182.614 60.118 182.614 58.718C182.614 55.75 178.064 56.996 178.064 55.708C178.064 55.316 178.484 55.008 179.464 55.008C180.15 55.008 180.892 55.148 181.634 55.568L182.362 54.014C181.648 53.594 180.5 53.356 179.464 53.356C177.266 53.356 175.978 54.364 175.978 55.792C175.978 58.802 180.528 57.542 180.528 58.774C180.528 59.194 180.15 59.46 179.142 59.46C178.218 59.46 177.196 59.166 176.524 58.732L175.796 60.3C176.496 60.762 177.784 61.112 179.058 61.112ZM189.365 53.468V57.192C189.365 58.578 188.637 59.222 187.629 59.222C186.663 59.222 186.103 58.662 186.103 57.402V53.468H183.919V57.724C183.919 60.048 185.249 61.112 187.139 61.112C188.063 61.112 188.903 60.762 189.477 60.104V61H191.549V53.468H189.365ZM203.218 53.356C202.084 53.356 201.104 53.818 200.502 54.588C199.97 53.762 199.074 53.356 198.024 53.356C197.058 53.356 196.218 53.692 195.658 54.336V53.468H193.572V61H195.756V57.22C195.756 55.876 196.442 55.246 197.408 55.246C198.318 55.246 198.836 55.806 198.836 57.024V61H201.02V57.22C201.02 55.876 201.706 55.246 202.686 55.246C203.568 55.246 204.114 55.806 204.114 57.024V61H206.298V56.688C206.298 54.392 205.01 53.356 203.218 53.356ZM212.708 53.356C211.7 53.356 210.888 53.678 210.342 54.336V53.468H208.256V63.716H210.44V60.202C211 60.818 211.77 61.112 212.708 61.112C214.822 61.112 216.46 59.6 216.46 57.234C216.46 54.868 214.822 53.356 212.708 53.356ZM212.33 59.32C211.238 59.32 210.412 58.536 210.412 57.234C210.412 55.932 211.238 55.148 212.33 55.148C213.422 55.148 214.248 55.932 214.248 57.234C214.248 58.536 213.422 59.32 212.33 59.32ZM222.192 59.096C221.954 59.278 221.632 59.376 221.31 59.376C220.722 59.376 220.372 59.026 220.372 58.382V55.316H222.248V53.636H220.372V51.802H218.188V53.636H217.026V55.316H218.188V58.41C218.188 60.202 219.224 61.112 221.002 61.112C221.674 61.112 222.332 60.958 222.78 60.636L222.192 59.096ZM225.098 52.418C225.91 52.418 226.456 51.886 226.456 51.158C226.456 50.486 225.91 49.982 225.098 49.982C224.286 49.982 223.74 50.514 223.74 51.2C223.74 51.886 224.286 52.418 225.098 52.418ZM224.006 61H226.19V53.468H224.006V61ZM231.801 61.112C234.195 61.112 235.931 59.502 235.931 57.234C235.931 54.966 234.195 53.356 231.801 53.356C229.407 53.356 227.657 54.966 227.657 57.234C227.657 59.502 229.407 61.112 231.801 61.112ZM231.801 59.32C230.709 59.32 229.869 58.536 229.869 57.234C229.869 55.932 230.709 55.148 231.801 55.148C232.893 55.148 233.719 55.932 233.719 57.234C233.719 58.536 232.893 59.32 231.801 59.32ZM241.969 53.356C240.947 53.356 240.065 53.706 239.477 54.35V53.468H237.391V61H239.575V57.276C239.575 55.89 240.331 55.246 241.381 55.246C242.347 55.246 242.907 55.806 242.907 57.024V61H245.091V56.688C245.091 54.392 243.747 53.356 241.969 53.356Z" fill="#313131"/>
<path d="M285.922 55.862C286.93 55.47 287.49 54.728 287.49 53.706C287.49 52.11 286.104 51.116 284.032 51.116C281.96 51.116 280.602 52.11 280.602 53.706C280.602 54.728 281.148 55.47 282.142 55.862C280.924 56.268 280.252 57.094 280.252 58.27C280.252 60.006 281.68 61.084 284.032 61.084C286.37 61.084 287.84 60.006 287.84 58.27C287.84 57.108 287.154 56.268 285.922 55.862ZM281.61 53.734C281.61 52.642 282.548 51.97 284.032 51.97C285.502 51.97 286.468 52.642 286.468 53.748C286.468 54.812 285.558 55.498 284.032 55.498C282.506 55.498 281.61 54.812 281.61 53.734ZM284.032 60.23C282.296 60.23 281.274 59.474 281.274 58.256C281.274 57.052 282.296 56.296 284.032 56.296C285.768 56.296 286.804 57.052 286.804 58.256C286.804 59.474 285.768 60.23 284.032 60.23ZM288.956 51.2V53.93H289.95V52.096H294.99L290.958 61H292.05L296.152 51.914V51.2H288.956ZM299.579 56.45C300.881 56.45 301.791 55.4 301.791 53.79C301.791 52.18 300.881 51.13 299.579 51.13C298.263 51.13 297.367 52.194 297.367 53.79C297.367 55.386 298.263 56.45 299.579 56.45ZM298.823 61H299.649L306.341 51.2H305.515L298.823 61ZM299.579 55.82C298.655 55.82 298.067 55.05 298.067 53.79C298.067 52.53 298.655 51.76 299.579 51.76C300.489 51.76 301.091 52.516 301.091 53.79C301.091 55.064 300.489 55.82 299.579 55.82ZM305.585 61.07C306.901 61.07 307.797 60.006 307.797 58.41C307.797 56.814 306.901 55.75 305.585 55.75C304.283 55.75 303.373 56.814 303.373 58.41C303.373 60.006 304.283 61.07 305.585 61.07ZM305.585 60.44C304.675 60.44 304.073 59.684 304.073 58.41C304.073 57.136 304.675 56.38 305.585 56.38C306.509 56.38 307.097 57.15 307.097 58.41C307.097 59.67 306.509 60.44 305.585 60.44ZM315.411 61.07C317.329 61.07 318.449 60.244 318.449 58.97C318.449 56.142 313.675 57.64 313.675 55.652C313.675 54.952 314.263 54.434 315.593 54.434C316.349 54.434 317.119 54.616 317.763 55.064L318.197 54.266C317.581 53.846 316.545 53.58 315.593 53.58C313.717 53.58 312.681 54.476 312.681 55.68C312.681 58.592 317.455 57.08 317.455 58.998C317.455 59.726 316.881 60.202 315.481 60.202C314.445 60.202 313.451 59.838 312.863 59.376L312.415 60.16C313.017 60.678 314.193 61.07 315.411 61.07ZM325.928 53.636V57.5C325.928 59.18 324.962 60.174 323.422 60.174C322.022 60.174 321.21 59.376 321.21 57.808V53.636H320.216V57.906C320.216 60.02 321.448 61.07 323.324 61.07C324.5 61.07 325.452 60.552 325.97 59.656V61H326.922V53.636H325.928ZM332.758 61.07C334.004 61.07 335.054 60.566 335.642 59.614L334.9 59.11C334.396 59.852 333.612 60.188 332.758 60.188C331.148 60.188 329.972 59.054 329.972 57.318C329.972 55.596 331.148 54.448 332.758 54.448C333.612 54.448 334.396 54.798 334.9 55.54L335.642 55.036C335.054 54.07 334.004 53.58 332.758 53.58C330.56 53.58 328.964 55.12 328.964 57.318C328.964 59.516 330.56 61.07 332.758 61.07ZM340.524 61.07C341.77 61.07 342.82 60.566 343.408 59.614L342.666 59.11C342.162 59.852 341.378 60.188 340.524 60.188C338.914 60.188 337.738 59.054 337.738 57.318C337.738 55.596 338.914 54.448 340.524 54.448C341.378 54.448 342.162 54.798 342.666 55.54L343.408 55.036C342.82 54.07 341.77 53.58 340.524 53.58C338.326 53.58 336.73 55.12 336.73 57.318C336.73 59.516 338.326 61.07 340.524 61.07ZM351.664 57.318C351.664 55.106 350.166 53.58 348.094 53.58C346.022 53.58 344.496 55.134 344.496 57.318C344.496 59.502 346.064 61.07 348.36 61.07C349.522 61.07 350.544 60.65 351.202 59.866L350.642 59.222C350.082 59.866 349.284 60.188 348.388 60.188C346.778 60.188 345.602 59.166 345.49 57.626H351.65C351.65 57.514 351.664 57.402 351.664 57.318ZM348.094 54.434C349.536 54.434 350.586 55.442 350.712 56.884H345.49C345.616 55.442 346.666 54.434 348.094 54.434ZM355.661 61.07C357.579 61.07 358.699 60.244 358.699 58.97C358.699 56.142 353.925 57.64 353.925 55.652C353.925 54.952 354.513 54.434 355.843 54.434C356.599 54.434 357.369 54.616 358.013 55.064L358.447 54.266C357.831 53.846 356.795 53.58 355.843 53.58C353.967 53.58 352.931 54.476 352.931 55.68C352.931 58.592 357.705 57.08 357.705 58.998C357.705 59.726 357.131 60.202 355.731 60.202C354.695 60.202 353.701 59.838 353.113 59.376L352.665 60.16C353.267 60.678 354.443 61.07 355.661 61.07ZM362.51 61.07C364.428 61.07 365.548 60.244 365.548 58.97C365.548 56.142 360.774 57.64 360.774 55.652C360.774 54.952 361.362 54.434 362.692 54.434C363.448 54.434 364.218 54.616 364.862 55.064L365.296 54.266C364.68 53.846 363.644 53.58 362.692 53.58C360.816 53.58 359.78 54.476 359.78 55.68C359.78 58.592 364.554 57.08 364.554 58.998C364.554 59.726 363.98 60.202 362.58 60.202C361.544 60.202 360.55 59.838 359.962 59.376L359.514 60.16C360.116 60.678 361.292 61.07 362.51 61.07Z" fill="black"/>
<defs>
<filter id="filter0_d" x="-4" y="0" width="420" height="134" filterUnits="userSpaceOnUse" color-interpolation-filters="sRGB">
<feFlood flood-opacity="0" result="BackgroundImageFix"/>
<feColorMatrix in="SourceAlpha" type="matrix" values="0 0 0 0 0 0 0 0 0 0 0 0 0 0 0 0 0 0 127 0"/>
<feOffset dy="2"/>
<feGaussianBlur stdDeviation="15"/>
<feColorMatrix type="matrix" values="0 0 0 0 0 0 0 0 0 0 0 0 0 0 0 0 0 0 0.08 0"/>
<feBlend mode="normal" in2="BackgroundImageFix" result="effect1_dropShadow"/>
<feBlend mode="normal" in="SourceGraphic" in2="effect1_dropShadow" result="shape"/>
</filter>
<linearGradient id="paint0_linear" x1="609" y1="94" x2="590.012" y2="23.465" gradientUnits="userSpaceOnUse">
<stop stop-color="#3C8AFF"/>
<stop offset="1" stop-color="#21D2C8"/>
</linearGradient>
</defs>
</svg>
