<svg width="411" height="134" viewBox="0 0 411 134" fill="none" xmlns="http://www.w3.org/2000/svg">
<g filter="url(#filter0_d)">
<rect x="26" y="28" width="360" height="74" rx="20" fill="white"/>
</g>
<rect x="366" y="89" width="319" height="9.99997" rx="4.99999" transform="rotate(-180 366 89)" fill="#D5D5D5" fill-opacity="0.48"/>
<rect x="328" y="89" width="281" height="9.99998" rx="4.99999" transform="rotate(-180 328 89)" fill="url(#paint0_linear)" fill-opacity="0.9"/>
<path d="M50.416 59.18V56.912H54.966V55.148H50.416V53.02H55.568V51.2H48.162V61H55.75V59.18H50.416ZM60.3839 53.356C59.1799 53.356 57.9619 53.678 57.1359 54.266L57.9199 55.792C58.4659 55.358 59.2919 55.092 60.0899 55.092C61.2659 55.092 61.8259 55.638 61.8259 56.576H60.0899C57.7939 56.576 56.8559 57.5 56.8559 58.83C56.8559 60.132 57.9059 61.112 59.6699 61.112C60.7759 61.112 61.5599 60.748 61.9659 60.062V61H64.0099V56.702C64.0099 54.42 62.6799 53.356 60.3839 53.356ZM60.2159 59.642C59.4459 59.642 58.9839 59.278 58.9839 58.732C58.9839 58.228 59.3059 57.85 60.3279 57.85H61.8259V58.62C61.5739 59.306 60.9439 59.642 60.2159 59.642ZM70.2565 59.096C70.0185 59.278 69.6965 59.376 69.3745 59.376C68.7865 59.376 68.4365 59.026 68.4365 58.382V55.316H70.3125V53.636H68.4365V51.802H66.2525V53.636H65.0905V55.316H66.2525V58.41C66.2525 60.202 67.2885 61.112 69.0665 61.112C69.7385 61.112 70.3965 60.958 70.8445 60.636L70.2565 59.096ZM76.0353 61H78.2193V50.612H76.0353V61ZM87.6243 57.262C87.6243 54.84 85.9163 53.356 83.7043 53.356C81.4083 53.356 79.6863 54.98 79.6863 57.234C79.6863 59.474 81.3803 61.112 83.9843 61.112C85.3423 61.112 86.3923 60.692 87.0923 59.894L85.9303 58.634C85.4123 59.124 84.8383 59.362 84.0403 59.362C82.8923 59.362 82.0943 58.788 81.8843 57.85H87.5823C87.5963 57.668 87.6243 57.43 87.6243 57.262ZM83.7183 55.008C84.6983 55.008 85.4123 55.624 85.5663 56.576H81.8563C82.0103 55.61 82.7243 55.008 83.7183 55.008ZM91.6123 61.112C93.8663 61.112 95.1683 60.118 95.1683 58.718C95.1683 55.75 90.6183 56.996 90.6183 55.708C90.6183 55.316 91.0383 55.008 92.0183 55.008C92.7043 55.008 93.4463 55.148 94.1883 55.568L94.9163 54.014C94.2023 53.594 93.0543 53.356 92.0183 53.356C89.8203 53.356 88.5323 54.364 88.5323 55.792C88.5323 58.802 93.0823 57.542 93.0823 58.774C93.0823 59.194 92.7043 59.46 91.6963 59.46C90.7723 59.46 89.7503 59.166 89.0783 58.732L88.3503 60.3C89.0503 60.762 90.3383 61.112 91.6123 61.112ZM99.0498 61.112C101.304 61.112 102.606 60.118 102.606 58.718C102.606 55.75 98.0558 56.996 98.0558 55.708C98.0558 55.316 98.4758 55.008 99.4558 55.008C100.142 55.008 100.884 55.148 101.626 55.568L102.354 54.014C101.64 53.594 100.492 53.356 99.4558 53.356C97.2578 53.356 95.9698 54.364 95.9698 55.792C95.9698 58.802 100.52 57.542 100.52 58.774C100.52 59.194 100.142 59.46 99.1338 59.46C98.2098 59.46 97.1878 59.166 96.5158 58.732L95.7878 60.3C96.4878 60.762 97.7758 61.112 99.0498 61.112ZM117.564 53.356C116.43 53.356 115.45 53.818 114.848 54.588C114.316 53.762 113.42 53.356 112.37 53.356C111.404 53.356 110.564 53.692 110.004 54.336V53.468H107.918V61H110.102V57.22C110.102 55.876 110.788 55.246 111.754 55.246C112.664 55.246 113.182 55.806 113.182 57.024V61H115.366V57.22C115.366 55.876 116.052 55.246 117.032 55.246C117.914 55.246 118.46 55.806 118.46 57.024V61H120.644V56.688C120.644 54.392 119.356 53.356 117.564 53.356ZM130.062 57.262C130.062 54.84 128.354 53.356 126.142 53.356C123.846 53.356 122.124 54.98 122.124 57.234C122.124 59.474 123.818 61.112 126.422 61.112C127.78 61.112 128.83 60.692 129.53 59.894L128.368 58.634C127.85 59.124 127.276 59.362 126.478 59.362C125.33 59.362 124.532 58.788 124.322 57.85H130.02C130.034 57.668 130.062 57.43 130.062 57.262ZM126.156 55.008C127.136 55.008 127.85 55.624 128.004 56.576H124.294C124.448 55.61 125.162 55.008 126.156 55.008ZM134.349 53.356C133.145 53.356 131.927 53.678 131.101 54.266L131.885 55.792C132.431 55.358 133.257 55.092 134.055 55.092C135.231 55.092 135.791 55.638 135.791 56.576H134.055C131.759 56.576 130.821 57.5 130.821 58.83C130.821 60.132 131.871 61.112 133.635 61.112C134.741 61.112 135.525 60.748 135.931 60.062V61H137.975V56.702C137.975 54.42 136.645 53.356 134.349 53.356ZM134.181 59.642C133.411 59.642 132.949 59.278 132.949 58.732C132.949 58.228 133.271 57.85 134.293 57.85H135.791V58.62C135.539 59.306 134.909 59.642 134.181 59.642ZM144.221 59.096C143.983 59.278 143.661 59.376 143.339 59.376C142.751 59.376 142.401 59.026 142.401 58.382V55.316H144.277V53.636H142.401V51.802H140.217V53.636H139.055V55.316H140.217V58.41C140.217 60.202 141.253 61.112 143.031 61.112C143.703 61.112 144.361 60.958 144.809 60.636L144.221 59.096Z" fill="#313131"/>
<path d="M285.922 55.862C286.93 55.47 287.49 54.728 287.49 53.706C287.49 52.11 286.104 51.116 284.032 51.116C281.96 51.116 280.602 52.11 280.602 53.706C280.602 54.728 281.148 55.47 282.142 55.862C280.924 56.268 280.252 57.094 280.252 58.27C280.252 60.006 281.68 61.084 284.032 61.084C286.37 61.084 287.84 60.006 287.84 58.27C287.84 57.108 287.154 56.268 285.922 55.862ZM281.61 53.734C281.61 52.642 282.548 51.97 284.032 51.97C285.502 51.97 286.468 52.642 286.468 53.748C286.468 54.812 285.558 55.498 284.032 55.498C282.506 55.498 281.61 54.812 281.61 53.734ZM284.032 60.23C282.296 60.23 281.274 59.474 281.274 58.256C281.274 57.052 282.296 56.296 284.032 56.296C285.768 56.296 286.804 57.052 286.804 58.256C286.804 59.474 285.768 60.23 284.032 60.23ZM288.956 51.2V53.93H289.95V52.096H294.99L290.958 61H292.05L296.152 51.914V51.2H288.956ZM299.579 56.45C300.881 56.45 301.791 55.4 301.791 53.79C301.791 52.18 300.881 51.13 299.579 51.13C298.263 51.13 297.367 52.194 297.367 53.79C297.367 55.386 298.263 56.45 299.579 56.45ZM298.823 61H299.649L306.341 51.2H305.515L298.823 61ZM299.579 55.82C298.655 55.82 298.067 55.05 298.067 53.79C298.067 52.53 298.655 51.76 299.579 51.76C300.489 51.76 301.091 52.516 301.091 53.79C301.091 55.064 300.489 55.82 299.579 55.82ZM305.585 61.07C306.901 61.07 307.797 60.006 307.797 58.41C307.797 56.814 306.901 55.75 305.585 55.75C304.283 55.75 303.373 56.814 303.373 58.41C303.373 60.006 304.283 61.07 305.585 61.07ZM305.585 60.44C304.675 60.44 304.073 59.684 304.073 58.41C304.073 57.136 304.675 56.38 305.585 56.38C306.509 56.38 307.097 57.15 307.097 58.41C307.097 59.67 306.509 60.44 305.585 60.44ZM315.411 61.07C317.329 61.07 318.449 60.244 318.449 58.97C318.449 56.142 313.675 57.64 313.675 55.652C313.675 54.952 314.263 54.434 315.593 54.434C316.349 54.434 317.119 54.616 317.763 55.064L318.197 54.266C317.581 53.846 316.545 53.58 315.593 53.58C313.717 53.58 312.681 54.476 312.681 55.68C312.681 58.592 317.455 57.08 317.455 58.998C317.455 59.726 316.881 60.202 315.481 60.202C314.445 60.202 313.451 59.838 312.863 59.376L312.415 60.16C313.017 60.678 314.193 61.07 315.411 61.07ZM325.928 53.636V57.5C325.928 59.18 324.962 60.174 323.422 60.174C322.022 60.174 321.21 59.376 321.21 57.808V53.636H320.216V57.906C320.216 60.02 321.448 61.07 323.324 61.07C324.5 61.07 325.452 60.552 325.97 59.656V61H326.922V53.636H325.928ZM332.758 61.07C334.004 61.07 335.054 60.566 335.642 59.614L334.9 59.11C334.396 59.852 333.612 60.188 332.758 60.188C331.148 60.188 329.972 59.054 329.972 57.318C329.972 55.596 331.148 54.448 332.758 54.448C333.612 54.448 334.396 54.798 334.9 55.54L335.642 55.036C335.054 54.07 334.004 53.58 332.758 53.58C330.56 53.58 328.964 55.12 328.964 57.318C328.964 59.516 330.56 61.07 332.758 61.07ZM340.524 61.07C341.77 61.07 342.82 60.566 343.408 59.614L342.666 59.11C342.162 59.852 341.378 60.188 340.524 60.188C338.914 60.188 337.738 59.054 337.738 57.318C337.738 55.596 338.914 54.448 340.524 54.448C341.378 54.448 342.162 54.798 342.666 55.54L343.408 55.036C342.82 54.07 341.77 53.58 340.524 53.58C338.326 53.58 336.73 55.12 336.73 57.318C336.73 59.516 338.326 61.07 340.524 61.07ZM351.664 57.318C351.664 55.106 350.166 53.58 348.094 53.58C346.022 53.58 344.496 55.134 344.496 57.318C344.496 59.502 346.064 61.07 348.36 61.07C349.522 61.07 350.544 60.65 351.202 59.866L350.642 59.222C350.082 59.866 349.284 60.188 348.388 60.188C346.778 60.188 345.602 59.166 345.49 57.626H351.65C351.65 57.514 351.664 57.402 351.664 57.318ZM348.094 54.434C349.536 54.434 350.586 55.442 350.712 56.884H345.49C345.616 55.442 346.666 54.434 348.094 54.434ZM355.661 61.07C357.579 61.07 358.699 60.244 358.699 58.97C358.699 56.142 353.925 57.64 353.925 55.652C353.925 54.952 354.513 54.434 355.843 54.434C356.599 54.434 357.369 54.616 358.013 55.064L358.447 54.266C357.831 53.846 356.795 53.58 355.843 53.58C353.967 53.58 352.931 54.476 352.931 55.68C352.931 58.592 357.705 57.08 357.705 58.998C357.705 59.726 357.131 60.202 355.731 60.202C354.695 60.202 353.701 59.838 353.113 59.376L352.665 60.16C353.267 60.678 354.443 61.07 355.661 61.07ZM362.51 61.07C364.428 61.07 365.548 60.244 365.548 58.97C365.548 56.142 360.774 57.64 360.774 55.652C360.774 54.952 361.362 54.434 362.692 54.434C363.448 54.434 364.218 54.616 364.862 55.064L365.296 54.266C364.68 53.846 363.644 53.58 362.692 53.58C360.816 53.58 359.78 54.476 359.78 55.68C359.78 58.592 364.554 57.08 364.554 58.998C364.554 59.726 363.98 60.202 362.58 60.202C361.544 60.202 360.55 59.838 359.962 59.376L359.514 60.16C360.116 60.678 361.292 61.07 362.51 61.07Z" fill="black"/>
<defs>
<filter id="filter0_d" x="-4" y="0" width="420" height="134" filterUnits="userSpaceOnUse" color-interpolation-filters="sRGB">
<feFlood flood-opacity="0" result="BackgroundImageFix"/>
<feColorMatrix in="SourceAlpha" type="matrix" values="0 0 0 0 0 0 0 0 0 0 0 0 0 0 0 0 0 0 127 0"/>
<feOffset dy="2"/>
<feGaussianBlur stdDeviation="15"/>
<feColorMatrix type="matrix" values="0 0 0 0 0 0 0 0 0 0 0 0 0 0 0 0 0 0 0.08 0"/>
<feBlend mode="normal" in2="BackgroundImageFix" result="effect1_dropShadow"/>
<feBlend mode="normal" in="SourceGraphic" in2="effect1_dropShadow" result="shape"/>
</filter>
<linearGradient id="paint0_linear" x1="609" y1="94" x2="590.012" y2="23.465" gradientUnits="userSpaceOnUse">
<stop stop-color="#3C8AFF"/>
<stop offset="1" stop-color="#21D2C8"/>
</linearGradient>
</defs>
</svg>
