<svg width="18" height="18" viewBox="0 0 18 18" fill="none" xmlns="http://www.w3.org/2000/svg">
<path d="M17.4706 0H12.1764C6.03175 0 1.05878 4.97242 1.05878 11.1176V16.1925L0.155011 17.0963C-0.0516702 17.3029 -0.0516702 17.6383 0.155011 17.845C0.361829 18.0517 0.69705 18.0517 0.90373 17.845L1.80749 16.9412H6.88236C13.027 16.9412 18 11.9688 18 5.82359V0.529405C18 0.23703 17.763 0 17.4706 0V0ZM16.9412 5.82359C16.9412 11.37 12.4288 15.8824 6.88236 15.8824H2.8663L4.98392 13.7648H10.0588C10.3512 13.7648 10.5882 13.5278 10.5882 13.2354C10.5882 12.9429 10.3512 12.7058 10.0588 12.7058H6.04273L8.16035 10.5882H12.1764C12.4688 10.5882 12.7058 10.3512 12.7058 10.0588C12.7058 9.76645 12.4688 9.52942 12.1764 9.52942H9.2193L11.3369 7.4118H14.2679C14.5603 7.4118 14.7973 7.17477 14.7973 6.8824C14.7973 6.59002 14.5603 6.35299 14.2679 6.35299H12.3957L14.6684 4.08033C14.8752 3.87351 14.8752 3.53829 14.6684 3.33161C14.4617 3.12479 14.1265 3.12493 13.9197 3.33161L11.647 5.60427V3.7322C11.647 3.43983 11.41 3.2028 11.1176 3.2028C10.8252 3.2028 10.5882 3.43983 10.5882 3.7322V6.66308L8.47058 8.78084V5.80532C8.47058 5.51295 8.23355 5.27592 7.94104 5.27592C7.64866 5.27592 7.41163 5.51295 7.41163 5.80532V9.83965L5.29401 11.9573V7.94121C5.29401 7.64883 5.05698 7.4118 4.76461 7.4118C4.47223 7.4118 4.2352 7.64883 4.2352 7.94121V13.0161L2.11758 15.1337V11.1176C2.11758 5.57118 6.62995 1.05881 12.1764 1.05881H16.9411V5.82359H16.9412Z" fill="#00B960"/>
</svg>
