<?xml version="1.0" encoding="UTF-8"?>
<svg width="524px" height="283px" viewBox="0 0 524 283" version="1.1" xmlns="http://www.w3.org/2000/svg" xmlns:xlink="http://www.w3.org/1999/xlink">
    <!-- Generator: Sketch 52.5 (67469) - http://www.bohemiancoding.com/sketch -->
    <title>transport</title>
    <desc>Created with Sketch.</desc>
    <defs>
        <polygon id="path-1" points="33.1157563 24.5918367 18.7104803 24.5918367 0.331469534 0.454931973 14.8888315 0.454931973"></polygon>
    </defs>
    <g id="Page-1" stroke="none" stroke-width="1" fill="none" fill-rule="evenodd">
        <g id="transport">
            <g id="caravana">
                <path d="M12.0093187,161 L18,161 L18,119 L10.1166272,119 C5.55825299,119 1.77286994,122.701837 1.43752819,127.480137 L0.0336398835,147.430585 C-0.483582126,154.756514 5.02966347,161 12.0093187,161" id="Fill-192" fill="#C44645"></path>
                <path d="M390.876818,3.81906408e-05 C406.159128,3.81906408e-05 420.473137,7.44314965 429.278057,19.9507083 L429.332185,20.0229715 L493.264083,111.351635 L503.975533,126.635306 C505.388891,128.658676 506.363206,130.977121 506.814278,133.361807 C507.036806,134.487909 507.145063,135.607989 507.145063,136.728069 L507.145063,175.852579 C507.145063,185.571982 499.278373,193.460717 489.565295,193.460717 L57.0657047,193.460717 C36.6892917,193.460717 19.0313375,181.760097 10.5211178,164.675868 C9.81143164,163.260713 9.17993124,161.803405 8.57850228,160.309965 C6.2690151,154.438579 5,148.055328 5,141.328827 L12.4817762,25.9485554 C13.3237767,2.81228176 18.0149226,-0.012005679 38.4033642,3.81906408e-05 L390.876818,3.81906408e-05 L629,283" id="Fill-193" fill="#FFE300"></path>
                <path d="M66.6984302,159 L391,159 C387.054769,164.941508 384.730866,172.118256 384.730866,179.857039 L384.730866,193 L59.0962048,193 C36.7218825,193 17.6382549,178.924432 10,159 L66.6984302,159" id="Fill-194" fill="#614F49"></path>
                <path d="M249,175.319334 C249,178.459914 251.523943,181 254.644562,181 L322.355438,181 C325.476057,181 328,178.459914 328,175.319334 L328,18.6806663 C328,15.5460914 325.476057,13 322.355438,13 L254.644562,13 C251.523943,13 249,15.5460914 249,18.6806663 L249,175.319334" id="Fill-195" fill="#FFFFFF"></path>
                <path d="M323,21.2865519 L323,78.7134481 C323,80.5292226 321.526905,82 319.72176,82 L257.27824,82 C255.467057,82 254,80.5292226 254,78.7134481 L254,21.2865519 C254,19.47683 255.467057,18 257.27824,18 L319.72176,18 C321.526905,18 323,19.47683 323,21.2865519" id="Fill-196" fill="#ABEDE3"></path>
                <path d="M338,175.319334 C338,178.459914 340.529718,181 343.650102,181 L356.650706,181 C362.390303,181 367.115626,176.808557 368.24326,171.15191 C372.139264,151.491761 387.478665,135.99303 406.976588,131.97573 C412.895174,130.762734 417,125.274225 417,119.191229 L417,20.4160918 C417,16.3207277 413.700627,13 409.625633,13 L345.368401,13 C341.299373,13 338,16.3207277 338,20.4160918 L338,175.319334" id="Fill-197" fill="#FFFFFF"></path>
                <path d="M348.014983,19 L408.979007,19 C411.196864,19 413,20.8024908 413,23.0269695 L413,86.9701817 C413,89.3935975 410.87831,91.2744575 408.474129,90.9670092 L347.510105,83.1903764 C345.502613,82.9371837 344,81.2251189 344,79.1935489 L344,23.0269695 C344,20.8024908 345.791115,19 348.014983,19" id="Fill-198" fill="#ABEDE3"></path>
                <path d="M426.336059,23.7653528 L476.663066,94.1795632 C477.57622,95.450384 476.510873,97.1865757 474.934159,96.9837217 L424.607153,90.7191123 C423.68791,90.5997864 423,89.8361006 423,88.9351901 L423,24.7975218 C423,23.0434312 425.307238,22.3334421 426.336059,23.7653528" id="Fill-199" fill="#ABEDE3"></path>
                <polyline id="Fill-200" fill="#ABEDE3" points="427 30 427 90.1194196 454.069286 93.6551339 472 96 427 30"></polyline>
                <path d="M444.843854,107 L445.896572,106.747415 C446.936607,106.207001 447.304424,104.99107 446.727332,104.033597 L434.031297,83.0220653 C433.454204,82.0587185 432.135136,81.7180227 431.101443,82.2525627 C430.061408,82.7929767 429.693591,84.0030342 430.277025,84.9663809 L442.97306,105.977913 C443.359902,106.629934 444.095536,107 444.843854,107" id="Fill-201" fill="#614F49"></path>
                <path d="M432.019771,66 C435.493844,66.8839872 437.63708,74.7750463 436.830026,84.1629904 C436.022972,93.5450413 432.564933,100.852669 429,101 L432.019771,66" id="Fill-202" fill="#FFFFFF"></path>
                <path d="M455.379644,179.713427 C455.379644,184.378758 454.559946,188.851703 453.041988,193 L491.252033,193 C501.051971,193 509,185.124248 509,175.420842 L509,136.360721 C509,135.242485 508.890707,134.124248 508.666049,133 L503.353195,133 C500.566224,133 497.73675,133.222445 494.98621,133.637275 C484.694453,135.134269 474.937018,139.420842 466.873624,146.022044 L450,159.903808 C453.424514,165.723447 455.379644,172.511022 455.379644,179.713427" id="Fill-203" fill="#614F49"></path>
                <path d="M496,113.4124 L496,142.325465 C496,147.114595 499.55825,151 503.944132,151 L506.297531,151 C507.783889,151 509,149.678225 509,148.042912 L509,134.862046 C509,133.718557 508.893027,132.575067 508.679082,131.42543 C508.262451,128.990905 507.355998,126.624005 506.032915,124.558347 L498.342139,112.600891 C497.615851,111.475845 496,112.035294 496,113.4124" id="Fill-204" fill="#F9B659"></path>
                <polygon id="Fill-205" fill="#1D1715" points="494 158.956 507 158.956 507 156.044 494 156.044"></polygon>
                <polygon id="Fill-206" fill="#1D1715" points="494 164.9735 507 164.9735 507 162.0265 494 162.0265"></polygon>
                <polygon id="Fill-207" fill="#1D1715" points="494 169.956 507 169.956 507 167.044 494 167.044"></polygon>
                <polygon id="Fill-208" fill="#1D1715" points="494 174.956 507 174.956 507 172.044 494 172.044"></polygon>
                <path d="M391.211205,159.771988 C397.63064,150.253264 408.416956,144 420.637085,144 L421.356966,144 C433.583044,144 444.36936,150.253264 450.782846,159.771988 C454.697571,165.578591 457,172.592387 457,180.155457 L457,193 L385,193 L385,180.155457 C385,172.592387 387.302429,165.578591 391.211205,159.771988" id="Fill-209" fill="#1D1715"></path>
                <path d="M83.217668,159.771988 C89.6376333,150.253264 100.412941,144 112.64598,144 L113.36592,144 C125.587059,144 136.368317,150.253264 142.788282,159.771988 C146.70928,165.578591 149,172.592387 149,180.155457 L149,193 L77,193 L77,180.155457 C77,172.592387 79.3026196,165.578591 83.217668,159.771988" id="Fill-210" fill="#1D1715"></path>
                <path d="M25.0004426,87 L230.999557,87 C234.310354,87 237,84.3241446 237,81.0363224 L237,18.9696773 C237,15.6698557 234.310354,13 230.999557,13 L29.6259094,13 C26.321143,13 23.6314974,15.6698557 23.6314974,18.9696773 L19,81.0363224 C19,84.3241446 21.6896456,87 25.0004426,87" id="Fill-211" fill="#FFFFFF"></path>
                <path d="M230,21.6739172 L230,78.3200303 C230,80.3536977 228.37962,82 226.370587,82 L139.635392,82 C137.62636,82 136,80.3536977 136,78.3200303 L136,21.6739172 C136,19.6463023 137.62636,18 139.635392,18 L226.370587,18 C228.37962,18 230,19.6463023 230,21.6739172" id="Fill-212" fill="#ABEDE3"></path>
                <path d="M119,22.6060148 L119,77.3939852 C119,79.9360696 116.961201,82 114.444091,82 L29.5559089,82 C27.0387991,82 25,79.9360696 25,77.3939852 L29.3825213,22.6060148 C29.3825213,20.0639304 31.4213204,18 33.9324513,18 L114.444091,18 C116.961201,18 119,20.0639304 119,22.6060148" id="Fill-213" fill="#ABEDE3"></path>
                <path d="M345,94.5 C345,96.243 349.029402,97.65 353.996993,97.65 C358.970598,97.65 363,96.243 363,94.5 C363,92.764 358.970598,91.35 353.996993,91.35 C349.029402,91.35 345,92.764 345,94.5" id="Fill-214" fill="#DAD1D1"></path>
                <path d="M507,175 C507,174.981281 507,174.962562 507,174.943842 L507,156 L507,174.943842 C507,174.962562 507,174.981281 507,175" id="Fill-215" fill="#F2F2F2"></path>
                <path d="M506.767559,178 C506.88676,177.323318 506.96424,176.634444 507,175.933377 C507,175.939473 507,175.939473 507,175.945569 C507,175.945569 507,175.951666 507,175.957762 C507,175.969954 507,175.982147 507,175.994339 C507,176.000435 507,176.006532 507,176.012628 C507,176.02482 506.99404,176.037013 506.99404,176.055302 C506.95232,176.713695 506.8808,177.359895 506.767559,178 M450.17119,158.272589 C447.900422,155.084259 445.140932,152.286088 442,150 L458.050339,151.578924 L450.17119,158.272589" id="Fill-216" fill="#CFC6C6"></path>
                <path d="M489.535535,193 L456.865094,193 L456.865094,180.38963 C456.865094,172.964444 454.55283,166.078519 450.621384,160.377778 C450.418239,160.081481 450.209119,159.791111 450,159.506667 L457.898742,153 L504.819182,157.474074 L493.210063,157.474074 L493.210063,159.939259 L507,159.939259 L507,162.179259 L493.210063,162.179259 L493.210063,164.674074 L507,164.674074 L507,166.92 L493.210063,166.92 L493.210063,169.385185 L507,169.385185 L507,171.666667 L493.210063,171.666667 L493.210063,174.131852 L507,174.131852 L507,175.672593 C507,175.69037 507,175.708148 507,175.725926 C507,175.731852 507,175.737778 507,175.743704 C507,175.755556 507,175.767407 507,175.785185 C507,175.785185 507,175.791111 507,175.797037 C507,175.808889 507,175.826667 507,175.838519 C507,175.844444 507,175.85037 507,175.856296 C507,175.868148 507,175.88 507,175.891852 C507,175.897778 507,175.903704 507,175.915556 C507,175.921481 507,175.933333 507,175.945185 C507,175.951111 507,175.957037 507,175.968889 C507,175.980741 507,175.986667 507,176.004444 C507,176.01037 507,176.016296 507,176.022222 C507,176.034074 507,176.045926 507,176.057778 C507,176.063704 507,176.06963 507,176.075556 C506.994025,176.087407 506.994025,176.099259 506.994025,176.111111 C506.994025,176.117037 506.994025,176.128889 506.994025,176.134815 C506.994025,176.146667 506.994025,176.152593 506.994025,176.164444 C506.994025,176.17037 506.994025,176.182222 506.994025,176.188148 C506.994025,176.2 506.994025,176.211852 506.994025,176.223704 C506.994025,176.22963 506.994025,176.235556 506.994025,176.241481 C506.994025,176.253333 506.994025,176.265185 506.994025,176.277037 C506.994025,176.282963 506.98805,176.288889 506.98805,176.294815 C506.98805,176.306667 506.98805,176.318519 506.98805,176.33037 C506.98805,176.336296 506.98805,176.342222 506.98805,176.354074 C506.98805,176.365926 506.98805,176.377778 506.98805,176.383704 C506.98805,176.38963 506.98805,176.401481 506.98805,176.401481 C506.98805,176.419259 506.98805,176.431111 506.982075,176.442963 C506.982075,176.448889 506.982075,176.454815 506.982075,176.460741 C506.982075,176.472593 506.982075,176.484444 506.982075,176.502222 L506.982075,176.508148 C506.982075,176.525926 506.982075,176.537778 506.982075,176.555556 C506.982075,176.561481 506.982075,176.561481 506.976101,176.567407 C506.976101,176.585185 506.976101,176.602963 506.976101,176.614815 L506.976101,176.620741 C506.976101,176.638519 506.976101,176.656296 506.976101,176.674074 C506.976101,176.674074 506.976101,176.674074 506.970126,176.674074 C506.934277,177.355556 506.856604,178.025185 506.737107,178.682963 C506.737107,178.682963 506.737107,178.682963 506.737107,178.688889 C506.737107,178.700741 506.731132,178.718519 506.731132,178.73037 C506.731132,178.736296 506.731132,178.742222 506.725157,178.748148 C506.725157,178.76 506.725157,178.771852 506.719182,178.783704 C506.719182,178.78963 506.719182,178.795556 506.719182,178.795556 C506.713208,178.813333 506.713208,178.825185 506.713208,178.837037 C506.707233,178.842963 506.707233,178.848889 506.707233,178.854815 C506.707233,178.866667 506.701258,178.878519 506.701258,178.884444 C506.701258,178.89037 506.701258,178.902222 506.695283,178.908148 C506.695283,178.914074 506.695283,178.925926 506.689308,178.937778 C506.689308,178.943704 506.689308,178.955556 506.689308,178.961481 C506.683333,178.967407 506.683333,178.979259 506.683333,178.985185 C506.683333,178.997037 506.677358,179.002963 506.677358,179.014815 C506.677358,179.020741 506.671384,179.032593 506.671384,179.038519 C506.671384,179.05037 506.665409,179.056296 506.665409,179.068148 C506.665409,179.074074 506.665409,179.08 506.665409,179.08 C506.659434,179.097778 506.659434,179.10963 506.653459,179.121481 L506.653459,179.127407 C505.117925,186.659259 498.641195,192.407407 490.730503,192.934815 L489.535535,193" id="Fill-217" fill="#5C4B45"></path>
                <polyline id="Fill-218" fill="#1C1614" points="507 158.956 494 158.956 494 156.044 504.944107 156.044 507 156.289 507 158.956"></polyline>
                <polygon id="Fill-219" fill="#1C1614" points="494 164.9735 507 164.9735 507 162.0265 494 162.0265"></polygon>
                <path d="M0.450500403,153 C0.0742794932,151.64761 -0.0762088708,150.203843 0.0366574022,148.717432 C-0.0762088708,150.203843 0.0742794932,151.64761 0.450500403,153 M1.59170383,128.334114 C1.7171108,126.762418 2.25009042,125.306467 3.07150608,124.057638 C2.25009042,125.306467 1.7171108,126.762418 1.59170383,128.334114 M7.56734595,120.43299 L8,114 L7.5736163,120.43299 C7.56734595,120.43299 7.56734595,120.43299 7.56734595,120.43299" id="Fill-220" fill="#F2F2F2"></path>
                <path d="M10,161 C5.35341365,160.089613 1.65238731,156.429735 0.434181152,151.737271 C0.434181152,151.731161 0.434181152,151.731161 0.434181152,151.731161 C0.42838017,151.706721 0.422579188,151.688391 0.416778206,151.663951 C0.0687193035,150.307536 -0.0705042576,148.85947 0.0339134132,147.368635 L1.4667559,126.985743 C1.4667559,126.967413 1.4667559,126.949084 1.47255688,126.930754 C1.47255688,126.930754 1.47255688,126.930754 1.47255688,126.924644 C1.58857651,125.348269 2.08165996,123.887984 2.84158856,122.635438 C2.84738955,122.629328 2.84738955,122.623218 2.85319053,122.623218 C2.85899151,122.610998 2.85899151,122.604888 2.86479249,122.598778 C2.87059347,122.586558 2.87639445,122.580448 2.88219544,122.574338 L2.88219544,122.568228 C3.87416331,120.973523 5.31280677,119.720978 7.00089245,119.00611 L7.00089245,119 C7.00089245,119 7.00089245,119 7.00669343,119 L5.73047746,139.688391 C5.73047746,146.513238 6.9544846,152.989817 9.18206158,158.947047 C9.43150379,159.600815 9.68674699,160.248473 9.95939313,160.89613 C9.97099509,160.93279 9.98839804,160.96334 10,161" id="Fill-221" fill="#BA4241"></path>
                <path d="M385.764786,193 L385.764786,180.190828 C385.764786,172.648585 388.091521,165.654102 392.04156,159.86349 L373.626084,159.86349 C376.33159,154.301612 380.035126,149.317592 384.502217,145.140165 L407,147.30713 C400.933655,150.045933 395.763133,154.41598 392.04156,159.86349 C388.091521,165.654102 385.764786,172.648585 385.764786,180.190828 L385.764786,193 M59.7333123,193 L59.0479175,193 C38.6784657,193 21.026544,181.304407 12.5192316,164.227517 L12.3809502,163.914511 C20.9604094,181.165962 38.9249673,193 59.7333123,193 M339.091807,159.86349 L328.840946,159.86349 L328.840946,139.782945 L339.091807,140.770118 L339.091807,159.86349 M249.238956,159.86349 L144.932693,159.86349 C138.445492,150.370978 127.551322,144.134934 115.202191,144.134934 L114.474711,144.134934 C102.113556,144.134934 91.2253987,150.370978 84.7381972,159.86349 L10.5772798,159.86349 C8.26858156,153.994626 7,147.614117 7,140.890505 L8.32269168,120.508993 L8.73152365,114.152562 L9.0682088,109 L249.238956,132.120315 L249.238956,159.86349" id="Fill-222" fill="#FAAD2F"></path>
                <path d="M384.730866,193 L150.461023,193 L150.461023,179.857039 C150.461023,172.118256 148.14913,164.941508 144.191889,159 L248.371202,159 L248.371202,175.663397 C248.371202,178.893551 250.911282,181.506085 254.051853,181.506085 L322.195656,181.506085 C325.336228,181.506085 327.876308,178.893551 327.876308,175.663397 L327.876308,159 L338.114692,159 L338.114692,175.663397 C338.114692,178.893551 340.660777,181.506085 343.801349,181.506085 L356.886064,181.506085 C362.662795,181.506085 367.418689,177.195095 368.553619,171.377112 C369.394307,167.029064 370.775438,162.878656 372.606938,159 L391,159 C387.054769,164.941508 384.730866,172.118256 384.730866,179.857039 L384.730866,193 M77.7955176,193 L59.0962048,193 C38.3131856,193 20.3704924,180.857584 11.8014752,163.156585 L11.6933867,162.903361 C11.4051507,162.304269 11.1529441,161.686649 10.8947327,161.087557 C10.8767179,161.081381 10.8647081,161.081381 10.8466934,161.075204 C10.8346835,161.038147 10.8166688,161.007266 10.8046589,160.970209 C10.5224278,160.315531 10.2582114,159.660854 10,159 L84.0706563,159 C80.1194206,164.941508 77.7955176,172.118256 77.7955176,179.857039 L77.7955176,193" id="Fill-223" fill="#5C4B45"></path>
                <path d="M322.355438,181 L254.644562,181 C251.523943,181 249,178.437296 249,175.268751 L249,131 L328,138.712347 L328,175.268751 C328,178.437296 325.476057,181 322.355438,181" id="Fill-224" fill="#F2F2F2"></path>
                <path d="M356.624388,181 L343.642129,181 C340.526149,181 338,178.517606 338,175.448357 L338,141 L383,145.260563 C378.573282,149.333333 374.903217,154.192488 372.222163,159.615023 C370.405005,163.300469 369.034688,167.244131 368.200583,171.375587 C367.07454,176.903756 362.355885,181 356.624388,181" id="Fill-225" fill="#F2F2F2"></path>
                <polygon id="Fill-226" fill="#1C1614" points="494 169.956 507 169.956 507 167.044 494 167.044"></polygon>
                <polygon id="Fill-227" fill="#1C1614" points="494 174.956 507 174.956 507 172.044 494 172.044"></polygon>
                <path d="M457,193 L450.497273,193 C451.794249,189.561718 452.502231,185.844816 452.502231,181.967857 C452.502231,176.265051 450.955379,170.888289 448.260288,166.276248 C442.828458,156.880253 432.654933,150.58464 421,150.58464 C403.586019,150.58464 389.497769,164.628244 389.497769,181.967857 C389.497769,185.850744 390.199802,189.567646 391.490828,193 L385,193 L385,180.385061 C385,172.957186 387.302429,166.068766 391.211205,160.36596 C394.893902,155.001054 400.010412,150.697273 406.013386,148 L442.007437,151.450138 C445.142786,153.673166 447.897372,156.394151 450.164105,159.494533 C450.372335,159.77908 450.580565,160.069556 450.782846,160.36596 C454.697571,166.068766 457,172.957186 457,180.385061 L457,193 M437.80119,193 L435.641547,193 L432.660882,190.018179 C433.815072,188.358319 434.630144,186.437624 434.98116,184.362798 L440.990084,184.362798 C440.609321,187.528389 439.484879,190.462785 437.80119,193 M426.170055,193 L415.806148,193 C415.2588,192.739165 414.73525,192.448689 414.235498,192.116717 C412.843332,191.18601 411.659395,189.994467 410.743183,188.607298 C409.910263,187.332762 409.30937,185.892241 409.005949,184.362798 C408.857214,183.580292 408.762023,182.791859 408.762023,181.967857 C408.762023,181.102358 408.869113,180.242788 409.035697,179.418785 C409.362915,177.901199 409.969757,176.484389 410.808627,175.239494 C411.730788,173.852325 412.932573,172.672639 414.330689,171.765644 C415.591968,170.947569 417.001983,170.354762 418.513138,170.040574 C419.310362,169.874588 420.143282,169.791595 420.988101,169.791595 C421.83887,169.791595 422.67179,169.874588 423.469013,170.040574 C424.980169,170.354762 426.384234,170.947569 427.651463,171.771572 C429.043629,172.672639 430.251363,173.852325 431.173525,175.239494 C432.006445,176.484389 432.619236,177.901199 432.934556,179.418785 C433.113039,180.242788 433.220129,181.102358 433.220129,181.967857 C433.220129,182.791859 433.124938,183.580292 432.988101,184.362798 C432.660882,185.892241 432.071889,187.332762 431.22707,188.607298 C430.322757,189.994467 429.13882,191.18601 427.758552,192.116717 C427.252851,192.448689 426.723352,192.739165 426.170055,193 M406.340605,193 L404.180962,193 C402.497273,190.462785 401.372831,187.528389 401.009916,184.362798 L407.000992,184.362798 C407.357957,186.437624 408.16113,188.358319 409.321269,190.018179 L406.340605,193 M440.960337,179.418785 L434.957362,179.418785 C434.570649,177.367672 433.749628,175.470689 432.595439,173.822685 L436.831433,169.595969 C439.020823,172.376235 440.490332,175.755236 440.960337,179.418785 M407.024789,179.418785 L401.015865,179.418785 C401.49182,175.755236 402.961329,172.376235 405.150719,169.595969 L409.386713,173.822685 C408.226574,175.470689 407.405553,177.367672 407.024789,179.418785 M429.073376,170.342906 C427.419435,169.198788 425.527516,168.410354 423.469013,168.048742 L423.469013,162.067317 C427.15766,162.511922 430.519088,163.952444 433.30937,166.122118 L429.073376,170.342906 M412.908775,170.342906 L408.672781,166.122118 C411.457115,163.952444 414.824492,162.511922 418.513138,162.067317 L418.513138,168.048742 C416.466534,168.410354 414.562717,169.198788 412.908775,170.342906" id="Fill-228" fill="#1C1614"></path>
                <path d="M149,193 L142.502686,193 C143.793819,189.499138 144.507809,185.714585 144.507809,181.767061 C144.507809,175.960458 142.96083,170.485834 140.265515,165.78985 C134.839187,156.222838 124.658871,149.812639 113.002975,149.812639 C95.5875547,149.812639 81.5040906,164.11185 81.5040906,181.767061 C81.5040906,185.720621 82.2061813,189.505174 83.4973143,193 L77,193 L77,180.155457 C77,172.592387 79.3026196,165.578591 83.217668,159.771988 C89.6376333,150.253264 100.412941,144 112.64598,144 L113.36592,144 C125.587059,144 136.368317,150.253264 142.788282,159.771988 C146.70928,165.578591 149,172.592387 149,180.155457 L149,193 M129.805553,193 L127.651682,193 L124.664821,189.963907 C125.825056,188.273836 126.634245,186.318182 126.98529,184.205593 L132.994711,184.205593 C132.613916,187.4288 131.489381,190.416605 129.805553,193 M118.179407,193 L107.814643,193 C107.267251,192.734417 106.743658,192.438655 106.237914,192.100641 C104.845633,191.152993 103.655648,189.939763 102.74531,188.527347 C101.912321,187.229613 101.311379,185.762873 101.013883,184.205593 C100.859185,183.408845 100.763986,182.606061 100.763986,181.767061 C100.763986,180.885809 100.871085,180.010594 101.037683,179.171594 C101.364929,177.626386 101.97777,176.183789 102.810759,174.916236 C103.738947,173.503819 104.934881,172.302661 106.333113,171.379157 C107.594496,170.546194 109.004628,169.942597 110.515908,169.62269 C111.313197,169.453683 112.146186,169.36918 112.997025,169.36918 C113.841914,169.36918 114.674903,169.453683 115.472192,169.62269 C116.983472,169.942597 118.393604,170.546194 119.654987,171.385193 C121.053219,172.302661 122.249153,173.503819 123.177341,174.916236 C124.01033,176.183789 124.623172,177.626386 124.938517,179.171594 C125.117015,180.010594 125.224114,180.885809 125.224114,181.767061 C125.224114,182.606061 125.134865,183.408845 124.992067,184.205593 C124.664821,185.762873 124.075779,187.229613 123.22494,188.527347 C122.326502,189.939763 121.142468,191.152993 119.762086,192.100641 C119.256342,192.438655 118.726799,192.734417 118.179407,193 M98.3423684,193 L96.1884968,193 C94.4987191,190.416605 93.374184,187.4288 93.0052888,184.205593 L99.0028097,184.205593 C99.359805,186.318182 100.163044,188.273836 101.323279,189.963907 L98.3423684,193 M132.970911,179.171594 L126.955541,179.171594 C126.580696,177.083149 125.759607,175.151638 124.599372,173.473639 L128.835716,169.169993 C131.025287,172.000862 132.500868,175.441365 132.970911,179.171594 M99.0325593,179.171594 L93.0171887,179.171594 C93.4872325,175.441365 94.962813,172.000862 97.1523841,169.169993 L101.394678,173.473639 C100.228494,175.151638 99.4074043,177.083149 99.0325593,179.171594 M121.077018,169.930525 C119.42294,168.765583 117.530865,167.962799 115.472192,167.594605 L115.472192,161.504311 C119.161144,161.957009 122.522849,163.42375 125.313363,165.632915 L121.077018,169.930525 M104.911082,169.930525 L100.674738,165.632915 C103.465251,163.42375 106.826956,161.957009 110.515908,161.504311 L110.515908,167.594605 C108.469135,167.962799 106.57111,168.765583 104.911082,169.930525" id="Fill-229" fill="#1C1614"></path>
                <path d="M433,182.494076 C433,189.395735 427.42139,195 420.497036,195 C413.596396,195 408,189.395735 408,182.494076 C408,175.586493 413.596396,170 420.497036,170 C427.42139,170 433,175.586493 433,182.494076" id="Fill-230" fill="#FFFFFF"></path>
                <path d="M400.243626,180.996978 C400.243626,169.005666 409.979603,159.274813 422,159.274813 C433.990179,159.274813 443.726157,169.005666 443.726157,180.996978 C443.726157,192.994334 433.990179,202.725187 422,202.725187 C409.979603,202.725187 400.243626,192.994334 400.243626,180.996978 M390,180.996978 C390,198.687789 404.310859,213 422,213 C432.666667,213 442.094429,207.790065 447.908215,199.775711 C451.739754,194.499292 454,187.995939 454,180.996978 C454,175.182642 452.428706,169.700727 449.691029,164.998489 C444.173371,155.418736 433.839093,149 422,149 C404.310859,149 390,163.318255 390,180.996978" id="Fill-231" fill="#1D1715"></path>
                <path d="M434.692866,179.895819 C434.299879,177.802796 433.465538,175.867052 432.292624,174.185374 L436.59734,169.872295 C438.822249,172.70937 440.315599,176.157414 440.793229,179.895819 L434.692866,179.895819 M432.359129,190.711789 C433.532044,189.018013 434.360339,187.058072 434.71705,184.940852 L440.823458,184.940852 C440.370012,188.715553 438.888755,192.169646 436.663845,195.030918 L432.359129,190.711789 M423.018138,196.706547 C425.146312,196.325447 427.111245,195.496707 428.804111,194.292916 L433.126965,198.605995 C430.261185,200.856298 426.808948,202.35045 423.018138,202.816239 L423.018138,196.706547 M412.195889,194.292916 C413.888755,195.496707 415.847642,196.325447 417.981862,196.706547 L417.981862,202.816239 C414.191052,202.35045 410.738815,200.856298 407.885127,198.605995 L412.195889,194.292916 M406.28295,184.940852 C406.645707,187.058072 407.461911,189.018013 408.640871,190.711789 L404.336155,195.030918 C402.111245,192.169646 400.629988,188.715553 400.19468,184.940852 L406.28295,184.940852 M408.707376,174.185374 C407.528416,175.867052 406.694075,177.802796 406.307134,179.895819 L400.200726,179.895819 C400.684401,176.157414 402.177751,172.70937 404.40266,169.872295 L408.707376,174.185374 M417.981862,168.293453 C415.902056,168.662455 413.967352,169.466998 412.286578,170.634494 L407.981862,166.327463 C410.811366,164.113456 414.233374,162.6435 417.981862,162.18981 L417.981862,168.293453 M428.713422,170.634494 C427.032648,169.466998 425.110036,168.662455 423.018138,168.293453 L423.018138,162.18981 C426.766626,162.6435 430.182588,164.113456 433.018138,166.327463 L428.713422,170.634494 M427.377267,192.853206 C426.065296,193.712192 424.596131,194.341309 423.018138,194.667966 C422.207981,194.837344 421.361548,194.928082 420.496977,194.928082 C419.638452,194.928082 418.792019,194.837344 417.981862,194.667966 C416.391778,194.341309 414.934704,193.712192 413.634825,192.853206 C412.220073,191.903482 411.016929,190.687592 410.085852,189.27208 C409.23942,187.971502 408.628779,186.501546 408.320435,184.940852 C408.169287,184.142358 408.072551,183.337814 408.072551,182.496975 C408.072551,181.613792 408.181378,180.736658 408.350665,179.895819 C408.683192,178.347224 409.299879,176.901465 410.152358,175.631133 C411.08948,174.21562 412.310762,173.01183 413.73156,172.086302 C415.013301,171.251512 416.446191,170.646592 417.981862,170.325985 C418.792019,170.156607 419.638452,170.071918 420.496977,170.071918 C421.361548,170.071918 422.207981,170.156607 423.018138,170.325985 C424.553809,170.646592 425.980653,171.251512 427.26844,172.092351 C428.683192,173.01183 429.91052,174.21562 430.847642,175.631133 C431.694075,176.901465 432.316808,178.347224 432.637243,179.895819 C432.818622,180.736658 432.927449,181.613792 432.927449,182.496975 C432.927449,183.337814 432.830713,184.142358 432.691657,184.940852 C432.359129,186.501546 431.76058,187.971502 430.902056,189.27208 C429.983071,190.687592 428.779927,191.903482 427.377267,192.853206 M420.496977,160 C408.072551,160 398,170.071918 398,182.496975 C398,194.928082 408.072551,205 420.496977,205 C432.927449,205 443,194.928082 443,182.496975 C443,170.071918 432.927449,160 420.496977,160" id="Fill-232" fill="#DAD1D1"></path>
                <path d="M126,182.494076 C126,189.395735 120.418109,195 113.502963,195 C106.599668,195 101,189.395735 101,182.494076 C101,175.586493 106.599668,170 113.502963,170 C120.418109,170 126,175.586493 126,182.494076" id="Fill-233" fill="#FFFFFF"></path>
                <path d="M92.2445934,180.996978 C92.2445934,169.005666 101.975446,159.274813 113.996978,159.274813 C125.98829,159.274813 135.719143,169.005666 135.719143,180.996978 C135.719143,192.994334 125.98829,202.725187 113.996978,202.725187 C101.975446,202.725187 92.2445934,192.994334 92.2445934,180.996978 M82,180.996978 C82,198.687789 96.3061668,213 113.996978,213 C124.664652,213 134.093304,207.790065 139.913684,199.775711 C143.739541,194.499292 146,187.995939 146,180.996978 C146,175.182642 144.428558,169.700727 141.690622,164.998489 C136.178487,155.418736 125.83719,149 113.996978,149 C96.3061668,149 82,163.318255 82,180.996978" id="Fill-234" fill="#1D1715"></path>
                <path d="M127.690633,179.895819 C127.309636,177.802796 126.475071,175.867052 125.295794,174.185374 L129.601666,169.872295 C131.827174,172.70937 133.326972,176.157414 133.804731,179.895819 L127.690633,179.895819 M125.362317,190.711789 C126.541594,189.018013 127.364064,187.058072 127.720871,184.940852 L133.828921,184.940852 C133.375353,188.715553 131.893697,192.169646 129.66819,195.030918 L125.362317,190.711789 M116.018815,196.706547 C118.153608,196.325447 120.113022,195.496707 121.812391,194.292916 L126.130359,198.605995 C123.263809,200.856298 119.810644,202.35045 116.018815,202.816239 L116.018815,196.706547 M105.193657,194.292916 C106.886978,195.496707 108.852439,196.325447 110.981185,196.706547 L110.981185,202.816239 C107.195404,202.35045 103.730144,200.856298 100.887784,198.605995 L105.193657,194.292916 M99.2791291,184.940852 C99.6419836,187.058072 100.458406,189.018013 101.637683,190.711789 L97.3318102,195.030918 C95.1063029,192.169646 93.6246472,188.715553 93.1831743,184.940852 L99.2791291,184.940852 M101.710254,174.185374 C100.524929,175.867052 99.6903642,177.802796 99.309367,179.895819 L93.1952695,179.895819 C93.6730278,176.157414 95.1728262,172.70937 97.3983336,169.872295 L101.710254,174.185374 M110.981185,168.293453 C108.90082,168.662455 106.971644,169.466998 105.28437,170.634494 L100.978498,166.327463 C103.81481,164.113456 107.231689,162.6435 110.981185,162.18981 L110.981185,168.293453 M121.71563,170.634494 C120.034404,169.466998 118.111275,168.662455 116.018815,168.293453 L116.018815,162.18981 C119.768311,162.6435 123.18519,164.113456 126.021502,166.327463 L121.71563,170.634494 M120.379116,192.853206 C119.066792,193.712192 117.591184,194.341309 116.018815,194.667966 C115.20844,194.837344 114.361779,194.928082 113.503024,194.928082 C112.638221,194.928082 111.79156,194.837344 110.981185,194.667966 C109.396721,194.341309 107.933208,193.712192 106.632979,192.853206 C105.217847,191.903482 104.008332,190.687592 103.083053,189.27208 C102.236393,187.971502 101.625588,186.501546 101.323209,184.940852 C101.165972,184.142358 101.069211,183.337814 101.069211,182.496975 C101.069211,181.613792 101.178067,180.736658 101.3474,179.895819 C101.680016,178.347224 102.302916,176.901465 103.149577,175.631133 C104.092998,174.21562 105.308561,173.01183 106.729741,172.086302 C108.011826,171.251512 109.445101,170.646592 110.981185,170.325985 C111.79156,170.156607 112.638221,170.071918 113.503024,170.071918 C114.361779,170.071918 115.20844,170.156607 116.018815,170.325985 C117.554899,170.646592 118.988174,171.251512 120.270259,172.092351 C121.691439,173.01183 122.907002,174.21562 123.850423,175.631133 C124.697084,176.901465 125.319984,178.347224 125.640505,179.895819 C125.821933,180.736658 125.930789,181.613792 125.930789,182.496975 C125.930789,183.337814 125.840075,184.142358 125.694933,184.940852 C125.362317,186.501546 124.763607,187.971502 123.898804,189.27208 C122.98562,190.687592 121.782153,191.903482 120.379116,192.853206 M113.503024,160 C101.069211,160 91,170.071918 91,182.496975 C91,194.928082 101.069211,205 113.503024,205 C125.930789,205 136,194.928082 136,182.496975 C136,170.071918 125.930789,160 113.503024,160" id="Fill-235" fill="#DAD1D1"></path>
                <polyline id="Fill-236" fill="#D5F6F1" points="101 79 71.5938792 79 35 22 64.7215329 22 101 79"></polyline>
                <polyline id="Fill-237" fill="#D5F6F1" points="112 79 102.634973 79 67 22 76.4547872 22 112 79"></polyline>
                <polyline id="Fill-238" fill="#D5F6F1" points="207 79 177.572978 79 141 22 170.724265 22 207 79"></polyline>
                <polyline id="Fill-239" fill="#D5F6F1" points="220 79 210.633971 79 175 22 184.467703 22 220 79"></polyline>
                <polyline id="Fill-240" fill="#D5F6F1" points="314 79 284.75238 79 257 35.4685823 257 22 277.927332 22.0239975 277.939391 22.0239975 314 79"></polyline>
                <polyline id="Fill-241" fill="#D5F6F1" points="319 79 317.243165 79 282 22 291.38753 22 319 66.8341582 319 79"></polyline>
                <polyline id="Fill-242" fill="#D5F6F1" points="409.213682 88 382.538432 84.522163 382.514604 84.522163 348 29.2894979 348 22.8072466 348.786318 22 372.637971 22 410 82.1853964 410 87.1927534 409.213682 88"></polyline>
                <polyline id="Fill-243" fill="#D5F6F1" points="410 76 376 22 385.518558 22 410 61.000669 410 76"></polyline>
                <polyline id="Fill-244" fill="#D5F6F1" points="472 96 454.069286 93.6551339 427 49.7042411 427 30 472 96"></polyline>
                <path d="M258.003011,220 C121.033989,220 10,216.642059 10,212.5 C10,210.231445 43.3373001,208.196329 96.0204733,206.819633 C101.182184,210.405028 107.470195,212.5 114.252092,212.5 C121.527875,212.5 128.22545,210.081804 133.591942,206.011572 C170.163592,205.371109 212.655851,205 258.003011,205 C312.270234,205 362.477954,205.526736 403.313888,206.424581 C408.584012,210.243416 415.082828,212.5 422.111668,212.5 C428.526162,212.5 434.488932,210.620511 439.481998,207.388268 C480.751588,208.72905 506,210.524741 506,212.5 C506,216.642059 394.966011,220 258.003011,220" id="Fill-245" fill="#E8E8E8"></path>
                <path d="M421.230142,214 C414.039634,214 407.391341,211.4 402,207 C415.376686,207.331034 427.767527,207.703448 439,208.110345 C433.89209,211.834483 427.792173,214 421.230142,214" id="Fill-246" fill="#1D1816"></path>
                <path d="M113.954312,214 C107.275569,214 101.0832,211.739852 96,207.871771 C107.453511,207.548893 119.838249,207.251845 133,207 C127.715133,211.391144 121.119429,214 113.954312,214" id="Fill-247" fill="#1D1816"></path>
            </g>
            <g id="bluecar" transform="translate(183.000000, 168.000000)">
                <path d="M172.001961,115 C79.7700311,115 5,113.205825 5,111 C5,109.869903 24.5563854,108.848544 56.0011391,108.12233 C59.6919852,110.370874 64.0378486,111.667961 68.6896483,111.667961 C68.6935705,111.667961 68.6974928,111.667961 68.7053373,111.667961 C73.6787623,111.656311 78.2991838,110.168932 82.1429981,107.625243 C108.088744,107.229126 138.917703,107 172.001961,107 C210.628372,107 246.191498,107.314563 274.482755,107.838835 C278.267735,110.262136 282.778334,111.667961 287.618402,111.667961 C287.626246,111.667961 287.630169,111.667961 287.634091,111.667961 C292.062322,111.660194 296.212072,110.479612 299.78525,108.425243 C324.256227,109.120388 339,110.017476 339,111 C339,113.205825 264.229969,115 172.001961,115" id="Fill-1" fill="#E8E8E8"></path>
                <path d="M6.04407466,65.9279213 L6.70101106,65.9974677 C7.33709234,66.0629231 7.94536678,64.8519976 8.08787679,63.2319757 L8.96726785,53.4872983 C9.13063299,51.687274 8.66486855,50.0958888 7.96274605,50.0345243 L7.49350576,50.0017966 C6.87480376,49.9486141 6.28390858,51.0818112 6.11011588,52.6486506 L5.04998042,62.2624171 C4.84142918,64.1360788 5.30719361,65.8542839 6.04407466,65.9279213" id="Fill-2" fill="#E94E1B"></path>
                <path d="M333.679038,68 L336.394771,67.7654321 C338.106333,67.6131687 339.204009,66.0617284 338.968212,64.1152263 L337.337959,50.563786 C337.102162,48.6296296 335.630463,46.8847737 333.86605,46.4526749 L332,46 L333.679038,68" id="Fill-3" fill="#F9B659"></path>
                <polyline id="Fill-4" fill="#61C3DA" points="332.776451 69 337 68.7197103 334.373847 46.1421759 329 46 332.776451 69"></polyline>
                <path d="M334.463288,85.8881304 L338.175572,85.9994656 C339.121377,86.0242068 339.935445,85.1871307 340.077316,84.04079 L340.979208,76.6308107 C341.148102,75.2453054 340.266477,74 339.117999,74 L334.135634,74 L333.01418,83.8057489 C332.892576,84.8902367 333.568151,85.8592657 334.463288,85.8881304" id="Fill-5" fill="#DAD1D1"></path>
                <path d="M20.475107,86.4210477 L41.5652964,88.9100274 L46.1725102,89.4571018 L48.3542539,89.6157951 L53.5118174,90 L301.279283,90 L303.319509,89.7201986 L316.696939,87.9077537 L325.156601,86.755139 C330.294509,86.0493713 334.335649,81.7395945 335,76.2855552 L332.436943,47.3616074 C332.165699,46.0168902 331.772592,44.88098 331.261553,43.9329961 C328.572701,38.8673379 322.884443,38.8464572 317.400601,38.5499513 L250.202894,32.828639 C248.720881,32.7576447 247.266385,32.4861955 245.843337,32.0602292 L244.986364,31.784604 C242.926484,31.0579555 240.968811,29.9554545 239.219485,28.5230384 L207.63727,2.68108208 C205.50663,0.939631572 202.900331,0 200.227204,0 L88.8914454,0 C84.2174035,0 79.5472926,0.78093824 75.0973216,2.31775788 C72.07826,3.35344068 69.1731994,4.464294 66.3664156,5.62943715 C65.5094424,5.98440908 64.6760556,6.33520486 63.850531,6.69852907 C63.0367995,7.053501 62.2309302,7.40429678 61.4368541,7.76762099 C44.4231841,15.5227136 31.5567927,25.148717 22.8180246,33.3464804 C22.4249176,33.6972762 22.0553971,34.048072 21.6819454,34.3988678 C21.3084938,34.762192 20.9468354,35.1171639 20.585177,35.4679597 C12.8802802,43.0560067 8.96886578,49.0278873 8.82734727,50.4352466 L7.08981442,69.3907475 C6.1817373,78.0771194 12.2670333,85.8238597 20.475107,86.4210477" id="Fill-6" fill="#4AA2B7"></path>
                <path d="M199.012439,4 C200.967408,4 202.887467,4.69905249 204.423514,5.97232667 L235.59053,31.724921 C236.924874,32.8317541 238.356191,33.7555021 239.857328,34.5044869 L244,52.6798516 L239.857328,87 L157,87 L160.107004,51.4731539 L157,4 L199.012439,4" id="Fill-7" fill="#61C3DA"></path>
                <path d="M160,7 L198.64509,7 C199.912333,7 201.160199,7.46060972 202.160042,8.30153939 L233.294684,34.4548747 L234,35 L161.805918,35 L160,7" id="Fill-8" fill="#ABEDE3"></path>
                <path d="M202.630232,9.32716828 C201.785162,8.61482416 200.725848,8.2239036 199.646697,8.2239036 L161.174172,8.2239036 L162.880183,34.78044 L232.802817,34.78044 L202.630232,9.32716828 M159,6 L199.646697,6 C201.170204,6 202.669907,6.56031946 203.868082,7.56802578 L235.74271,34.4546728 L236.143424,34.7630657 L239,37 L160.987701,37 L159,6" id="Fill-9" fill="#FFFFFF"></path>
                <path d="M96.9301349,9.08061363 C99.0115998,5.97232667 102.342725,4.00832205 105.927687,4 L152.871945,4 L156,51.4731539 L152.871945,87 L103.584574,87 C102.272431,72.6361358 93.0171371,58.6009926 80.1925015,54.4857372 L80.0011473,38.4949115 C79.9660006,35.8193713 80.7392278,33.1979245 82.1997679,31.0217075 L96.9301349,9.08061363" id="Fill-10" fill="#61C3DA"></path>
                <path d="M99.6826929,10.7291196 C101.229479,8.39894658 103.647309,7.00421369 106.20185,7 L150.175886,7 L152,35 L84,34.9199398 L99.6826929,10.7291196" id="Fill-11" fill="#ABEDE3"></path>
                <path d="M107.121169,8.21768898 C104.909866,8.2220204 102.776702,9.48246472 101.421009,11.5788738 L86.8365707,34.700014 L151.855115,34.782311 L150.17515,8.21768898 L107.121169,8.21768898 M83,36.9133715 L99.7879271,10.2967724 C101.518682,7.61128965 104.261322,6.00866285 107.121169,6 L152.038739,6 L154,37 L83,36.9133715" id="Fill-12" fill="#FFFFFF"></path>
                <path d="M20,34.9536424 L47.3450663,35 L47.3529604,35 C50.1395679,35 52.8393406,33.9084889 54.9273227,31.9403974 L76.0755423,12.0571945 C77.9503845,10.2998194 76.7820618,7 74.287535,7 L62.3398566,7 C61.5228201,7.35821794 60.7136777,7.71222155 59.9163764,8.07886815 C42.833604,15.9048766 29.9149548,25.6189043 21.1406934,33.8916315 C20.7459898,34.2456352 20.3749684,34.5996388 20,34.9536424" id="Fill-13" fill="#ABEDE3"></path>
                <path d="M20,36.9523477 L48.3915745,37 L48.3994534,37 C51.4367649,37 54.3598325,35.7783678 56.6250129,33.5863611 L77.7443733,13.147848 C78.9104488,12.0085243 79.3043932,10.2453885 78.7568105,8.6382057 C78.2052883,7.03102292 76.8422406,6 75.2822207,6 L65.8787674,6 C65.0199685,6.36822247 64.1848063,6.73211291 63.3575231,7.10899944 C62.5420581,7.47722191 61.734472,7.84111235 60.9387043,8.21799888 L75.2822207,8.21799888 C76.144959,8.21799888 76.6728445,8.83747904 76.8737562,9.4136389 C77.0667889,10.0027949 77.0549706,10.8562046 76.4010229,11.4713527 L55.2934807,31.9098658 C53.3907292,33.7639743 50.9443343,34.7820011 48.3994534,34.7820011 L48.3994534,35.8910006 L48.3915745,34.7820011 L22.2376043,34.7516769 C21.8436599,35.1155674 21.4733521,35.4794578 21.0991049,35.8433482 C20.7248577,36.2202348 20.3624289,36.5884572 20,36.9523477" id="Fill-14" fill="#FFFFFF"></path>
                <polygon id="Fill-15" fill="#FFFFFF" points="165 45 178 45 178 40 165 40"></polygon>
                <polygon id="Fill-16" fill="#FFFFFF" points="85 45 98 45 98 40 85 40"></polygon>
                <path d="M6.6529171,70 L6.44755178,72.2276838 L15.5884041,72.2276838 C20.232175,72.2276838 24,76.116398 24,80.9091624 L24,81 L4.15500422,80.0829729 C1.91275021,80.0137633 -0.161858642,78.1494298 0.00997764641,75.8438852 C0.0518889363,75.3334644 0.0896090973,74.8533228 0.131520387,74.3904837 C0.341076837,71.8989383 2.36539214,70 4.79205583,70 L6.6529171,70" id="Fill-17" fill="#DAD1D1"></path>
                <path d="M325.202213,84 L337.084947,84 C338.121304,84 339.020313,83.2486428 339.236741,82.184582 L339.948457,78.7882736 C340.248126,77.3550489 339.203444,76 337.7925,76 L325.913929,76 C324.877571,76 323.978562,76.7513572 323.762134,77.8110749 L323.050419,81.2117264 C322.754911,82.6449511 323.795431,84 325.202213,84" id="Fill-18" fill="#DAD1D1"></path>
                <polyline id="Fill-19" fill="#4AA2B7" points="222 36.8708069 228.590734 40 229 36.4832276 223.401544 31 222 36.8708069"></polyline>
                <path d="M220.692099,26 L221.265624,26.069885 C223.039074,26.2918728 224.499323,27.5991341 224.930483,29.3585927 L225.833478,33.0378344 C226.769014,36.8568462 223.628868,40.4374267 219.764699,39.9564532 L219,39.8619028 L220.692099,26" id="Fill-20" fill="#4AA2B7"></path>
                <path d="M260,92 L300.618531,92 L302.653967,91.7129202 L316,89.8533289 L314.733245,82.0379038 C313.752784,75.9321028 310.219203,70.9103494 305.454163,68.1895188 C302.983402,66.7883982 300.187128,66 297.245746,66 L280.232789,66 C276.440367,66 272.867568,67.2297297 269.847748,69.3335531 C265.470971,72.4143045 262.278591,77.4017798 261.317739,83.3404746 L260,92" id="Fill-21" fill="#403430"></path>
                <g id="Group-24" transform="translate(173.000000, 9.000000)">
                    <mask id="mask-2" fill="white">
                        <use xlink:href="#path-1"></use>
                    </mask>
                    <g id="Clip-23"></g>
                    <polygon id="Fill-22" fill="#EAFAF8" mask="url(#mask-2)" points="0.331469534 24.5918367 33.1157563 24.5918367 33.1157563 0.454931973 0.331469534 0.454931973"></polygon>
                </g>
                <polyline id="Fill-25" fill="#EAFAF8" points="212 33 207.100701 33 188 10 192.944435 10 212 33"></polyline>
                <polyline id="Fill-26" fill="#EAFAF8" points="142 33 127.496015 33 109 10 123.649221 10 142 33"></polyline>
                <polyline id="Fill-27" fill="#EAFAF8" points="148 33 143.103967 33 124 10 128.94528 10 148 33"></polyline>
                <path d="M40,90.8816744 L44.6333922,91.4429796 L46.8275327,91.6058009 L52.0144017,92 L96,92 L94.7467702,82.0379038 C93.7584186,75.9321028 90.200353,70.9103494 85.4048712,68.1895188 C82.9142252,66.7883982 80.0835863,66 77.1185316,66 L59.9765619,66 C56.1417579,66 52.5402047,67.2297297 49.5079421,69.3335531 C45.0840805,72.4143045 41.8699612,77.4017798 40.9013766,83.3404746 L40,90.8816744" id="Fill-28" fill="#403430"></path>
                <path d="M45,90 L19.7625995,87.0824712 L41.1087533,89.5489211 L45,90 M8.37931034,80.0059119 L3.94297082,79.798995 C1.89787798,79.7369199 0,78.0857227 0,76 C0,78.0857227 1.89787798,79.7369199 3.94297082,79.798995 L8.37533156,80.0059119 L8.37931034,80.0059119" id="Fill-29" fill="#E8E8E8"></path>
                <path d="M7.38201211,67 L6.66201211,66.9305277 C5.95001211,66.8653975 5.45801211,65.5671343 5.46201211,63.9736139 C5.46201211,63.6696727 5.47801211,63.3570474 5.51801211,63.0400802 L6.60201211,54 L8.53801211,54.1085504 L7.38201211,67" id="Fill-30" fill="#D4491B"></path>
                <path d="M261.629285,92 L97.6203912,92 L96.3689573,82.0045254 C95.3820221,75.8782668 91.8290554,70.8396877 87.0404457,68.1097409 C84.553369,66.7039258 81.7267865,65.9128861 78.7659809,65.9128861 L61.6485766,65.9128861 C59.3194095,65.9128861 57.0731449,66.3685937 54.9887378,67.2026247 C54.3018309,67.477769 53.6307149,67.7959045 52.9753899,68.1527322 C52.3634901,68.4880643 51.7673812,68.8577893 51.1949588,69.2576083 C46.7774368,72.348682 43.5679235,77.352868 42.600727,83.3114606 L41.7006421,90.8779274 L20.5210124,88.3156466 C20.5052214,88.3156466 20.4854827,88.3156466 20.465744,88.3113474 L20.4617963,88.3113474 C20.4460053,88.3113474 20.4262666,88.3113474 20.4104757,88.3070483 L20.4065279,88.3070483 C15.6416047,87.9115285 11.6109613,85.0440095 9.24626454,80.9641362 L9.2225781,80.9641362 L23.5173477,81.6605951 L23.5173477,81.5703134 C23.5173477,76.8068786 19.9683287,72.9419618 15.5942318,72.9419618 L7.00789548,72.9419618 L7,72.7613983 L7.17764834,70.7279104 L7.0868503,70.7279104 L7.44214698,66.7641136 L7.43819923,66.7641136 L8.57909634,54 L88.7971904,58.5527775 C97.9598969,64.8896934 104.221014,76.6134178 105.290852,88.5520987 L155.115289,88.5520987 L157.361553,62.4434891 L160.511851,62.6197534 L158.277429,88.5520987 L242.605122,88.5520987 L245.119833,67.4218803 L272,68.948071 C271.846038,69.046951 271.692076,69.1501301 271.542062,69.2576083 C267.136383,72.348682 263.922922,77.352868 262.955726,83.3114606 L261.629285,92" id="Fill-31" fill="#4594A7"></path>
                <polyline id="Fill-32" fill="#5AB2C7" points="240.509683 88 157 88 159.212747 62 243 66.8146552 240.509683 88"></polyline>
                <path d="M153.772225,88 L104.3579,88 C103.296868,76.459014 97.087287,65.125824 88,59 L156,62.7611063 L153.772225,88" id="Fill-33" fill="#5AB2C7"></path>
                <path d="M24,81 L8.82291303,80.2992529 L4.15368495,80.0829729 C1.99930143,80.0180889 0,78.2921746 0,76.1120724 C0,76.0255604 0.00419140761,75.9347228 0.00838281523,75.8438852 C0.0502968914,75.3334644 0.0880195599,74.8533228 0.129933636,74.3904837 C0.339504017,71.8989383 2.36395389,70 4.7907789,70 L6.65176388,70 L6.46315054,72.0460087 L6.44638491,72.2276838 L15.5878449,72.2276838 C20.2319246,72.2276838 24,76.116398 24,80.9091624 L24,81" id="Fill-34" fill="#C7BFBE"></path>
                <path d="M264.241156,90 L260,90 L261.278052,81.7079448 C262.209966,76.0212607 265.3062,71.2454308 269.55116,68.2954122 C269.695702,68.1928385 269.844047,68.0943678 269.992393,68 L270,68 C269.851655,68.0984707 269.703309,68.1969414 269.554964,68.2995151 C265.94903,72.767624 263.76569,78.6061171 263.773298,84.9903021 C263.773298,86.6109661 263.914036,88.1947035 264.191708,89.7251026 C264.206923,89.8194703 264.222138,89.9097352 264.241156,90" id="Fill-35" fill="#3C322E"></path>
                <path d="M324,88 C324.337866,87.9559059 324.667491,87.8997862 324.997116,87.8316408 C324.667491,87.8997862 324.337866,87.9559059 324,88 M334,74.6555318 L333.99588,74.6555318 L333.839308,73 L334,74.6555318" id="Fill-36" fill="#E8E8E8"></path>
                <path d="M338.222973,86 C338.206081,86 338.189189,86 338.175676,86 L334.462838,85.8886598 C333.638514,85.8639175 333,85.0350515 333,84.057732 C333,83.9752577 333.006757,83.8927835 333.013514,83.8061856 L337.317568,83.8061856 C338.158784,83.8061856 338.888514,83.0927835 339.064189,82.0824742 L339.641892,78.857732 C339.885135,77.4969072 339.037162,76.2103093 337.891892,76.2103093 L335.111486,76.2103093 L334.939189,74 L339.118243,74 C340.172297,74 341,75.0515464 341,76.2927835 C341,76.4041237 340.993243,76.5195876 340.97973,76.6309278 L340.077703,84.0412371 C339.939189,85.171134 339.148649,86 338.222973,86" id="Fill-37" fill="#C7BFBE"></path>
                <path d="M315.664819,89 L314.389672,81.0209629 C313.700618,76.6659756 311.752257,72.8537203 309,70 L333.647553,71.4181064 L333.798036,73.2257544 L334,75.5717577 L325.957073,75.5717577 C324.971012,75.5717577 324.115634,76.3289565 323.90971,77.3969132 L323.232536,80.8240037 C322.95137,82.2683713 323.941391,83.6339553 325.279899,83.6339553 L331.299224,83.6339553 L331.291304,83.6339553 C329.750832,85.5466482 327.699509,86.9472472 325.36306,87.5600092 C325.3591,87.5600092 325.35514,87.5600092 325.35118,87.5600092 C325.3393,87.5643861 325.32346,87.568763 325.307619,87.5731398 C325.299699,87.5731398 325.287819,87.5775167 325.279899,87.5818936 C325.271978,87.5818936 325.260098,87.5862704 325.252178,87.5862704 C325.240298,87.5906473 325.224457,87.5950242 325.212577,87.5950242 C325.208617,87.5994011 325.204657,87.5994011 325.200697,87.5994011 C325.180897,87.6037779 325.165056,87.6081548 325.149216,87.6125317 C324.832409,87.6869385 324.515603,87.7482147 324.190876,87.7963603 L315.664819,89" id="Fill-38" fill="#4594A7"></path>
                <path d="M337.084947,84 L325.202213,84 C323.795431,84 322.754911,82.6449511 323.050419,81.2117264 L323.762134,77.8110749 C323.978562,76.7513572 324.877571,76 325.913929,76 L337.7925,76 C339.203444,76 340.248126,77.3550489 339.948457,78.7882736 L339.236741,82.184582 C339.020313,83.2486428 338.121304,84 337.084947,84" id="Fill-39" fill="#C7BFBE"></path>
                <path d="M311.271992,89 C311.420352,87.8106483 311.49263,86.6043662 311.49263,85.3726888 C311.49263,79.6290933 309.826438,74.3172199 307,70 L308.597718,70.0931165 C311.24156,72.8527512 313.113172,76.5393183 313.775083,80.750724 L315,88.4666964 L311.271992,89" id="Fill-40" fill="#3C322E"></path>
                <path d="M96,92 L91.8924109,92 C91.9082245,91.905735 91.9279915,91.81147 91.9438052,91.7129202 C92.2324038,90.0932762 92.3747264,88.4264997 92.3747264,86.7168754 C92.3747264,79.5098879 89.714084,72.9756098 85.4009178,68.1938036 C82.9102718,66.7841134 80.0835863,66.0042848 77.1185316,66.0042848 L59.9726085,66.0042848 C57.6400988,66.0042848 55.3945641,66.4541859 53.3071655,67.2854318 C55.3945641,66.4541859 57.6440522,66 59.9765619,66 L77.1185316,66 C80.0835863,66 82.9142252,66.7883982 85.4048712,68.1895188 C90.200353,70.9103494 93.7584186,75.9321028 94.7467702,82.0379038 L96,92 M43.8664313,91.3487146 L40,90.8816744 L40.9013766,83.3404746 C41.8699612,77.4017798 45.0840805,72.4143045 49.5079421,69.3335531 C50.081186,68.9350692 50.6781504,68.5665788 51.2909283,68.2323665 C50.6781504,68.5665788 50.081186,68.9350692 49.5039887,69.3378378 C45.7561595,74.0039552 43.4829509,80.1011866 43.4948112,86.7682927 C43.4948112,88.3322347 43.6213202,89.8661833 43.8664313,91.3487146" id="Fill-41" fill="#3C322E"></path>
                <path d="M274,85.4958154 C274,94.6099417 280.713579,102 289.001902,102 C297.290224,102 304,94.6099417 304,85.4958154 C304,76.3858737 297.290224,69 289.001902,69 C280.713579,69 274,76.3858737 274,85.4958154" id="Fill-42" fill="#DAD1D1"></path>
                <path d="M289.015539,102.074009 C282.427383,102.082354 276.829197,97.4427171 274.923018,91.0340105 C274.468797,89.5111082 274.224216,87.8880698 274.224216,86.2066188 C274.216451,77.4405428 280.824019,70.3141945 288.984481,70.3141945 C297.144944,70.3016775 303.775805,77.4071641 303.775805,86.1732401 C303.775805,87.8755528 303.531224,89.4985912 303.077002,91.0340105 C301.170823,97.4343725 295.592049,102.061492 289.015539,102.074009 M265.00002,86.2191358 C265.00002,87.8672081 265.143663,89.4777295 265.427066,91.0340105 C267.523474,102.979406 277.298947,112.008339 289.015539,111.999994 C300.736013,111.97496 310.476546,102.954372 312.572954,91.0340105 C312.860239,89.4568678 313,87.8338295 313,86.1690678 C313,79.1512002 310.387254,72.7883892 306.147851,68.1320632 C303.705924,66.759365 300.926243,66 298.014565,66 L281.181185,66 C277.419297,66 273.882579,67.1891155 270.901021,69.2460767 C267.22066,73.7897496 264.992256,79.7269824 265.00002,86.2191358" id="Fill-43" fill="#1D1715"></path>
                <path d="M276,86.5043478 C276,93.4043478 281.369958,99 288,99 C294.630042,99 300,93.4043478 300,86.5043478 C300,79.5956522 294.630042,74 288,74 C281.369958,74 276,79.5956522 276,86.5043478" id="Fill-44" fill="#FFFFFF"></path>
                <path d="M282,85.997981 C282,89.8624171 284.90972,93 288.498125,93 C292.08653,93 295,89.8624171 295,85.997981 C295,82.1335449 292.08653,79 288.498125,79 C284.90972,79 282,82.1335449 282,85.997981" id="Fill-45" fill="#DAD1D1"></path>
                <path d="M297.928488,80 C296.752326,77.9760589 295.038953,76.3345611 293,75.3032535 L294.05407,73 C296.520349,74.2504604 298.579651,76.2357274 300,78.6807858 L297.928488,80" id="Fill-46" fill="#EDE8E8"></path>
                <path d="M292.987705,82 C292.270492,80.8263971 291.233607,79.8775268 290,79.2782402 L292.036885,75 C294.090164,75.9988109 295.815574,77.588585 297,79.5487515 L292.987705,82" id="Fill-47" fill="#FFFFFF"></path>
                <path d="M288,86 L291.032564,79 C292.257802,79.6541207 293.287653,80.6898118 294,81.9707982 L288,86" id="Fill-48" fill="#EDE8E8"></path>
                <path d="M282.951828,99 C280.46953,97.7438066 278.401625,95.747432 277,93.2984894 L279.067905,92 C280.229832,94.0386707 281.948346,95.6882175 284,96.7329305 L282.951828,99" id="Fill-49" fill="#EDE8E8"></path>
                <path d="M282.963785,96 C280.898949,94.9877049 279.169393,93.3893443 278,91.4139344 L282.002921,89 C282.706192,90.1967213 283.748832,91.1721311 285,91.7868852 L282.963785,96" id="Fill-50" fill="#FFFFFF"></path>
                <path d="M283.937876,93 C282.711423,92.3358634 281.689379,91.2820999 281,89.9892473 L287,86 L283.937876,93" id="Fill-51" fill="#EDE8E8"></path>
                <path d="M54,85.4958154 C54,94.6099417 60.7127282,102 69.0038032,102 C77.2872718,102 84,94.6099417 84,85.4958154 C84,76.3858737 77.2872718,69 69.0038032,69 C60.7127282,69 54,76.3858737 54,85.4958154" id="Fill-52" fill="#DAD1D1"></path>
                <path d="M69.0194339,102.074009 C62.4273987,102.082354 56.8330979,97.4427171 54.9269205,91.0340105 C54.472699,89.5111082 54.2242359,87.8880698 54.2242359,86.2066188 C54.2164715,77.4405428 60.8240356,70.3141945 68.988376,70.3141945 C77.1449519,70.3016775 83.7758094,77.4071641 83.7758094,86.1732401 C83.7758094,87.8755528 83.5351109,89.4985912 83.0770071,91.0340105 C81.1747119,97.4343725 75.5959401,102.061492 69.0194339,102.074009 M45.0000454,86.2191358 C45.0000454,87.8672081 45.143688,89.4777295 45.4270912,91.0340105 C47.5273804,102.979406 57.2989661,112.008339 69.0194339,111.999994 C80.7360194,111.97496 90.4765472,102.954372 92.5768364,91.0340105 C92.8602395,89.4568678 93,87.8338295 93,86.1690678 C93,79.1512002 90.3872558,72.7883892 86.1517373,68.1320632 C83.7059292,66.759365 80.9301311,66 78.0184548,66 L61.1812012,66 C57.4193154,66 53.8825992,67.1891155 50.9010427,69.2460767 C47.2206838,73.7897496 44.9883986,79.7269824 45.0000454,86.2191358" id="Fill-53" fill="#1D1715"></path>
                <path d="M57,86.5043478 C57,93.4043478 62.370892,99 69.0020866,99 C75.629108,99 81,93.4043478 81,86.5043478 C81,79.5956522 75.629108,74 69.0020866,74 C62.370892,74 57,79.5956522 57,86.5043478" id="Fill-54" fill="#FFFFFF"></path>
                <path d="M62,85.997981 C62,89.8624171 64.9097202,93 68.5018748,93 C72.0902798,93 75,89.8624171 75,85.997981 C75,82.1335449 72.0902798,79 68.5018748,79 C64.9097202,79 62,82.1335449 62,85.997981" id="Fill-55" fill="#DAD1D1"></path>
                <path d="M78.9244186,80 C77.7482558,77.9760589 76.0348837,76.3388582 74,75.3032535 L75.0540698,73 C77.5162791,74.2504604 79.5796512,76.2357274 81,78.6807858 L78.9244186,80" id="Fill-56" fill="#EDE8E8"></path>
                <path d="M74.9853544,82 C74.2718219,80.8263971 73.2343292,79.8775268 72,79.2782402 L74.0380785,75 C76.0884593,76.0029727 77.8148799,77.588585 79,79.5487515 L74.9853544,82" id="Fill-57" fill="#FFFFFF"></path>
                <path d="M68,86 L71.0346232,79 C72.2606925,79.6541207 73.2912424,80.6898118 74,81.9707982 L68,86" id="Fill-58" fill="#EDE8E8"></path>
                <path d="M62.9489855,99 C60.4736232,97.7438066 58.4081159,95.747432 57,93.2984894 L59.0736232,92 C60.2342029,94.0344411 61.9466667,95.6882175 64,96.7329305 L62.9489855,99" id="Fill-59" fill="#EDE8E8"></path>
                <path d="M63.9666861,96 C61.8965517,94.9877049 60.170076,93.3852459 59,91.4139344 L63.0052601,89 C63.704851,90.1967213 64.7481005,91.1721311 66,91.7868852 L63.9666861,96" id="Fill-60" fill="#FFFFFF"></path>
                <path d="M65.9338677,93 C64.7074148,92.3358634 63.6853707,91.2820999 63,89.9892473 L69,86 L65.9338677,93" id="Fill-61" fill="#EDE8E8"></path>
                <path d="M245,33 L245.391182,34.7727752 C246.232224,38.6391136 249.436007,41.3700317 253.105297,41.3700317 L330,45 C327.324313,39.8800563 321.663905,39.8589518 316.206912,39.5592684 L249.338212,33.7766444 C247.863454,33.7048892 246.41608,33.4305311 245,33" id="Fill-62" fill="#61C3DA"></path>
            </g>
        </g>
    </g>
</svg>